<svg width="24" height="24" viewBox="0 0 24 24" fill="none" xmlns="http://www.w3.org/2000/svg">
<path d="M18.5498 20.6199H20.0498C20.3298 20.6199 20.5498 20.3999 20.5498 20.1199V17.8299C20.5498 17.5499 20.3298 17.3299 20.0498 17.3299H19.5498V15.5399C19.5498 15.2599 19.3298 15.0399 19.0498 15.0399H7.0498C6.7698 15.0399 6.5498 15.2599 6.5498 15.5399V17.8299C6.5498 18.1099 6.7698 18.3299 7.0498 18.3299H7.5498V19.6199H6.0498C5.7698 19.6199 5.5498 19.8399 5.5498 20.1199V22.4099C5.5498 22.6899 5.7698 22.9099 6.0498 22.9099H18.0498C18.3298 22.9099 18.5498 22.6899 18.5498 22.4099V20.6199ZM7.5498 16.0399H18.5498V17.3299H7.5498V16.0399ZM8.5498 18.3299H19.5498V19.6199H8.5498V18.3299ZM17.5498 21.9099H6.5498V20.6199H17.5498V21.9099ZM4.0898 8.95985C5.0098 10.8999 6.7698 11.9499 9.0298 11.9499C9.5598 11.9499 10.1098 11.8899 10.6898 11.7799C10.9598 11.7299 11.1398 11.4599 11.0798 11.1899C11.0679 11.1249 11.0431 11.0629 11.0067 11.0078C10.9703 10.9527 10.9231 10.9055 10.868 10.869C10.8128 10.8326 10.7509 10.8077 10.686 10.7958C10.621 10.7839 10.5542 10.7853 10.4898 10.7999C7.8798 11.3199 5.9198 10.5199 4.9898 8.53985C4.0498 6.53985 4.3798 3.71985 5.6598 2.29985C6.2098 2.83985 7.2998 3.74985 8.5498 3.86985C10.0398 4.01985 11.1798 4.73985 11.7598 5.90985C12.2498 6.88985 12.2798 8.07985 11.8598 9.15985C11.2498 8.49985 10.4598 7.96985 9.5998 7.38985C8.8498 6.88985 7.9998 6.31985 7.1498 5.57985C6.9398 5.39985 6.6298 5.41985 6.4398 5.62985C6.2498 5.83985 6.2798 6.14985 6.4898 6.33985C7.3898 7.11985 8.2598 7.70985 9.0398 8.22985C10.1598 8.97985 11.0198 9.56985 11.5398 10.3799C11.5398 10.3899 11.5598 10.4099 11.5698 10.4199C11.6998 10.6399 11.8198 10.8699 11.8998 11.1299C11.8998 11.1499 11.8998 11.1699 11.9198 11.1999C12.1398 11.9399 12.1498 12.8699 11.8998 14.1699C11.8498 14.4399 12.0198 14.6999 12.2998 14.7599H12.3998C12.6298 14.7599 12.8398 14.5899 12.8898 14.3599C13.1198 13.1899 13.1298 12.2499 12.9998 11.4699C15.1798 11.3599 16.7598 10.6399 17.6998 9.30985C19.5098 6.74985 18.1998 2.95985 18.1498 2.79985C18.118 2.70319 18.0563 2.61913 17.9736 2.55982C17.8909 2.5005 17.7916 2.469 17.6898 2.46985C14.9698 2.38985 13.3198 3.77985 13.2498 3.83985C13.0398 4.01985 13.0198 4.32985 13.1998 4.53985C13.3798 4.74985 13.6898 4.77985 13.8998 4.59985C13.9098 4.58985 15.1798 3.53985 17.2998 3.47985C17.5498 4.39985 18.1098 7.00985 16.8798 8.74985C16.0998 9.84985 14.6898 10.4399 12.7198 10.4999C12.6702 10.3685 12.61 10.2415 12.5398 10.1199C13.3098 8.64985 13.3698 6.89985 12.6598 5.48985C11.9098 4.00985 10.4898 3.08985 8.6498 2.90985C7.3098 2.77985 6.0698 1.31985 6.0598 1.29985C5.97542 1.19901 5.85491 1.13521 5.72407 1.12213C5.59324 1.10904 5.46248 1.14771 5.3598 1.22985C3.4598 2.78985 2.8598 6.41985 4.0798 8.98985L4.0898 8.95985Z" fill="#67748D"/>
</svg>
