<svg width="24" height="24" viewBox="0 0 24 24" fill="none" xmlns="http://www.w3.org/2000/svg">
<g clip-path="url(#clip0_17960_20299)">
<path d="M3.6088 12.9741C3.58097 12.5657 3.24397 12.2409 2.82922 12.2409H1.02361C0.590246 12.2409 0.237305 12.5936 0.237305 13.0272V19.6375C0.237305 20.0709 0.590246 20.4236 1.02361 20.4236H2.82922C3.1485 20.4236 3.42268 20.231 3.54518 19.9564L9.67802 23.0826C11.2509 23.8865 13.1518 24.01 14.8867 23.2864C17.2401 22.3076 21.4161 20.5072 22.9455 19.4461C23.7902 18.8625 24.0172 17.6901 23.4519 16.8326C23.451 16.8315 23.4501 16.8303 23.4496 16.8292C23.4469 16.8248 23.4436 16.8202 23.4409 16.8158C23.0011 16.1593 22.0912 15.8703 21.2929 16.132C20.889 16.2654 20.0427 16.5435 19.1213 16.8378C20.7388 15.6008 21.7368 13.665 21.7368 11.5389C21.7368 9.56971 20.8755 7.72751 19.3992 6.46705C19.4425 6.43124 19.4878 6.39792 19.5273 6.35742C19.8324 6.04584 20.0002 5.63798 20.0002 5.20944C20.0002 4.31422 19.2722 3.58582 18.377 3.58582H18.3481L18.8825 2.06008C18.9813 1.77654 18.94 1.4769 18.7704 1.23839C18.5958 0.993448 18.3136 0.847081 18.0144 0.847081C17.7561 0.847081 17.5158 0.955076 17.3825 1.15797L17.3049 0.980582C17.1155 0.528375 16.6766 0.236328 16.1872 0.236328C15.8012 0.236328 15.4423 0.419001 15.2139 0.728516C15.1978 0.746441 15.1831 0.765509 15.1697 0.785961C15.0994 0.892347 14.9965 0.908206 14.9413 0.908206C14.849 0.908206 14.764 0.862479 14.7139 0.786192C14.4882 0.443133 14.1086 0.238399 13.6992 0.238399C13.2097 0.238399 12.7718 0.529759 12.5893 0.96542L12.5484 1.15407C12.1629 0.724841 11.4358 0.780676 11.1118 1.23909C10.9418 1.47829 10.9014 1.77815 11.0011 2.06147L11.541 3.60386C10.6691 3.70139 10.099 4.42288 10.099 5.20945C10.099 5.7189 10.3328 6.1722 10.6969 6.47079C9.22553 7.73188 8.36736 9.57247 8.36736 11.539C8.36736 12.0247 8.42383 12.5037 8.5264 12.9721C8.02357 12.9723 10.3479 12.9713 3.6088 12.9741ZM2.67297 19.4824H1.17848V13.1821H2.67297V19.4824ZM21.587 17.0261C21.9882 16.8946 22.4501 17.0277 22.6587 17.3397L22.6592 17.3402C22.6615 17.3439 22.6638 17.3473 22.6661 17.351C22.9519 17.7843 22.8375 18.3769 22.4096 18.6722C20.9515 19.6842 16.8439 21.453 14.525 22.4176C13.1141 23.0058 11.4703 22.9415 10.1059 22.2441L3.6146 18.9353V13.9153H8.53694C10.6226 13.9153 10.4173 16.1001 13.0034 16.1001H15.6633C16.1007 16.1051 16.5076 16.4052 16.5889 16.8306C16.6747 17.3699 16.2499 17.8335 15.7359 17.8335H9.57462C9.31451 17.8335 9.10403 18.0442 9.10403 18.3041C9.10403 18.564 9.31451 18.7747 9.57462 18.7747H15.7359C16.3078 18.7747 21.0014 17.2196 21.587 17.0261ZM12.5227 2.09408C12.8991 2.09408 13.2313 1.86844 13.3595 1.54284L13.4505 1.34431C13.5149 1.19127 13.6569 1.17956 13.6992 1.17956C13.7538 1.17956 13.8563 1.19564 13.9276 1.30341C14.1523 1.64532 14.5314 1.84936 14.9414 1.84936C15.3274 1.84936 15.6858 1.66876 15.9142 1.36269C15.9317 1.34362 15.9473 1.3234 15.9616 1.30157C16.0319 1.19358 16.133 1.17749 16.1872 1.17749C16.2295 1.17749 16.3724 1.18967 16.4395 1.35029L16.5172 1.5286C16.6606 1.86867 16.991 2.08857 17.3586 2.08857C17.5806 2.08857 17.7929 2.00677 17.9538 1.86454L17.3513 3.58581H12.5319L11.9294 1.86476C12.0948 2.01159 12.3053 2.09408 12.5227 2.09408ZM11.2451 4.72414C11.5266 4.43698 11.8756 4.55426 12.1978 4.52699C13.8768 4.52699 16.9342 4.52699 18.377 4.52699C18.7529 4.52699 19.059 4.83305 19.059 5.20943C19.059 5.53771 18.8194 5.86035 18.4202 5.89579L11.7272 5.89647L11.6642 5.89395C11.3085 5.85994 11.0402 5.56559 11.0402 5.20943C11.0402 5.02584 11.1105 4.85626 11.2451 4.72414ZM11.7575 6.83765H18.3425C19.8816 7.91187 20.7957 9.65842 20.7957 11.5389C20.7957 13.7793 19.5089 15.7777 17.5273 16.7182C17.3992 15.8629 16.6643 15.1589 15.7359 15.1589H15.6633C15.6596 15.1589 15.656 15.1577 15.6523 15.1577H13.0025C12.455 15.1577 11.9431 14.9655 11.5375 14.6446C11.5305 14.639 11.5228 14.6343 11.5158 14.6286C11.0788 14.2742 10.7372 13.4825 9.52912 13.1203C9.38252 12.609 9.30853 12.0785 9.30853 11.5389C9.30854 9.65911 10.2212 7.91279 11.7575 6.83765Z" fill="#67748D"/>
<path d="M15.0508 15.0688C17.2562 15.0688 19.0503 13.2745 19.0503 11.0688C19.0503 8.8632 17.2562 7.06885 15.0508 7.06885C12.8454 7.06885 11.0508 8.8632 11.0508 11.0688C11.0508 13.2745 12.8454 15.0688 15.0508 15.0688ZM15.0508 8.01002C16.7374 8.01002 18.1091 9.38227 18.1091 11.0688C18.1091 12.7554 16.7374 14.1277 15.0508 14.1277C13.3642 14.1277 11.992 12.7554 11.992 11.0688C11.992 9.38227 13.3642 8.01002 15.0508 8.01002Z" fill="#67748D"/>
<path d="M14.1431 12.0793C14.0718 12.0478 13.9807 12.0541 13.9216 12.1156C13.829 12.2125 13.8621 12.3695 13.9969 12.4258C14.298 12.5566 14.6233 12.6294 14.973 12.6446V13.0003C14.973 13.0643 15.015 13.1007 15.0732 13.1007C15.1322 13.1007 15.178 13.0636 15.178 13.0003V12.6446C15.75 12.6123 16.2497 12.3047 16.2497 11.7555C16.2497 11.1458 15.7635 10.9707 15.178 10.8344V9.74911C15.4119 9.75209 15.6403 9.79322 15.8618 9.87227C16.0099 9.93083 16.1174 9.82241 16.1174 9.70338C16.1174 9.61239 16.0746 9.5515 15.9896 9.52116C15.7405 9.42994 15.4698 9.37985 15.178 9.37066V9.01956C15.178 8.9582 15.1345 8.91455 15.0732 8.91455C15.0111 8.91455 14.973 8.95921 14.973 9.01956V9.37526C14.2607 9.41324 13.9014 9.82659 13.9014 10.3054C13.9014 10.8906 14.4173 11.0684 14.973 11.2128V12.2571C14.6656 12.248 14.3894 12.1887 14.1431 12.0793ZM15.178 11.2629C15.4674 11.3395 15.8393 11.4397 15.8393 11.7282C15.8393 12.0474 15.6187 12.2222 15.178 12.2526V11.2629ZM14.3117 10.2735C14.3117 9.94096 14.6414 9.78876 14.973 9.7583V10.7843C14.6562 10.704 14.3117 10.6006 14.3117 10.2735Z" fill="#67748D"/>
</g>
<defs>
<clipPath id="clip0_17960_20299">
<rect width="24" height="24" fill="white"/>
</clipPath>
</defs>
</svg>
