<svg width="24" height="24" viewBox="0 0 24 24" fill="none" xmlns="http://www.w3.org/2000/svg">
<path d="M12 10.5C12.89 10.5 13.76 10.2361 14.5001 9.74162C15.2401 9.24715 15.8169 8.54434 16.1575 7.72208C16.4981 6.89981 16.5872 5.99501 16.4135 5.1221C16.2399 4.24918 15.8113 3.44736 15.182 2.81802C14.5526 2.18869 13.7508 1.7601 12.8779 1.58647C12.005 1.41283 11.1002 1.50195 10.2779 1.84254C9.45566 2.18314 8.75285 2.75991 8.25839 3.49994C7.76392 4.23996 7.5 5.10999 7.5 6C7.5 7.19348 7.97411 8.33807 8.81802 9.18198C9.66193 10.0259 10.8065 10.5 12 10.5ZM12 3C12.5933 3 13.1734 3.17595 13.6667 3.50559C14.1601 3.83524 14.5446 4.30377 14.7716 4.85195C14.9987 5.40013 15.0581 6.00333 14.9424 6.58527C14.8266 7.16722 14.5409 7.70177 14.1213 8.12132C13.7018 8.54088 13.1672 8.8266 12.5853 8.94236C12.0033 9.05811 11.4001 8.9987 10.8519 8.77164C10.3038 8.54458 9.83524 8.16006 9.50559 7.66671C9.17595 7.17337 9 6.59335 9 6C9 5.20435 9.31607 4.44129 9.87868 3.87868C10.4413 3.31607 11.2044 3 12 3ZM12 12C10.0109 12 8.10322 12.7902 6.6967 14.1967C5.29018 15.6032 4.5 17.5109 4.5 19.5V21.75C4.5 21.9489 4.57902 22.1397 4.71967 22.2803C4.86032 22.421 5.05109 22.5 5.25 22.5C5.44891 22.5 5.63968 22.421 5.78033 22.2803C5.92098 22.1397 6 21.9489 6 21.75V19.5C6 17.9087 6.63214 16.3826 7.75736 15.2574C8.88258 14.1321 10.4087 13.5 12 13.5C13.5913 13.5 15.1174 14.1321 16.2426 15.2574C17.3679 16.3826 18 17.9087 18 19.5V21.75C18 21.9489 18.079 22.1397 18.2197 22.2803C18.3603 22.421 18.5511 22.5 18.75 22.5C18.9489 22.5 19.1397 22.421 19.2803 22.2803C19.421 22.1397 19.5 21.9489 19.5 21.75V19.5C19.5 17.5109 18.7098 15.6032 17.3033 14.1967C15.8968 12.7902 13.9891 12 12 12Z" fill="#67748D"/>
</svg>
