<?xml version="1.0" encoding="UTF-8"?>
<svg version="1.1" xmlns="http://www.w3.org/2000/svg" width="512" height="512">
<path d="M0 0 C1.1034375 -0.00773438 2.206875 -0.01546875 3.34375 -0.0234375 C6.89875017 0.42533727 8.6895337 1.17090143 11.5 3.375 C18.55023988 15.1253998 14.5 30.67179681 14.5 44.375 C47.17 44.375 79.84 44.375 113.5 44.375 C113.5 32.495 113.5 20.615 113.5 8.375 C117.13294118 2.32009804 117.13294118 2.32009804 121.5 0.375 C124.65625 -0.0234375 124.65625 -0.0234375 128 0 C129.65515625 -0.01160156 129.65515625 -0.01160156 131.34375 -0.0234375 C134.89875017 0.42533727 136.6895337 1.17090143 139.5 3.375 C146.55023988 15.1253998 142.5 30.67179681 142.5 44.375 C174.84 44.375 207.18 44.375 240.5 44.375 C240.5 33.815 240.5 23.255 240.5 12.375 C242.38984878 6.70545367 243.24950946 5.09417922 247.5 1.375 C250.30107012 -0.02553506 252.68891681 0.1674496 255.8125 0.125 C256.94300781 0.09921875 258.07351563 0.0734375 259.23828125 0.046875 C262.89664977 0.41490249 264.63037095 1.10300454 267.5 3.375 C270.81741925 7.64474306 270.89880971 11.53197284 270.79296875 16.73828125 C270.78872391 17.53026413 270.78447906 18.32224701 270.78010559 19.13822937 C270.76338163 21.65500627 270.72574225 24.17096724 270.6875 26.6875 C270.67244499 28.39907693 270.65875801 30.11066649 270.64648438 31.82226562 C270.61349885 36.00682233 270.56176098 40.19077307 270.5 44.375 C271.28767761 44.36389694 272.07535522 44.35279388 272.88690186 44.34135437 C280.35891027 44.24060947 287.83058318 44.16476264 295.30309677 44.11593914 C299.14360596 44.08999327 302.98354773 44.05487639 306.82373047 43.99780273 C310.53909013 43.94293826 314.25390873 43.91346703 317.96964264 43.90061378 C319.37768303 43.89147023 320.78569832 43.87361855 322.19350433 43.84634972 C332.8026754 43.64927752 342.1674 45.14505742 350.875 51.625 C361.48900285 62.74443156 362.77736438 76.02785748 364.98242188 90.74316406 C365.21497005 92.26594934 365.44802583 93.78865718 365.68154049 95.31129456 C366.31659441 99.46162341 366.94461007 103.61299039 367.57145762 107.76456547 C368.24968313 112.24756255 368.93468641 116.72952435 369.61891174 121.21160889 C370.80073256 128.95905134 371.97855913 136.7070921 373.15359497 144.45556641 C375.0103435 156.69906339 376.87446635 168.94143119 378.73999023 181.18359375 C379.37738872 185.36681769 380.0147549 189.55004656 380.65211487 193.73327637 C380.81116883 194.77714933 380.97022279 195.82102229 381.13409656 196.89652777 C382.11068027 203.306349 383.08655837 209.71627722 384.06189126 216.12628889 C388.60952145 246.01384311 393.18315341 275.89730999 397.77981424 305.77736187 C398.40773669 309.85940752 399.03541503 313.94149068 399.66308868 318.02357459 C402.21719227 334.63404866 404.77167539 351.24446388 407.33105469 367.85412598 C408.59352038 376.04720355 409.85417885 384.24055689 411.11267704 392.43424487 C411.75202274 396.59633156 412.39223066 400.75828048 413.03491402 404.91985321 C417.44605345 433.48927213 417.44605345 433.48927213 419.29467773 447.4375 C419.47322217 448.7694062 419.47322217 448.7694062 419.65537357 450.1282196 C422.73215441 474.06917996 422.73215441 474.06917996 415.5 484.375 C414.4171875 485.98375 414.4171875 485.98375 413.3125 487.625 C405.44844649 495.31429676 396.45899049 498.6969042 385.51104927 498.62947559 C384.73239358 498.63268207 383.95373789 498.63588855 383.15148658 498.63919219 C380.54469206 498.64748753 377.93812758 498.64156954 375.33132935 498.63569641 C373.44254209 498.6387173 371.55375605 498.64260647 369.66497219 498.64728898 C364.47622129 498.6575857 359.28753937 498.65538288 354.09878278 498.65110838 C348.50221842 498.64864421 342.9056708 498.65765149 337.30911255 498.66514587 C326.34546771 498.67790344 315.38184735 498.67968525 304.41819634 498.67734561 C295.50777707 498.67556349 286.59736524 498.67730982 277.68694687 498.68157005 C275.7855941 498.68246284 275.7855941 498.68246284 273.84583016 498.68337366 C271.27086648 498.68458539 268.6959028 498.68579953 266.12093912 498.68701603 C248.82863687 498.69480464 231.53633901 498.6987214 214.24403572 498.69469929 C213.5678748 498.69454291 212.89171388 498.69438654 212.19506323 498.69422542 C208.7680511 498.69341964 205.34103899 498.69257387 201.91402687 498.69171212 C201.23341766 498.69154103 200.55280845 498.69136994 199.85157471 498.69119367 C198.4752178 498.69084702 197.09886088 498.69049849 195.72250397 498.69014808 C174.30603454 498.68479079 152.88960628 498.6927217 131.47314453 498.71118164 C107.40848889 498.73189992 83.34386511 498.7425936 59.27919757 498.73860615 C46.53856575 498.73669241 33.79797143 498.73919853 21.05734634 498.75332069 C10.21126285 498.76522111 -0.63476005 498.76665441 -11.48084436 498.75453053 C-17.01507559 498.74863248 -22.54919589 498.74756805 -28.0834198 498.75953293 C-33.15014057 498.77035982 -38.21665738 498.76732639 -43.28336848 498.75327124 C-45.11574321 498.75061551 -46.94813377 498.75301826 -48.78049301 498.76100711 C-62.66369198 498.81733199 -72.72383528 497.64445775 -83.19140625 487.78125 C-91.82821993 478.60328258 -92.0805859 467.95129232 -92.00793457 455.97827148 C-92.01254856 454.31859256 -92.01890481 452.65891772 -92.02684355 450.99925137 C-92.04349164 446.45760616 -92.03531114 441.91629857 -92.02289867 437.37465239 C-92.01383196 432.46931934 -92.02782595 427.56404352 -92.03881836 422.65872192 C-92.05659085 413.05670996 -92.05276924 403.45482317 -92.0411678 393.85280633 C-92.03212876 386.04800913 -92.03091151 378.24324698 -92.03526306 370.43844604 C-92.03587599 369.32699295 -92.03648893 368.21553986 -92.03712043 367.07040638 C-92.03839935 364.81240502 -92.03969621 362.55440367 -92.0410108 360.29640234 C-92.05241288 339.13056294 -92.03930871 317.96479288 -92.01780933 296.79896486 C-91.9999387 278.64361113 -92.00304291 260.4883597 -92.02148438 242.33300781 C-92.04289764 221.24213127 -92.05131427 200.15131547 -92.03903532 179.06042957 C-92.03776114 176.81080438 -92.03650366 174.56117917 -92.03526306 172.31155396 C-92.03433741 170.65133096 -92.03433741 170.65133096 -92.03339306 168.95756811 C-92.02994153 161.1635002 -92.03576426 153.36947087 -92.04518127 145.57540894 C-92.05640767 136.07509877 -92.05334765 126.57492078 -92.0320583 117.07462573 C-92.02155659 112.22880578 -92.01741113 107.38320609 -92.03065491 102.53738785 C-92.04260275 98.09856182 -92.03597689 93.66015954 -92.0147447 89.22137177 C-92.01028877 87.61854664 -92.01252218 86.01568546 -92.02224785 84.41288364 C-92.09559626 71.31702591 -90.21389027 62.25181275 -81.01171875 52.578125 C-74.799686 47.12931245 -67.68321773 44.24069895 -59.45605469 44.26147461 C-58.45531921 44.26155014 -57.45458374 44.26162567 -56.42352295 44.26170349 C-54.81395721 44.26944542 -54.81395721 44.26944542 -53.171875 44.27734375 C-52.06773254 44.2787587 -50.96359009 44.28017365 -49.82598877 44.28163147 C-46.30063158 44.28722742 -42.77533798 44.29977921 -39.25 44.3125 C-36.85937592 44.31751552 -34.46875084 44.32207834 -32.078125 44.32617188 C-26.21872832 44.33719553 -20.3593687 44.35392967 -14.5 44.375 C-14.51571045 43.31063721 -14.5314209 42.24627441 -14.54760742 41.1496582 C-14.60203054 37.18944914 -14.63639493 33.22927296 -14.66479492 29.26879883 C-14.6798534 27.55682816 -14.70030455 25.84489589 -14.72631836 24.13305664 C-14.7628319 21.66803495 -14.77975562 19.20352465 -14.79296875 16.73828125 C-14.80845261 15.97663162 -14.82393646 15.21498199 -14.83988953 14.43025208 C-14.84132168 9.87724528 -14.31351198 6.99370164 -11.5 3.375 C-7.70146509 0.39601201 -4.77064023 -0.03343907 0 0 Z " fill="#E5E5E5" transform="translate(91.5,6.625)"/>
<path d="M0 0 C1.1034375 -0.00773438 2.206875 -0.01546875 3.34375 -0.0234375 C6.89875017 0.42533727 8.6895337 1.17090143 11.5 3.375 C18.55023988 15.1253998 14.5 30.67179681 14.5 44.375 C47.17 44.375 79.84 44.375 113.5 44.375 C113.5 32.495 113.5 20.615 113.5 8.375 C117.13294118 2.32009804 117.13294118 2.32009804 121.5 0.375 C124.65625 -0.0234375 124.65625 -0.0234375 128 0 C129.65515625 -0.01160156 129.65515625 -0.01160156 131.34375 -0.0234375 C134.89875017 0.42533727 136.6895337 1.17090143 139.5 3.375 C146.55023988 15.1253998 142.5 30.67179681 142.5 44.375 C174.84 44.375 207.18 44.375 240.5 44.375 C240.5 33.815 240.5 23.255 240.5 12.375 C242.38984878 6.70545367 243.24950946 5.09417922 247.5 1.375 C250.30107012 -0.02553506 252.68891681 0.1674496 255.8125 0.125 C256.94300781 0.09921875 258.07351563 0.0734375 259.23828125 0.046875 C262.89664977 0.41490249 264.63037095 1.10300454 267.5 3.375 C270.81741925 7.64474306 270.89880971 11.53197284 270.79296875 16.73828125 C270.78872391 17.53026413 270.78447906 18.32224701 270.78010559 19.13822937 C270.76338163 21.65500627 270.72574225 24.17096724 270.6875 26.6875 C270.67244499 28.39907693 270.65875801 30.11066649 270.64648438 31.82226562 C270.61349885 36.00682233 270.56176098 40.19077307 270.5 44.375 C271.28767761 44.36389694 272.07535522 44.35279388 272.88690186 44.34135437 C280.35891027 44.24060947 287.83058318 44.16476264 295.30309677 44.11593914 C299.14360596 44.08999327 302.98354773 44.05487639 306.82373047 43.99780273 C310.53909013 43.94293826 314.25390873 43.91346703 317.96964264 43.90061378 C319.37768303 43.89147023 320.78569832 43.87361855 322.19350433 43.84634972 C332.8026754 43.64927752 342.1674 45.14505742 350.875 51.625 C382.24069888 84.48430358 362.5 180.39944292 362.5 194.375 C212.68 194.375 62.86 194.375 -91.5 194.375 C-91.5 63.60382231 -91.5 63.60382231 -81.01171875 52.578125 C-74.799686 47.12931245 -67.68321773 44.24069895 -59.45605469 44.26147461 C-58.45531921 44.26155014 -57.45458374 44.26162567 -56.42352295 44.26170349 C-54.81395721 44.26944542 -54.81395721 44.26944542 -53.171875 44.27734375 C-52.06773254 44.2787587 -50.96359009 44.28017365 -49.82598877 44.28163147 C-46.30063158 44.28722742 -42.77533798 44.29977921 -39.25 44.3125 C-36.85937592 44.31751552 -34.46875084 44.32207834 -32.078125 44.32617188 C-26.21872832 44.33719553 -20.3593687 44.35392967 -14.5 44.375 C-14.51571045 43.31063721 -14.5314209 42.24627441 -14.54760742 41.1496582 C-14.60203054 37.18944914 -14.63639493 33.22927296 -14.66479492 29.26879883 C-14.6798534 27.55682816 -14.70030455 25.84489589 -14.72631836 24.13305664 C-14.7628319 21.66803495 -14.77975562 19.20352465 -14.79296875 16.73828125 C-14.80845261 15.97663162 -14.82393646 15.21498199 -14.83988953 14.43025208 C-14.84132168 9.87724528 -14.31351198 6.99370164 -11.5 3.375 C-7.70146509 0.39601201 -4.77064023 -0.03343907 0 0 Z " fill="#E9473B" transform="translate(91.5,6.625)"/>
<path d="M0 0 C0.33 0 0.66 0 1 0 C7.6873271 43.43976538 14.3714638 86.88002065 21.05139901 130.32092337 C21.84234872 135.46460345 22.6333245 140.60827953 23.42431641 145.75195312 C23.58176975 146.77584591 23.73922309 147.79973869 23.90144774 148.85465853 C26.44165505 165.37278999 28.9839673 181.89059681 31.52707544 198.40828188 C34.14191291 215.39217055 36.75444666 232.37641246 39.3648994 249.36097562 C40.9721337 259.81775952 42.58110494 270.27427298 44.1923925 280.73043309 C45.30132743 287.92781698 46.40799859 295.12554681 47.51299343 302.32353665 C48.14791637 306.45903118 48.78373665 310.59438161 49.42228127 314.72931862 C51.83096617 330.33141605 54.18355201 345.93771602 56.29730225 361.58285522 C56.4630142 362.79744938 56.62872616 364.01204355 56.7994597 365.26344359 C60.28938497 391.61262642 60.28938497 391.61262642 53 402 C51.9171875 403.60875 51.9171875 403.60875 50.8125 405.25 C43.37145419 412.52568923 34.67403783 416.26773504 24.23852539 416.22705078 C22.93770523 416.22689972 21.63688507 416.22674866 20.29664612 416.22659302 C18.89698123 416.21638281 17.49731795 416.20595087 16.09765625 416.1953125 C14.65034685 416.19157733 13.20303489 416.18873274 11.75572205 416.18673706 C7.96634813 416.17914024 4.17713015 416.15952625 0.38781738 416.1373291 C-3.48687634 416.11678503 -7.36159551 416.10771712 -11.23632812 416.09765625 C-18.82428945 416.07627617 -26.41212279 416.04218862 -34 416 C-34 415.67 -34 415.34 -34 415 C-33.0821875 414.85304688 -32.164375 414.70609375 -31.21875 414.5546875 C-24.16036465 413.26460446 -18.86685749 412.04408354 -13.453125 407.20703125 C-12 406 -12 406 -10 406 C-9.72285156 405.44441406 -9.44570313 404.88882812 -9.16015625 404.31640625 C-8.35959483 402.7179789 -7.55463202 401.12175099 -6.74609375 399.52734375 C-6.31425781 398.67269531 -5.88242187 397.81804687 -5.4375 396.9375 C-4.78587891 395.65166016 -4.78587891 395.65166016 -4.12109375 394.33984375 C-2.5000281 390.95650464 -1.87419456 388.32658211 -1.86412811 384.61769581 C-1.85927037 383.71589236 -1.85441262 382.81408891 -1.84940767 381.88495809 C-1.84911169 380.89230134 -1.8488157 379.8996446 -1.84851074 378.87690735 C-1.84427833 377.82222344 -1.84004592 376.76753953 -1.83568525 375.68089551 C-1.8226075 372.1236067 -1.81662061 368.56634037 -1.81054688 365.0090332 C-1.80260343 362.46128198 -1.79421539 359.9135321 -1.78541565 357.36578369 C-1.76729004 351.84614228 -1.75217563 346.32650522 -1.73963928 340.80684853 C-1.72116609 332.70440944 -1.69648098 324.60199784 -1.67026538 316.49958052 C-1.62731641 303.19268239 -1.58832388 289.88577587 -1.55224609 276.57885742 C-1.55008329 275.7815324 -1.54792049 274.98420738 -1.54569215 274.162721 C-1.53696442 270.94297717 -1.52824581 267.72323331 -1.51953927 264.50348942 C-1.4484245 238.2391058 -1.37169187 211.9747397 -1.28845787 185.7103917 C-1.28125008 183.42580749 -1.274135 181.14122301 -1.26704407 178.85663843 C-1.08149251 119.23512419 -0.63001875 59.61858096 0 0 Z " fill="#A8A8A8" transform="translate(454,89)"/>
<path d="M0 0 C0.33 0 0.66 0 1 0 C1 39.27 1 78.54 1 119 C-148.82 119 -298.64 119 -453 119 C-453 109.43 -453 99.86 -453 90 C-303.51 90 -154.02 90 0 90 C0 60.3 0 30.6 0 0 Z " fill="#F67D7A" transform="translate(453,82)"/>
<path d="M0 0 C6.93 0 13.86 0 21 0 C21.00142502 3.44362976 21.00285004 6.88725952 21.00431824 10.4352417 C21.01970784 42.04078974 21.05984842 73.64622344 21.12685562 105.25170492 C21.13562199 109.39713232 21.14417186 113.54256015 21.15258789 117.68798828 C21.15426695 118.51324085 21.15594602 119.33849341 21.15767596 120.18875363 C21.18431908 133.5372636 21.19343911 146.88573063 21.19604143 160.23426446 C21.19910485 173.93917271 21.22109646 187.64395715 21.26052457 201.34880948 C21.28424593 209.80009242 21.29334246 218.25112791 21.28351311 226.70243952 C21.27818228 232.50405952 21.29129812 238.30545854 21.3186629 244.10701564 C21.33389654 247.45046866 21.33850045 250.79301663 21.32659721 254.13654518 C21.31493921 257.77184393 21.33415188 261.40576261 21.36076355 265.04095459 C21.35009029 266.08379317 21.33941703 267.12663175 21.32842034 268.2010715 C21.46215255 278.04087013 24.48998416 286.54459198 31 294 C37.25153847 298.9126263 43.14688052 301.84134303 51 303 C51 303.33 51 303.66 51 304 C47.18764896 304.08809201 43.37556447 304.1407549 39.5625 304.1875 C37.95858398 304.22520508 37.95858398 304.22520508 36.32226562 304.26367188 C24.56459675 304.3715404 16.83771347 301.44292632 8.30859375 293.40625 C0.94817491 285.58465204 -0.59621896 276.65046021 -0.48101807 266.24349976 C-0.48443577 265.09972795 -0.48785347 263.95595615 -0.49137473 262.77752459 C-0.49793377 258.96649514 -0.47600904 255.1561788 -0.45410156 251.34521484 C-0.45074115 248.6048539 -0.45343188 245.86450661 -0.45587158 243.12414551 C-0.45796289 237.23543367 -0.445477 231.34689993 -0.42292023 225.45823288 C-0.39032889 216.94437588 -0.37998594 208.43060447 -0.37496826 199.91669185 C-0.36622676 186.1014763 -0.33964236 172.28635553 -0.30175781 158.47119141 C-0.26500802 145.05583163 -0.23671081 131.64049765 -0.21972656 118.22509766 C-0.21867567 117.39734012 -0.21762477 116.56958258 -0.21654204 115.71674149 C-0.21132166 111.56387618 -0.20626688 107.4110107 -0.20129442 103.25814509 C-0.15986806 68.83869238 -0.08834544 34.41936294 0 0 Z " fill="#CCCBCA" transform="translate(0,201)"/>
<path d="M0 0 C0.33 0 0.66 0 1 0 C4.51478756 22.66650872 8.02743969 45.33334753 11.53774261 68.00055122 C13.16873248 78.53209212 14.80035848 89.06353364 16.43359375 99.59472656 C29.01383976 180.71726675 29.01383976 180.71726675 33.84375 213.3046875 C34.00634811 214.39934452 34.16894623 215.49400154 34.33647156 216.62182999 C34.7805796 219.61719244 35.22205957 222.61292566 35.66210938 225.60888672 C35.84770416 226.86332644 35.84770416 226.86332644 36.03704834 228.14310837 C40.68736264 260.04550824 40.68736264 260.04550824 33 271 C31.9171875 272.60875 31.9171875 272.60875 30.8125 274.25 C23.0640528 281.82625949 14.34899189 285.22847138 3.65089417 285.22659302 C2.2942289 285.21110916 2.2942289 285.21110916 0.91015625 285.1953125 C-0.5066317 285.19106766 -0.5066317 285.19106766 -1.95204163 285.18673706 C-4.94732724 285.17560684 -7.94230586 285.1505156 -10.9375 285.125 C-12.9772092 285.11496095 -15.01692312 285.10583672 -17.05664062 285.09765625 C-22.0378774 285.07569096 -27.01888678 285.04121076 -32 285 C-32 284.67 -32 284.34 -32 284 C-31.23816406 283.85304688 -30.47632813 283.70609375 -29.69140625 283.5546875 C-19.63572481 281.37030726 -11.9594088 277.68370997 -6 269 C-1.53513862 260.60000655 -0.85123501 253.01865506 -0.84178162 243.63565063 C-0.83684364 242.59330179 -0.83190566 241.55095294 -0.82681805 240.47701776 C-0.81146412 236.98549389 -0.80308809 233.49398839 -0.79467773 230.00244141 C-0.78509756 227.49912352 -0.7750874 224.99580725 -0.76467896 222.49249268 C-0.7432406 217.10361898 -0.72479342 211.71474776 -0.70907402 206.32585526 C-0.68634136 198.53446585 -0.65820328 190.74310331 -0.62875474 182.95173673 C-0.58112042 170.31012152 -0.53784499 157.66849531 -0.49731445 145.02685547 C-0.45793834 132.74820093 -0.41650706 120.46955616 -0.37231445 108.19091797 C-0.36959018 107.43379743 -0.36686591 106.6766769 -0.36405908 105.89661331 C-0.35037926 102.0982829 -0.33665905 98.29995263 -0.32291877 94.50162244 C-0.20901936 63.00110179 -0.10226828 31.50056066 0 0 Z " fill="#B9B9B9" transform="translate(474,220)"/>
<path d="M0 0 C1.69576172 -0.03867188 1.69576172 -0.03867188 3.42578125 -0.078125 C7.08414977 0.28990249 8.81787095 0.97800454 11.6875 3.25 C14.59632188 7.19660383 15.05089689 9.9825882 15.00878906 14.84106445 C15.00598938 16.15625565 15.0031897 17.47144684 15.00030518 18.82649231 C14.99226112 19.524694 14.98421707 20.2228957 14.97592926 20.94225502 C14.95282256 23.14207446 14.95182208 25.3408934 14.95721436 27.54081726 C14.96985157 33.79268402 14.95302448 40.04401785 14.89697266 46.2956543 C14.86417679 50.12732193 14.86563736 53.95775625 14.88799286 57.78948021 C14.88973242 59.2426499 14.87859364 60.69589829 14.85388947 62.14885902 C14.57925733 71.7640525 14.57925733 71.7640525 19.11230469 79.95385742 C19.73159851 80.51223801 20.35089233 81.07061859 20.98895264 81.6459198 C24.43263699 84.89807868 24.99204035 88.12570403 25.16992188 92.78369141 C25.23904078 101.00692161 24.40278367 106.86732652 18.6875 113.25 C13.07561939 118.66914936 7.66153299 120.85911151 -0.125 121.625 C-6.9579161 121.39988455 -13.18239034 118.67105922 -18.1875 114.0625 C-24.08453508 107.48235683 -26.01620654 100.90583362 -25.703125 92.1171875 C-24.84101077 85.78926907 -21.56124494 80.92361943 -17.3125 76.25 C-16.3225 75.755 -16.3225 75.755 -15.3125 75.25 C-15.31694122 74.47405487 -15.32138245 73.69810974 -15.32595825 72.89865112 C-15.36609848 65.5718877 -15.39651661 58.2451779 -15.41612434 50.91833305 C-15.42654387 47.1518877 -15.44066946 43.38553352 -15.46337891 39.61914062 C-15.48517283 35.98166131 -15.49708239 32.34426948 -15.50225449 28.70672989 C-15.50593852 27.32171375 -15.51313247 25.93670219 -15.52396011 24.55172348 C-15.5385613 22.60598199 -15.53931766 20.66015173 -15.53955078 18.71435547 C-15.543992 17.60849091 -15.54843323 16.50262634 -15.55300903 15.36325073 C-15.05911801 8.9701163 -13.11716181 5.45407908 -8.3125 1.25 C-5.51142988 -0.15053506 -3.12358319 0.0424496 0 0 Z " fill="#414356" transform="translate(347.3125,6.75)"/>
<path d="M0 0 C1.1034375 -0.00773438 2.206875 -0.01546875 3.34375 -0.0234375 C6.89875017 0.42533727 8.6895337 1.17090143 11.5 3.375 C14.40996971 7.32050317 14.86339193 10.10816032 14.82128906 14.96606445 C14.81848938 16.28125565 14.8156897 17.59644684 14.81280518 18.95149231 C14.80476112 19.649694 14.79671707 20.3478957 14.78842926 21.06725502 C14.76532256 23.26707446 14.76432208 25.4658934 14.76971436 27.66581726 C14.78235157 33.91768402 14.76552448 40.16901785 14.70947266 46.4206543 C14.67667679 50.25232193 14.67813736 54.08275625 14.70049286 57.91448021 C14.70223242 59.3676499 14.69109364 60.82089829 14.66638947 62.27385902 C14.39806289 71.90200674 14.39806289 71.90200674 18.92871094 80.11401367 C19.54872986 80.67892014 20.16874878 81.2438266 20.80755615 81.82585144 C24.00431559 84.75194869 25.23358457 88.30371382 25.77734375 92.53125 C26.12137909 100.56791554 23.38802817 107.04931648 18.5 113.375 C13.73578224 118.00309725 7.23777671 121.53007822 0.5 121.8125 C-7.2164249 121.32256826 -13.15024958 118.62359551 -18.7734375 113.34765625 C-23.89790345 107.49277999 -25.87073313 100.73621191 -25.78125 93.07421875 C-25.05115387 86.06732397 -21.72628398 80.89502939 -16.5 76.375 C-14.67173984 74.54673984 -15.35587977 71.64525891 -15.34228516 69.19042969 C-15.33720444 68.5448259 -15.33212372 67.89922211 -15.32688904 67.23405457 C-15.31616374 65.82737346 -15.30755208 64.42067506 -15.30076981 63.01396942 C-15.28900559 60.78609741 -15.26955768 58.55842144 -15.24765015 56.33062744 C-15.18596335 49.99473622 -15.13204446 43.65886215 -15.09863281 37.32275391 C-15.07766124 33.45053202 -15.0423328 29.57866246 -14.99787521 25.70664215 C-14.98372822 24.23154099 -14.9749957 22.75637743 -14.97182083 21.28121185 C-14.96689987 19.21281744 -14.94371188 17.14535315 -14.91650391 15.07714844 C-14.90841705 13.9010199 -14.9003302 12.72489136 -14.89199829 11.51312256 C-14.32899582 7.00603466 -12.77361274 4.37382643 -9.21875 1.5859375 C-5.9624872 0.13559056 -3.55653804 -0.024929 0 0 Z " fill="#424356" transform="translate(91.5,6.625)"/>
<path d="M0 0 C1.1034375 -0.00773438 2.206875 -0.01546875 3.34375 -0.0234375 C6.89875017 0.42533727 8.6895337 1.17090143 11.5 3.375 C14.40996971 7.32050317 14.86339193 10.10816032 14.82128906 14.96606445 C14.81848938 16.28125565 14.8156897 17.59644684 14.81280518 18.95149231 C14.80476112 19.649694 14.79671707 20.3478957 14.78842926 21.06725502 C14.76532256 23.26707446 14.76432208 25.4658934 14.76971436 27.66581726 C14.78235157 33.91768402 14.76552448 40.16901785 14.70947266 46.4206543 C14.67667679 50.25232193 14.67813736 54.08275625 14.70049286 57.91448021 C14.70223242 59.3676499 14.69109364 60.82089829 14.66638947 62.27385902 C14.38590453 71.87977795 14.38590453 71.87977795 18.92871094 80.04760742 C19.85873932 80.87647713 19.85873932 80.87647713 20.80755615 81.72209167 C24.64052993 85.46552711 25.60787269 91.18336991 25.9375 96.375 C25.61635968 103.70283819 21.63199258 110.3570517 16.5 115.375 C9.79815552 120.28170757 3.21140561 122.13944967 -5.0390625 121.03515625 C-12.73793336 119.21173947 -18.52185634 114.76595575 -22.94921875 108.23828125 C-26.25298153 101.78145364 -26.78476429 94.81327662 -24.76953125 87.8515625 C-22.80917362 83.03468376 -20.41755262 79.76315362 -16.5 76.375 C-14.67173984 74.54673984 -15.35587977 71.64525891 -15.34228516 69.19042969 C-15.33720444 68.5448259 -15.33212372 67.89922211 -15.32688904 67.23405457 C-15.31616374 65.82737346 -15.30755208 64.42067506 -15.30076981 63.01396942 C-15.28900559 60.78609741 -15.26955768 58.55842144 -15.24765015 56.33062744 C-15.18596335 49.99473622 -15.13204446 43.65886215 -15.09863281 37.32275391 C-15.07766124 33.45053202 -15.0423328 29.57866246 -14.99787521 25.70664215 C-14.98372822 24.23154099 -14.9749957 22.75637743 -14.97182083 21.28121185 C-14.96689987 19.21281744 -14.94371188 17.14535315 -14.91650391 15.07714844 C-14.90841705 13.9010199 -14.9003302 12.72489136 -14.89199829 11.51312256 C-14.32899582 7.00603466 -12.77361274 4.37382643 -9.21875 1.5859375 C-5.9624872 0.13559056 -3.55653804 -0.024929 0 0 Z " fill="#424356" transform="translate(219.5,6.625)"/>
<path d="M0 0 C-1.96715805 1.96715805 -3.32968098 2.72616213 -5.8125 3.875 C-14.19233882 8.0422712 -18.51795517 13.97144414 -22.06332397 22.58267212 C-23.24646704 26.89919958 -23.30762432 30.85541587 -23.31884766 35.31005859 C-23.32889328 36.22777039 -23.3389389 37.14548218 -23.34928894 38.09100342 C-23.38006364 41.11014202 -23.39714026 44.12919216 -23.4140625 47.1484375 C-23.43277873 49.24737303 -23.45235248 51.34630107 -23.4727478 53.44522095 C-23.52402682 58.95904115 -23.56367527 64.47288574 -23.60089111 69.98681641 C-23.64095721 75.61757417 -23.69203769 81.24823087 -23.7421875 86.87890625 C-23.83889681 97.91920682 -23.92229928 108.95954926 -24 120 C-30.93 120 -37.86 120 -45 120 C-45.09054956 107.78625722 -45.16385939 95.57273921 -45.20724869 83.35873604 C-45.22807863 77.68662112 -45.25631241 72.01474878 -45.30175781 66.34277344 C-45.34537924 60.8638459 -45.36917163 55.38515095 -45.37950897 49.90606308 C-45.38687112 47.82097592 -45.40124745 45.73590076 -45.42292023 43.65091324 C-45.45217074 40.71898639 -45.45594697 37.78800747 -45.45410156 34.85595703 C-45.46848267 34.00358963 -45.48286377 33.15122223 -45.49768066 32.27302551 C-45.42917939 22.14368227 -41.46259475 14.36345934 -34.44140625 7.20703125 C-24.29131442 -1.96865176 -12.98290378 -0.55358747 0 0 Z " fill="#D63423" transform="translate(45,52)"/>
<path d="M0 0 C3.03336533 0.90181132 4.67575339 1.58337396 6.64271545 4.11073303 C8.30581429 7.65099035 8.42895357 10.70963512 8.40405273 14.54077148 C8.41091599 15.28288879 8.41777924 16.0250061 8.42485046 16.78961182 C8.44309569 19.23363583 8.43928434 21.67701649 8.43359375 24.12109375 C8.43815674 25.82593494 8.44346267 27.53077428 8.44947815 29.23561096 C8.45840482 32.80566895 8.45599134 36.37550319 8.44604492 39.94555664 C8.43455719 44.51320025 8.45476557 49.08007054 8.48396206 53.64761257 C8.5023374 57.16759623 8.50202895 60.68739503 8.49632454 64.20741463 C8.49617148 65.89107409 8.50220318 67.5747462 8.51461601 69.25835991 C8.52954959 71.61600663 8.51883308 73.97223077 8.50170898 76.32983398 C8.51621094 77.36570396 8.51621094 77.36570396 8.53100586 78.42250061 C8.45602912 83.36989027 7.087344 86.18477958 4 90 C1.75 91.375 1.75 91.375 0 92 C-4.54952155 87.8096512 -6.76702943 84.90293344 -7.26742554 78.66773987 C-7.27504913 77.400103 -7.28267273 76.13246613 -7.29052734 74.82641602 C-7.29724457 74.12331299 -7.30396179 73.42020996 -7.31088257 72.69580078 C-7.32981195 70.3817632 -7.33378391 68.06801634 -7.3359375 65.75390625 C-7.34236809 64.13874697 -7.34909665 62.52358886 -7.35610962 60.90843201 C-7.36806908 57.52673644 -7.37179173 54.14514295 -7.37060547 50.76342773 C-7.37040216 46.43794186 -7.39772249 42.11311208 -7.43214989 37.78778172 C-7.45442427 34.45310988 -7.45844288 31.11859595 -7.45738602 27.78385735 C-7.45974046 26.18950066 -7.46855525 24.59513952 -7.48405075 23.0008564 C-7.50372629 20.76776691 -7.49786848 18.53609252 -7.48583984 16.30297852 C-7.48868988 15.03454605 -7.49153992 13.76611359 -7.49447632 12.45924377 C-6.7400213 7.18124822 -3.90820008 3.51738007 0 0 Z " fill="#57595F" transform="translate(354,8)"/>
<path d="M0 0 C3.03336533 0.90181132 4.67575339 1.58337396 6.64271545 4.11073303 C8.30581429 7.65099035 8.42895357 10.70963512 8.40405273 14.54077148 C8.41091599 15.28288879 8.41777924 16.0250061 8.42485046 16.78961182 C8.44309569 19.23363583 8.43928434 21.67701649 8.43359375 24.12109375 C8.43815674 25.82593494 8.44346267 27.53077428 8.44947815 29.23561096 C8.45840482 32.80566895 8.45599134 36.37550319 8.44604492 39.94555664 C8.43455719 44.51320025 8.45476557 49.08007054 8.48396206 53.64761257 C8.5023374 57.16759623 8.50202895 60.68739503 8.49632454 64.20741463 C8.49617148 65.89107409 8.50220318 67.5747462 8.51461601 69.25835991 C8.52954959 71.61600663 8.51883308 73.97223077 8.50170898 76.32983398 C8.51621094 77.36570396 8.51621094 77.36570396 8.53100586 78.42250061 C8.45602912 83.36989027 7.087344 86.18477958 4 90 C1.75 91.375 1.75 91.375 0 92 C-4.3773858 87.73485486 -6.09586603 86.02905391 -6.19107056 79.87893677 C-6.19981705 78.81218216 -6.19981705 78.81218216 -6.20874023 77.72387695 C-6.21852402 76.97405045 -6.2283078 76.22422394 -6.23838806 75.45167542 C-6.26836208 72.96389544 -6.28973594 70.47616945 -6.30859375 67.98828125 C-6.31516558 67.13831259 -6.3217374 66.28834393 -6.32850838 65.41261864 C-6.3611149 60.91124511 -6.38555945 56.40989534 -6.4050293 51.90844727 C-6.42282562 48.18641589 -6.45761601 44.46514454 -6.50756836 40.7434082 C-6.56783962 36.24765265 -6.59851482 31.75260052 -6.60820198 27.25646019 C-6.61674835 25.5456442 -6.63554653 23.83484658 -6.6649456 22.12426186 C-6.9100504 7.04778203 -6.9100504 7.04778203 -2.96118164 2.39526367 C-1.9839917 1.60482666 -1.00680176 0.81438965 0 0 Z " fill="#57595F" transform="translate(226,8)"/>
<path d="M0 0 C3.02935476 0.90061898 4.67488916 1.5831473 6.64172363 4.10499573 C8.31506157 7.67151621 8.43603592 10.77284004 8.41992188 14.63256836 C8.42839142 15.38443924 8.43686096 16.13631012 8.44558716 16.91096497 C8.46891699 19.38743167 8.46998035 21.86327564 8.46875 24.33984375 C8.47585381 26.06710558 8.48355313 27.79436505 8.49182129 29.5216217 C8.50525669 33.13874881 8.50683903 36.75565768 8.50097656 40.37280273 C8.49507999 45.00110609 8.52567395 49.62836063 8.56609344 54.25646114 C8.59198079 57.82277538 8.59484697 61.38883738 8.59120178 64.95523262 C8.59289194 66.66123657 8.60252449 68.36725229 8.62034607 70.07316399 C8.64255885 72.46216316 8.6328248 74.8490433 8.61523438 77.23803711 C8.63512924 78.2879332 8.63512924 78.2879332 8.65542603 79.35903931 C8.56031382 84.93677637 6.85217872 87.25204276 3 91 C1.515 91.495 1.515 91.495 0 92 C-4.3773858 87.73485486 -6.09586603 86.02905391 -6.19107056 79.87893677 C-6.19981705 78.81218216 -6.19981705 78.81218216 -6.20874023 77.72387695 C-6.21852402 76.97405045 -6.2283078 76.22422394 -6.23838806 75.45167542 C-6.26836208 72.96389544 -6.28973594 70.47616945 -6.30859375 67.98828125 C-6.31516558 67.13831259 -6.3217374 66.28834393 -6.32850838 65.41261864 C-6.3611149 60.91124511 -6.38555945 56.40989534 -6.4050293 51.90844727 C-6.42282562 48.18641589 -6.45761601 44.46514454 -6.50756836 40.7434082 C-6.56783962 36.24765265 -6.59851482 31.75260052 -6.60820198 27.25646019 C-6.61674835 25.5456442 -6.63554653 23.83484658 -6.6649456 22.12426186 C-6.9100504 7.04778203 -6.9100504 7.04778203 -2.96118164 2.39526367 C-1.9839917 1.60482666 -1.00680176 0.81438965 0 0 Z " fill="#57595F" transform="translate(98,8)"/>
<path d="M0 0 C0.07347656 1.10408203 0.07347656 1.10408203 0.1484375 2.23046875 C0.22320312 3.20628906 0.29796875 4.18210937 0.375 5.1875 C0.44460938 6.15042969 0.51421875 7.11335938 0.5859375 8.10546875 C1.00795908 11.05563849 1.66299528 13.34006429 3 16 C5.39529669 17.32481546 5.39529669 17.32481546 8 18 C8.99 18.33 9.98 18.66 11 19 C11.14695312 19.96099609 11.14695312 19.96099609 11.296875 20.94140625 C12.82032054 29.7537507 15.3883201 35.2011278 22.609375 40.73828125 C23.29773438 41.36283203 23.29773438 41.36283203 24 42 C24 42.66 24 43.32 24 44 C17.23079494 46.70768203 11.71805661 46.83487434 4.9375 44.4375 C-2.4496464 41.19214843 -7.3759466 36.04224152 -10.33984375 28.5234375 C-12.00593778 22.1548177 -12.10898802 15.57545098 -9.25 9.5625 C-3.63203125 0 -3.63203125 0 0 0 Z " fill="#323242" transform="translate(333,82)"/>
<path d="M0 0 C0.33 0 0.66 0 1 0 C1.07347656 1.10408203 1.07347656 1.10408203 1.1484375 2.23046875 C1.22320312 3.20628906 1.29796875 4.18210937 1.375 5.1875 C1.44460937 6.15042969 1.51421875 7.11335938 1.5859375 8.10546875 C2.00795908 11.05563849 2.66299528 13.34006429 4 16 C6.39529669 17.32481546 6.39529669 17.32481546 9 18 C9.99 18.33 10.98 18.66 12 19 C12.58984375 20.78515625 12.58984375 20.78515625 12.9375 23.0625 C14.47845314 30.89153614 17.18767863 35.94367426 23.609375 40.7734375 C24.06828125 41.17820313 24.5271875 41.58296875 25 42 C25 42.66 25 43.32 25 44 C19.20086524 46.89956738 13.58702203 46.63766822 7.5 44.9375 C0.8244049 42.4701816 -4.19410361 38.08512317 -7.4375 31.75 C-10.25730811 25.42756029 -11.24195113 19.28608134 -9.28125 12.51953125 C-7.27682295 7.69435806 -4.94045328 4.4079596 -1 1 C-0.67 0.67 -0.34 0.34 0 0 Z " fill="#323242" transform="translate(76,82)"/>
<path d="M0 0 C0.33 0 0.66 0 1 0 C1.07347656 1.10408203 1.07347656 1.10408203 1.1484375 2.23046875 C1.22320312 3.20628906 1.29796875 4.18210937 1.375 5.1875 C1.44460937 6.15042969 1.51421875 7.11335938 1.5859375 8.10546875 C2.00795908 11.05563849 2.66299528 13.34006429 4 16 C6.39529669 17.32481546 6.39529669 17.32481546 9 18 C9.99 18.33 10.98 18.66 12 19 C12.80859375 21.51171875 12.80859375 21.51171875 13.4375 24.6875 C14.94331955 31.23859122 17.00785204 35.46994037 22.25 39.75 C23.61125 40.86375 23.61125 40.86375 25 42 C25 42.66 25 43.32 25 44 C18.72224914 46.88437202 12.24697132 46.29480833 5.7578125 44.31640625 C-1.02508515 41.34723899 -5.27090527 35.95619421 -8.9375 29.6875 C-11.14887595 22.01272464 -10.81511015 15.1123445 -7.21875 7.9453125 C-5.46021633 5.13842221 -3.50297638 3.16473633 -1 1 C-0.67 0.67 -0.34 0.34 0 0 Z " fill="#323242" transform="translate(204,82)"/>
<path d="M0 0 C6.93 0 13.86 0 21 0 C21 9.57 21 19.14 21 29 C14.07 29 7.14 29 0 29 C0 19.43 0 9.86 0 0 Z " fill="#DD6464" transform="translate(0,172)"/>
<path d="M0 0 C0.66914429 -0.00478363 1.33828857 -0.00956726 2.02770996 -0.01449585 C3.43630334 -0.01788406 4.84497652 -0.00875672 6.25341797 0.01220703 C8.40120886 0.03899961 10.54377653 0.01243484 12.69140625 -0.01953125 C14.06511562 -0.01622695 15.43882176 -0.00982026 16.8125 0 C18.05322266 0.00563965 19.29394531 0.0112793 20.57226562 0.01708984 C24.7852475 0.83463539 26.27877618 2.335561 28.90625 5.6640625 C29.46875 8.7265625 29.46875 8.7265625 28.90625 11.6640625 C26.67418569 14.51186869 25.35632001 15.51403916 21.90625 16.6640625 C17.79501683 16.93530638 13.68393728 16.97720067 9.56445312 17.01416016 C8.21239001 17.03072001 6.86041446 17.05801174 5.50878906 17.09619141 C3.55066461 17.15114121 1.5916272 17.1697285 -0.3671875 17.1875 C-1.53685059 17.20731934 -2.70651367 17.22713867 -3.91162109 17.24755859 C-8.04512496 16.48961213 -9.50776796 14.90443687 -12.09375 11.6640625 C-12.71875 8.6640625 -12.71875 8.6640625 -12.09375 5.6640625 C-8.36399786 0.95494628 -5.94045029 0.02700205 0 0 Z " fill="#5D5F65" transform="translate(360.09375,247.3359375)"/>
<path d="M0 0 C0.66914429 -0.00478363 1.33828857 -0.00956726 2.02770996 -0.01449585 C3.43630334 -0.01788406 4.84497652 -0.00875672 6.25341797 0.01220703 C8.40120886 0.03899961 10.54377653 0.01243484 12.69140625 -0.01953125 C14.06511562 -0.01622695 15.43882176 -0.00982026 16.8125 0 C18.05322266 0.00563965 19.29394531 0.0112793 20.57226562 0.01708984 C24.7852475 0.83463539 26.27877618 2.335561 28.90625 5.6640625 C29.46875 8.7265625 29.46875 8.7265625 28.90625 11.6640625 C26.67418569 14.51186869 25.35632001 15.51403916 21.90625 16.6640625 C17.45213002 16.92602286 12.9922393 16.89551369 8.53125 16.9140625 C7.29890625 16.9346875 6.0665625 16.9553125 4.796875 16.9765625 C3.01410156 16.98429687 3.01410156 16.98429687 1.1953125 16.9921875 C-0.43349854 17.00620605 -0.43349854 17.00620605 -2.09521484 17.02050781 C-6.450709 16.50275651 -9.03588588 14.72192662 -12.09375 11.6640625 C-12.53125 8.8515625 -12.53125 8.8515625 -12.09375 5.6640625 C-8.38863656 0.93891431 -5.92927677 0.02695126 0 0 Z " fill="#5D5F64" transform="translate(289.09375,434.3359375)"/>
<path d="M0 0 C0.66914429 -0.00478363 1.33828857 -0.00956726 2.02770996 -0.01449585 C3.43630334 -0.01788406 4.84497652 -0.00875672 6.25341797 0.01220703 C8.40120886 0.03899961 10.54377653 0.01243484 12.69140625 -0.01953125 C14.06511562 -0.01622695 15.43882176 -0.00982026 16.8125 0 C18.05322266 0.00563965 19.29394531 0.0112793 20.57226562 0.01708984 C24.7852475 0.83463539 26.27877618 2.335561 28.90625 5.6640625 C29.46875 8.7265625 29.46875 8.7265625 28.90625 11.6640625 C26.67418569 14.51186869 25.35632001 15.51403916 21.90625 16.6640625 C17.30709861 16.97910018 12.70238992 16.9881383 8.09375 17.0390625 C6.18625977 17.09513672 6.18625977 17.09513672 4.24023438 17.15234375 C-6.24634998 17.25122197 -6.24634998 17.25122197 -9.9375 14.328125 C-12.09375 11.6640625 -12.09375 11.6640625 -12.78125 8.6640625 C-11.19319162 1.7343532 -6.58527065 0.02993305 0 0 Z " fill="#5D5F65" transform="translate(289.09375,247.3359375)"/>
<path d="M0 0 C0.67055923 -0.00619858 1.34111847 -0.01239716 2.03199768 -0.01878357 C3.44652865 -0.02586903 4.86114324 -0.02272972 6.27563477 -0.01000977 C8.43207476 0.00384629 10.58416159 -0.03020533 12.74023438 -0.06835938 C14.11849064 -0.06931082 15.4967523 -0.0674504 16.875 -0.0625 C18.1220874 -0.0632251 19.3691748 -0.0639502 20.65405273 -0.06469727 C24.88631393 0.73264952 26.36578924 2.2293036 29.00390625 5.56640625 C29.62890625 8.56640625 29.62890625 8.56640625 29.00390625 11.56640625 C26.40121079 14.83393376 24.91408406 16.38923685 20.76171875 17.19750977 C19.56289062 17.19678467 18.3640625 17.19605957 17.12890625 17.1953125 C15.8140625 17.19724609 14.49921875 17.19917969 13.14453125 17.20117188 C12.12456055 17.18244019 12.12456055 17.18244019 11.08398438 17.16333008 C9.00903618 17.12899115 6.93834716 17.14268636 4.86328125 17.16210938 C-6.44027187 17.07899501 -6.44027187 17.07899501 -10.99609375 12.56640625 C-11.625 10.56640625 -11.625 10.56640625 -11.55859375 8.56640625 C-11.55988281 7.90640625 -11.56117188 7.24640625 -11.5625 6.56640625 C-9.87765387 0.61715647 -5.53076711 0.04828022 0 0 Z " fill="#5D5E64" transform="translate(217.99609375,434.43359375)"/>
<path d="M0 0 C1.26972656 -0.00064453 2.53945312 -0.00128906 3.84765625 -0.00195312 C5.16636719 0.01802734 6.48507813 0.03800781 7.84375 0.05859375 C9.82181641 0.04795898 9.82181641 0.04795898 11.83984375 0.03710938 C23.96477788 0.11712163 23.96477788 0.11712163 28.34375 4.49609375 C28.81499825 11.80044158 28.81499825 11.80044158 27.03125 14.43359375 C21.97489426 17.61722514 15.75805217 16.79454842 10.00195312 16.84619141 C8.64989001 16.86275126 7.29791446 16.89004299 5.94628906 16.92822266 C3.98816461 16.98317246 2.0291272 17.00175975 0.0703125 17.01953125 C-1.09935059 17.03935059 -2.26901367 17.05916992 -3.47412109 17.07958984 C-7.62011653 16.31935284 -9.08093662 14.76583364 -11.65625 11.49609375 C-12.28125 7.93359375 -12.28125 7.93359375 -11.65625 4.49609375 C-7.91857392 0.6513936 -5.28104724 -0.0084585 0 0 Z " fill="#5C5E64" transform="translate(76.65625,434.50390625)"/>
<path d="M0 0 C0.67055923 -0.00619858 1.34111847 -0.01239716 2.03199768 -0.01878357 C3.44652865 -0.02586903 4.86114324 -0.02272972 6.27563477 -0.01000977 C8.43207476 0.00384629 10.58416159 -0.03020533 12.74023438 -0.06835938 C14.11849064 -0.06931082 15.4967523 -0.0674504 16.875 -0.0625 C18.1220874 -0.0632251 19.3691748 -0.0639502 20.65405273 -0.06469727 C24.88631393 0.73264952 26.36578924 2.2293036 29.00390625 5.56640625 C29.62890625 8.56640625 29.62890625 8.56640625 29.00390625 11.56640625 C26.40121079 14.83393376 24.91408406 16.38923685 20.76171875 17.19750977 C19.56289062 17.19678467 18.3640625 17.19605957 17.12890625 17.1953125 C15.8140625 17.19724609 14.49921875 17.19917969 13.14453125 17.20117188 C12.12456055 17.18244019 12.12456055 17.18244019 11.08398438 17.16333008 C9.00903618 17.12899115 6.93834716 17.14268636 4.86328125 17.16210938 C-6.44027187 17.07899501 -6.44027187 17.07899501 -10.99609375 12.56640625 C-11.625 10.56640625 -11.625 10.56640625 -11.55859375 8.56640625 C-11.55988281 7.90640625 -11.56117188 7.24640625 -11.5625 6.56640625 C-9.87765387 0.61715647 -5.53076711 0.04828022 0 0 Z " fill="#5D5F64" transform="translate(217.99609375,247.43359375)"/>
<path d="M0 0 C1.31806641 -0.00064453 2.63613281 -0.00128906 3.99414062 -0.00195312 C5.02027466 0.01363647 5.02027466 0.01363647 6.06713867 0.02954102 C8.15039019 0.05845819 10.23108778 0.05015348 12.31445312 0.03710938 C24.84323915 0.11667665 24.84323915 0.11667665 29.22265625 4.49609375 C29.81254389 10.74890274 29.81254389 10.74890274 27.34765625 13.87109375 C22.40125573 17.65363533 16.984601 16.75566671 10.95629883 16.79125977 C8.92785596 16.80844381 6.90105631 16.8523275 4.87304688 16.89648438 C3.58978516 16.90486328 2.30652344 16.91324219 0.984375 16.921875 C-0.19165283 16.93645752 -1.36768066 16.95104004 -2.5793457 16.96606445 C-6.41180737 16.40285438 -8.05338964 15.19648424 -10.77734375 12.49609375 C-11.40625 10.49609375 -11.40625 10.49609375 -11.33984375 8.49609375 C-11.34113281 7.83609375 -11.34242188 7.17609375 -11.34375 6.49609375 C-9.68382944 0.63485702 -5.46725736 -0.00841398 0 0 Z " fill="#5D5E64" transform="translate(146.77734375,247.50390625)"/>
<path d="M0 0 C1.92005859 -0.0309375 1.92005859 -0.0309375 3.87890625 -0.0625 C5.72935547 -0.07023437 5.72935547 -0.07023437 7.6171875 -0.078125 C8.74495605 -0.0874707 9.87272461 -0.09681641 11.03466797 -0.10644531 C14.772891 0.32472909 17.44515886 1.57015886 20.125 4.25 C20.71488764 10.50280899 20.71488764 10.50280899 18.25 13.625 C13.30359948 17.40754158 7.88694475 16.50957296 1.85864258 16.54516602 C-0.16980029 16.56235006 -2.19659994 16.60623375 -4.22460938 16.65039062 C-5.50787109 16.65876953 -6.79113281 16.66714844 -8.11328125 16.67578125 C-9.28930908 16.69036377 -10.46533691 16.70494629 -11.67700195 16.7199707 C-15.50985914 16.15670251 -17.1532642 14.95382344 -19.875 12.25 C-20.73417455 9.30506618 -20.2735621 7.38867651 -19.875 4.25 C-15.74394241 -1.84822787 -6.4440164 0.02580187 0 0 Z " fill="#5C5E64" transform="translate(155.875,434.75)"/>
<path d="M0 0 C0.717323 -0.0038269 1.434646 -0.00765381 2.17370605 -0.01159668 C3.68661914 -0.01431227 5.19957945 -0.00697555 6.71240234 0.00976562 C9.02417976 0.03118449 11.33285013 0.00995649 13.64453125 -0.015625 C15.11719434 -0.01298166 16.5898555 -0.00785653 18.0625 0 C18.75114136 -0.00809692 19.43978271 -0.01619385 20.14929199 -0.02453613 C23.50050713 0.04072426 25.26484492 0.32861096 27.96289062 2.38085938 C29.53125 4.53125 29.53125 4.53125 30.09375 7.46875 C29.33203759 11.61585092 27.78471322 12.90215019 24.53125 15.53125 C21.19726562 16.17822266 21.19726562 16.17822266 17.4375 16.1953125 C16.76835571 16.20009613 16.09921143 16.20487976 15.40979004 16.20980835 C14.00119666 16.21319656 12.59252348 16.20406922 11.18408203 16.18310547 C9.03629114 16.15631289 6.89372347 16.18287766 4.74609375 16.21484375 C3.37238438 16.21153945 1.99867824 16.20513276 0.625 16.1953125 C-0.61572266 16.18967285 -1.85644531 16.1840332 -3.13476562 16.17822266 C-7.3477475 15.36067711 -8.84127618 13.8597515 -11.46875 10.53125 C-12.03125 7.46875 -12.03125 7.46875 -11.46875 4.53125 C-8.2777471 0.1560393 -5.0963964 -0.05992253 0 0 Z " fill="#5A5C62" transform="translate(288.46875,310.46875)"/>
<path d="M0 0 C0.66914429 -0.00478363 1.33828857 -0.00956726 2.02770996 -0.01449585 C3.43630334 -0.01788406 4.84497652 -0.00875672 6.25341797 0.01220703 C8.40120886 0.03899961 10.54377653 0.01243484 12.69140625 -0.01953125 C14.06511562 -0.01622695 15.43882176 -0.00982026 16.8125 0 C18.05322266 0.00563965 19.29394531 0.0112793 20.57226562 0.01708984 C24.7957227 0.83666814 26.31703705 2.28370115 28.90625 5.6640625 C28.90625 9.10183085 28.70775809 11.43915639 26.80444336 14.34790039 C23.90874147 16.35571118 20.93680002 16.11204939 17.53515625 16.09765625 C16.8164183 16.1028981 16.09768036 16.10813995 15.35716248 16.11354065 C13.83830048 16.11995856 12.31938877 16.11862675 10.80053711 16.11010742 C8.48005314 16.10160392 6.16203714 16.1303455 3.84179688 16.16210938 C2.36458407 16.16372174 0.88736692 16.16314319 -0.58984375 16.16015625 C-1.28162216 16.17139023 -1.97340057 16.18262421 -2.68614197 16.19419861 C-6.04927054 16.14571334 -7.81738967 15.87383465 -10.52758789 13.81665039 C-12.09375 11.6640625 -12.09375 11.6640625 -12.65625 8.7265625 C-11.36578039 1.7006724 -6.53576161 0.02970801 0 0 Z " fill="#595B61" transform="translate(289.09375,372.3359375)"/>
<path d="M0 0 C0.69275528 -0.00619858 1.38551056 -0.01239716 2.09925842 -0.01878357 C3.56086831 -0.02587032 5.02255912 -0.02272748 6.48413086 -0.01000977 C8.71294805 0.0038459 10.93755373 -0.030205 13.16601562 -0.06835938 C14.58984477 -0.0693108 16.01367914 -0.06745046 17.4375 -0.0625 C18.72648193 -0.0632251 20.01546387 -0.0639502 21.34350586 -0.06469727 C25.65333045 0.72560539 27.15917453 2.11516079 29.78515625 5.56640625 C29.84903621 9.27144378 29.79537826 11.51337822 27.171875 14.24804688 C22.36017705 16.90589967 16.41887029 16.08395282 11.03125 16.06738281 C8.7916664 16.06640908 6.55549649 16.10807351 4.31640625 16.15234375 C2.88933004 16.1575503 1.46224196 16.16023895 0.03515625 16.16015625 C-1.2590625 16.16724609 -2.55328125 16.17433594 -3.88671875 16.18164062 C-7.21484375 15.56640625 -7.21484375 15.56640625 -9.63671875 13.22070312 C-11.56601778 9.97575588 -11.8470602 8.28067788 -11.21484375 4.56640625 C-7.98903191 0.18143509 -5.27882319 0.04458187 0 0 Z " fill="#595B61" transform="translate(359.21484375,372.43359375)"/>
<path d="M0 0 C0.71873795 -0.00524185 1.43747589 -0.0104837 2.17799377 -0.0158844 C3.69685577 -0.02230231 5.21576748 -0.0209705 6.73461914 -0.01245117 C9.05510311 -0.00394767 11.37311911 -0.03268925 13.69335938 -0.06445312 C15.17057218 -0.06606549 16.64778933 -0.06548694 18.125 -0.0625 C18.81677841 -0.07373398 19.50855682 -0.08496796 20.22129822 -0.09654236 C23.58442679 -0.04805709 25.35254592 0.2238216 28.06274414 2.28100586 C29.62890625 4.43359375 29.62890625 4.43359375 30.19140625 7.37109375 C29.42969384 11.51819467 27.88236947 12.80449394 24.62890625 15.43359375 C21.29492188 16.08056641 21.29492188 16.08056641 17.53515625 16.09765625 C16.86601196 16.10243988 16.19686768 16.10722351 15.50744629 16.1121521 C14.09885291 16.11554031 12.69017973 16.10641297 11.28173828 16.08544922 C9.13394739 16.05865664 6.99137972 16.08522141 4.84375 16.1171875 C3.47004063 16.1138832 2.09633449 16.10747651 0.72265625 16.09765625 C-0.51806641 16.0920166 -1.75878906 16.08637695 -3.03710938 16.08056641 C-7.26056645 15.26098811 -8.7818808 13.8139551 -11.37109375 10.43359375 C-11.37109375 6.9958254 -11.17260184 4.65849986 -9.26928711 1.74975586 C-6.37358522 -0.25805493 -3.40164377 -0.01439314 0 0 Z " fill="#595B61" transform="translate(217.37109375,310.56640625)"/>
<path d="M0 0 C0.717323 -0.00619858 1.434646 -0.01239716 2.17370605 -0.01878357 C3.68659104 -0.02587072 5.1995542 -0.02272683 6.71240234 -0.01000977 C9.02457326 0.00386618 11.33270158 -0.03023067 13.64453125 -0.06835938 C15.11718849 -0.06931057 16.58985078 -0.0674517 18.0625 -0.0625 C19.09546204 -0.08238731 19.09546204 -0.08238731 20.14929199 -0.10267639 C23.83859282 -0.03126261 25.28740946 0.33431852 27.99804688 2.91430664 C29.53125 5.56640625 29.53125 5.56640625 29.53125 8.62890625 C28.36296773 12.06073541 27.38192896 13.34348038 24.53125 15.56640625 C21.31079102 16.09985352 21.31079102 16.09985352 17.53515625 16.1328125 C16.86459702 16.13901108 16.19403778 16.14520966 15.50315857 16.15159607 C14.0886276 16.15868153 12.67401301 16.15554222 11.25952148 16.14282227 C9.10308149 16.12896621 6.95099466 16.16301783 4.79492188 16.20117188 C3.41666561 16.20212332 2.03840395 16.2002629 0.66015625 16.1953125 C-0.58693115 16.1960376 -1.83401855 16.1967627 -3.11889648 16.19750977 C-7.35221654 15.3999635 -8.83492994 13.90922519 -11.46875 10.56640625 C-12.03125 7.50390625 -12.03125 7.50390625 -11.46875 4.56640625 C-8.28075559 0.19978689 -5.09201859 -0.03667475 0 0 Z " fill="#595B61" transform="translate(359.46875,310.43359375)"/>
<path d="M0 0 C2.15583926 0.00850573 4.30902225 -0.02025524 6.46459961 -0.05200195 C7.84285403 -0.05361439 9.22111311 -0.05303561 10.59936523 -0.05004883 C11.84645264 -0.05190186 13.09354004 -0.05375488 14.37841797 -0.05566406 C18.32388893 0.5352508 19.99106261 1.58027454 22.72827148 4.44604492 C23.34893654 8.3079608 23.47119056 10.4082744 21.16210938 13.63378906 C17.90975811 16.05551676 15.12427565 16.00547038 11.22436523 15.94213867 C10.14482323 15.94432152 10.14482323 15.94432152 9.04347229 15.94654846 C7.52633605 15.94489253 6.00918249 15.93336518 4.4921875 15.91259766 C2.16976707 15.88359482 -0.15037604 15.89200212 -2.47290039 15.9050293 C-3.94882294 15.89879282 -5.42473829 15.89040258 -6.90063477 15.87963867 C-7.94133873 15.88404213 -7.94133873 15.88404213 -9.00306702 15.88853455 C-11.8948585 15.83189007 -13.81930473 15.77182432 -16.20532227 14.05371094 C-17.61159879 11.93367181 -17.70500813 10.47827861 -17.70922852 7.94604492 C-17.72856445 7.17260742 -17.74790039 6.39916992 -17.76782227 5.60229492 C-17.27172852 3.44604492 -17.27172852 3.44604492 -15.67797852 1.83837891 C-11.01090321 -0.86214164 -5.27202783 -0.0318062 0 0 Z " fill="#595B61" transform="translate(224.271728515625,372.553955078125)"/>
<path d="M0 0 C1.04269043 -0.00574036 1.04269043 -0.00574036 2.10644531 -0.01159668 C3.57228041 -0.0143118 5.03816428 -0.00697835 6.50390625 0.00976562 C8.74328975 0.03118581 10.97946587 0.00995557 13.21875 -0.015625 C14.64584039 -0.01298165 16.07292879 -0.0078565 17.5 0 C19.44132812 0.00676758 19.44132812 0.00676758 21.421875 0.01367188 C24.75 0.53125 24.75 0.53125 27.171875 2.34570312 C29.47970045 5.54181287 29.29876203 7.68991579 28.75 11.53125 C27.171875 13.71679688 27.171875 13.71679688 24.75 15.53125 C21.421875 16.04882812 21.421875 16.04882812 17.5 16.0625 C16.80487305 16.0663269 16.10974609 16.07015381 15.39355469 16.07409668 C13.92771959 16.0768118 12.46183572 16.06947835 10.99609375 16.05273438 C8.75671025 16.03131419 6.52053413 16.05254443 4.28125 16.078125 C2.85415961 16.07548165 1.42707121 16.0703565 0 16.0625 C-1.29421875 16.05798828 -2.5884375 16.05347656 -3.921875 16.04882812 C-7.25 15.53125 -7.25 15.53125 -9.671875 13.71679688 C-11.97970045 10.52068713 -11.79876203 8.37258421 -11.25 4.53125 C-8.05320194 0.1040012 -5.27980464 0.01840569 0 0 Z " fill="#595B61" transform="translate(76.25,310.46875)"/>
<path d="M0 0 C1.04269043 -0.00574036 1.04269043 -0.00574036 2.10644531 -0.01159668 C3.57228041 -0.0143118 5.03816428 -0.00697835 6.50390625 0.00976562 C8.74328975 0.03118581 10.97946587 0.00995557 13.21875 -0.015625 C14.64584039 -0.01298165 16.07292879 -0.0078565 17.5 0 C19.44132812 0.00676758 19.44132812 0.00676758 21.421875 0.01367188 C24.75 0.53125 24.75 0.53125 27.171875 2.34570312 C29.47970045 5.54181287 29.29876203 7.68991579 28.75 11.53125 C27.171875 13.71679688 27.171875 13.71679688 24.75 15.53125 C21.421875 16.04882812 21.421875 16.04882812 17.5 16.0625 C16.80487305 16.0663269 16.10974609 16.07015381 15.39355469 16.07409668 C13.92771959 16.0768118 12.46183572 16.06947835 10.99609375 16.05273438 C8.75671025 16.03131419 6.52053413 16.05254443 4.28125 16.078125 C2.85415961 16.07548165 1.42707121 16.0703565 0 16.0625 C-1.29421875 16.05798828 -2.5884375 16.05347656 -3.921875 16.04882812 C-7.25 15.53125 -7.25 15.53125 -9.671875 13.71679688 C-11.97970045 10.52068713 -11.79876203 8.37258421 -11.25 4.53125 C-8.05320194 0.1040012 -5.27980464 0.01840569 0 0 Z " fill="#595B61" transform="translate(76.25,372.46875)"/>
<path d="M0 0 C1.04269043 -0.00786278 1.04269043 -0.00786278 2.10644531 -0.0158844 C3.57225207 -0.02229154 5.03811033 -0.02098447 6.50390625 -0.01245117 C8.74311987 -0.00393242 10.97978772 -0.03272793 13.21875 -0.06445312 C14.64583257 -0.06606516 16.07291965 -0.06548756 17.5 -0.0625 C18.79421875 -0.06435303 20.0884375 -0.06620605 21.421875 -0.06811523 C24.75 0.43359375 24.75 0.43359375 27.17578125 2.24194336 C29.44978747 5.40784811 29.23333328 7.63597514 28.75 11.43359375 C26.91884793 14.04952528 25.84031634 14.4034883 22.75 15.43359375 C18.478112 15.68305962 14.20421928 15.70429011 9.92602539 15.72875977 C8.51869673 15.74030191 7.11141261 15.76078939 5.7043457 15.7902832 C3.66848076 15.83295032 1.63391267 15.84912331 -0.40234375 15.859375 C-2.2275354 15.88124878 -2.2275354 15.88124878 -4.08959961 15.90356445 C-7.83419556 15.34672033 -8.98221662 14.40119956 -11.25 11.43359375 C-12.02244967 8.47442993 -11.64780142 6.56627997 -11.25 3.43359375 C-7.96201141 -0.14789259 -4.67326376 0.03520075 0 0 Z " fill="#595B61" transform="translate(147.25,310.56640625)"/>
<path d="M0 0 C0.67055923 -0.0038269 1.34111847 -0.00765381 2.03199768 -0.01159668 C3.44655869 -0.01431163 4.86117026 -0.00697932 6.27563477 0.00976562 C8.43165074 0.03115323 10.58432269 0.00997322 12.74023438 -0.015625 C14.11849689 -0.01298099 15.49675733 -0.00785447 16.875 0 C18.1220874 0.00451172 19.3691748 0.00902344 20.65405273 0.01367188 C24.59091574 0.62194748 26.2689181 1.67068055 29.00390625 4.53125 C29.56640625 8.03125 29.56640625 8.03125 29.00390625 11.53125 C27.421875 13.71679688 27.421875 13.71679688 25.00390625 15.53125 C21.67578125 16.04882812 21.67578125 16.04882812 17.75390625 16.0625 C17.0587793 16.0663269 16.36365234 16.07015381 15.64746094 16.07409668 C14.18162584 16.0768118 12.71574197 16.06947835 11.25 16.05273438 C9.0106165 16.03131419 6.77444038 16.05254443 4.53515625 16.078125 C3.10806586 16.07548165 1.68097746 16.0703565 0.25390625 16.0625 C-1.0403125 16.05798828 -2.33453125 16.05347656 -3.66796875 16.04882812 C-6.99609375 15.53125 -6.99609375 15.53125 -9.41796875 13.71679688 C-11.7257942 10.52068713 -11.54485578 8.37258421 -10.99609375 4.53125 C-7.83502773 0.19706973 -5.20317025 0.0188411 0 0 Z " fill="#585A60" transform="translate(146.99609375,372.46875)"/>
<path d="M0 0 C0.66 0.33 1.32 0.66 2 1 C-0.31 3.64 -2.62 6.28 -5 9 C-5.33 8.01 -5.66 7.02 -6 6 C-4 4 -2 2 0 0 Z " fill="#494B58" transform="translate(339,8)"/>
</svg>
