<?xml version="1.0" encoding="UTF-8"?>
<svg version="1.1" xmlns="http://www.w3.org/2000/svg" width="512" height="512">
<path d="M0 0 C1.15108246 -0.01134979 2.30216492 -0.02269958 3.48812866 -0.03439331 C5.38410042 -0.02999741 5.38410042 -0.02999741 7.31837463 -0.0255127 C8.66207079 -0.03285154 10.00576064 -0.04143723 11.34944153 -0.05117798 C15.00029815 -0.07342244 18.65092927 -0.07632323 22.30184436 -0.07443047 C25.34865074 -0.0743109 28.39540911 -0.08286934 31.44220215 -0.09120798 C38.62963718 -0.11045258 45.81695606 -0.11332205 53.00440979 -0.10656738 C60.42145427 -0.09992528 67.83800159 -0.12279486 75.25494522 -0.15988111 C81.62107446 -0.19055913 87.98704362 -0.20194025 94.35324532 -0.1980443 C98.15632821 -0.19597481 101.9590243 -0.20148614 105.76203728 -0.22593689 C109.33847839 -0.24817077 112.91411028 -0.24635556 116.49055481 -0.22600937 C118.42924812 -0.22096363 120.36795627 -0.24064212 122.30654907 -0.26101685 C124.0374025 -0.24420364 124.0374025 -0.24420364 125.80322266 -0.22705078 C126.80592414 -0.22776329 127.80862562 -0.2284758 128.841712 -0.2292099 C132.47950609 0.63554784 133.53447304 2.27136379 135.46510315 5.39440918 C135.83707885 13.31217773 131.51256174 19.74627221 127.84010315 26.51940918 C127.19730679 27.7267766 126.55587137 28.93486953 125.91578674 30.14367676 C124.66647679 32.50167004 123.41218833 34.85673024 122.15455627 37.21032715 C120.07079117 41.1375619 118.05960371 45.09640145 116.09010315 49.08190918 C115.56674377 50.13765137 115.0433844 51.19339355 114.50416565 52.28112793 C114.16127502 52.97851074 113.8183844 53.67589355 113.46510315 54.39440918 C114.39580627 55.13819824 115.3265094 55.8819873 116.28541565 56.64831543 C121.32061164 60.86503306 124.04541655 65.20479102 124.9143219 71.80847168 C125.14749998 79.31841385 124.06543444 83.91381286 120.46510315 90.39440918 C121.53416782 93.62661055 123.30429763 95.34477309 125.90260315 97.45690918 C154.13789529 121.51297035 177.89795163 157.82304576 181.46510315 195.39440918 C182.55366051 216.6840791 178.23950895 236.56045385 164.09791565 253.17565918 C140.04417393 278.58554658 103.39155792 287.46214101 69.46510315 288.39440918 C68.47897034 288.43437012 67.49283752 288.47433105 66.4768219 288.51550293 C31.52052205 289.2862644 -7.17669309 281.79713569 -33.53489685 257.39440918 C-48.32420603 242.98492175 -55.19062447 225.27212957 -55.84739685 204.76940918 C-55.37107615 183.47507212 -48.72322819 163.89427398 -38.53489685 145.39440918 C-38.19619568 144.76969727 -37.85749451 144.14498535 -37.50852966 143.50134277 C-31.6690407 132.84552318 -24.47084529 123.5686079 -16.53489685 114.39440918 C-16.05230408 113.83592285 -15.5697113 113.27743652 -15.07249451 112.70202637 C-8.39103495 105.04399175 -1.12989939 98.12784947 6.46510315 91.39440918 C5.9236969 90.5204248 5.9236969 90.5204248 5.37135315 89.62878418 C1.520428 82.82548308 0.32708584 77.16728209 1.46510315 69.39440918 C3.28328778 63.02006777 7.25018213 59.26165398 12.46510315 55.39440918 C11.00303732 50.54865177 8.99399236 46.26189595 6.6565094 41.80065918 C6.28912155 41.09090942 5.9217337 40.38115967 5.54321289 39.64990234 C4.37541184 37.39593216 3.20168432 35.14511337 2.02760315 32.89440918 C0.85846848 30.64301052 -0.3094563 28.39098717 -1.47729492 26.13891602 C-2.20194269 24.7426186 -2.92758295 23.34683565 -3.65438843 21.95166016 C-4.31236746 20.68791146 -4.9677365 19.42279929 -5.62007141 18.15612793 C-6.49152649 16.47792934 -7.38963413 14.8136508 -8.28904724 13.15026855 C-9.95100171 9.47397187 -9.55314861 7.2492194 -8.53489685 3.39440918 C-6.11726061 0.02947615 -4.00649749 0.01490444 0 0 Z " fill="#8ACC19" transform="translate(192.53489685058594,0.6055908203125)"/>
<path d="M0 0 C5.01275098 3.39477393 8.01404895 7.65822171 9.97265625 13.3359375 C11.51991495 24.98674938 8.13231434 35.1302544 4.6015625 46.05859375 C4.0384444 47.85186258 3.47711704 49.64569459 2.91746521 51.44004822 C1.4440252 56.14772671 -0.05293572 60.84758544 -1.55535889 65.54608154 C-3.0488815 70.23011566 -4.52080634 74.920913 -5.99414062 79.61132812 C-8.27218015 86.85593104 -10.56204593 94.0966747 -12.86083984 101.3347168 C-16.02527515 111.30253402 -19.13292884 121.2872653 -22.21006775 131.28236389 C-30.37102431 157.73377932 -39.67776459 184.08712483 -58.02734375 205.3359375 C-58.96320313 206.47095703 -58.96320313 206.47095703 -59.91796875 207.62890625 C-64.55587419 213.10578239 -69.69648128 217.5368827 -75.31982422 221.97412109 C-78.75865884 224.71673183 -82.13686953 227.53396045 -85.52734375 230.3359375 C-91.16935554 234.98637546 -96.81742782 239.62908949 -102.48046875 244.25390625 C-104.26406968 245.71197266 -106.04510816 247.17317666 -107.82421875 248.63671875 C-108.7575 249.40371094 -109.69078125 250.17070312 -110.65234375 250.9609375 C-111.46960938 251.63382813 -112.286875 252.30671875 -113.12890625 253 C-116.02734375 255.3359375 -116.02734375 255.3359375 -118.24549866 256.63786316 C-121.95805651 259.00277866 -124.58403646 260.7920806 -125.83184814 265.13769531 C-126.09848548 268.57117294 -126.09103779 271.90544122 -125.984375 275.34765625 C-125.98434982 276.59343948 -125.98432465 277.83922272 -125.98429871 279.12275696 C-125.9794049 282.41866417 -125.93819759 285.71123183 -125.87573242 289.00646973 C-125.79299974 293.65610246 -125.76187421 298.30591824 -125.74894714 302.95625305 C-125.73938293 305.4282757 -125.70796503 307.90033009 -125.65254211 310.37174988 C-125.64321152 311.49003677 -125.63388092 312.60832367 -125.62426758 313.76049805 C-125.59687248 315.23440254 -125.59687248 315.23440254 -125.56892395 316.73808289 C-126.02734375 319.3359375 -126.02734375 319.3359375 -127.48881531 321.65106201 C-131.26295233 324.15603728 -134.60692413 323.90314271 -139.046875 323.86938477 C-139.95786957 323.87800034 -140.86886414 323.88661591 -141.8074646 323.89549255 C-144.81854671 323.91819416 -147.82870137 323.9114063 -150.83984375 323.90234375 C-152.93205035 323.90757724 -155.02425458 323.9138527 -157.11645508 323.92112732 C-161.50125227 323.93153911 -165.88572508 323.9269584 -170.27050781 323.91235352 C-175.89332782 323.89515928 -181.5151266 323.91866523 -187.13783264 323.95384312 C-191.45811756 323.97578818 -195.778157 323.97438271 -200.09848022 323.9660778 C-202.17175416 323.9652568 -204.24504585 323.97214848 -206.31826782 323.98684883 C-209.21542423 324.00424239 -212.11073102 323.98979581 -215.0078125 323.96704102 C-215.86611664 323.97873322 -216.72442078 323.99042542 -217.60873413 324.00247192 C-221.55788388 323.93926762 -223.41160108 323.83097463 -226.55871582 321.30079651 C-228.40899517 317.56546145 -228.58914122 314.34657231 -228.54492188 310.26708984 C-228.55193115 309.46782578 -228.55894043 308.66856171 -228.56616211 307.84507751 C-228.58375292 305.20365524 -228.57210028 302.56330822 -228.55859375 299.921875 C-228.56129206 298.06881507 -228.5651773 296.21575653 -228.57019043 294.36270142 C-228.57609005 290.47050554 -228.56752136 286.57867661 -228.54882812 282.68652344 C-228.52626089 277.75245878 -228.53901566 272.81927527 -228.56311798 267.88524437 C-228.57775532 264.04989309 -228.57288541 260.21474126 -228.56260681 256.37938309 C-228.55997696 254.56413286 -228.56307402 252.74886324 -228.57252502 250.93363571 C-228.71179121 216.60948062 -216.59484976 184.24376029 -194.02734375 158.3359375 C-193.49882812 157.72234375 -192.9703125 157.10875 -192.42578125 156.4765625 C-183.07688876 146.40852443 -170.2408884 138.43397338 -158.02734375 132.3359375 C-157.36734375 132.3359375 -156.70734375 132.3359375 -156.02734375 132.3359375 C-155.86421188 131.64203415 -155.70108002 130.9481308 -155.53300476 130.23320007 C-153.50996366 121.86619656 -151.04730857 113.67571719 -148.421875 105.48046875 C-148.20292761 104.79662298 -147.98398022 104.11277721 -147.75839806 103.40820885 C-146.6005214 99.79745073 -145.43648497 96.18873735 -144.26831055 92.58129883 C-143.31228219 89.62455972 -142.36958972 86.66406384 -141.43823242 83.69946289 C-140.30113548 80.08022561 -139.14129253 76.46902044 -137.96536827 72.86221886 C-137.52585985 71.50176709 -137.09403149 70.13880588 -136.6706028 68.77326393 C-133.85264143 59.71402742 -130.48481326 50.88222349 -121.73445129 46.07673645 C-115.21265776 43.36479104 -108.45365595 44.17099135 -101.90234375 46.3984375 C-101.28359375 46.7078125 -100.66484375 47.0171875 -100.02734375 47.3359375 C-99.89779297 46.48322266 -99.89779297 46.48322266 -99.765625 45.61328125 C-98.59475709 39.17887868 -96.69524937 34.04163469 -91.28515625 30.05078125 C-85.56090728 26.62360215 -80.64883555 25.79048894 -74.02734375 26.3359375 C-70.52734375 27.3359375 -70.52734375 27.3359375 -68.02734375 28.3359375 C-67.66382813 27.37494141 -67.66382813 27.37494141 -67.29296875 26.39453125 C-63.95823946 17.7883645 -61.16821901 11.35926956 -53.21484375 6.1484375 C-46.56950882 3.68017024 -41.61800571 4.43693321 -35.02734375 6.3359375 C-31.28869533 6.3359375 -30.79091669 5.47630859 -28.15234375 2.9609375 C-20.38280997 -4.44297116 -9.42696166 -4.82468818 0 0 Z " fill="#FEC79E" transform="translate(502.02734375,187.6640625)"/>
<path d="M0 0 C2.9338374 2.15148076 5.31154491 4.59816815 7.7578125 7.2890625 C8.2528125 6.9796875 8.7478125 6.6703125 9.2578125 6.3515625 C14.70575774 4.03618577 20.11349768 3.76831144 25.7421875 5.44140625 C32.03175634 8.08643811 36.23672105 11.94272751 38.94921875 18.1875 C39.21605469 18.88101563 39.48289062 19.57453125 39.7578125 20.2890625 C40.20447266 21.42214844 40.20447266 21.42214844 40.66015625 22.578125 C41.38614686 24.47172262 42.07572309 26.37921215 42.7578125 28.2890625 C43.5828125 27.9590625 44.4078125 27.6290625 45.2578125 27.2890625 C52.26296219 25.28759116 58.36879477 25.8340572 64.7578125 29.2890625 C67.5703125 31.7265625 67.5703125 31.7265625 69.7578125 34.2890625 C70.3146875 34.8665625 70.8715625 35.4440625 71.4453125 36.0390625 C73.48335474 39.5328492 74.04050799 43.33966823 74.7578125 47.2890625 C75.29148437 47.06089844 75.82515625 46.83273438 76.375 46.59765625 C83.64437977 43.79303395 89.57074087 43.89337196 96.9453125 46.3515625 C106.54997243 52.968106 109.33505456 62.30539895 112.69140625 72.93359375 C113.21788433 74.55217335 113.74599348 76.17022322 114.27565002 77.7877655 C115.37566844 81.16036196 116.4629292 84.53668885 117.53979492 87.91674805 C118.92072311 92.25108105 120.32271854 96.57820582 121.73286343 100.90311146 C123.07980379 105.0361433 124.41770032 109.17208101 125.75390625 113.30859375 C126.00904936 114.09679819 126.26419247 114.88500263 126.52706718 115.69709206 C127.24490914 117.92127176 127.95643961 120.14736138 128.66577148 122.37426758 C128.87919189 123.0335173 129.0926123 123.69276703 129.3125 124.37199402 C130.18883348 127.14410172 130.7578125 129.35901906 130.7578125 132.2890625 C131.593125 132.52882813 132.4284375 132.76859375 133.2890625 133.015625 C157.85094916 142.03271402 178.55824905 165.49061402 189.5078125 188.6015625 C198.96158806 209.4865352 203.40806955 230.70516214 203.2890625 253.5625 C203.29176673 255.42908936 203.29565681 257.29567734 203.30065918 259.16226196 C203.30649009 263.02953821 203.29818798 266.89643982 203.27929688 270.76367188 C203.25628505 275.71439871 203.26980952 280.66426846 203.29358673 285.61496544 C203.30802889 289.44972225 203.30344987 293.28427473 203.29307556 297.11903763 C203.29041546 298.94585906 203.29365274 300.77269927 203.30299377 302.59949875 C203.31315819 305.14024175 203.29767117 307.67957683 203.27539062 310.22021484 C203.28348755 310.96720139 203.29158447 311.71418793 203.29992676 312.48381042 C203.24516279 315.85636648 202.79094495 318.22217487 201.28918457 321.25392151 C197.55526797 324.25586928 194.40471555 323.98373425 189.73828125 323.92016602 C188.82728668 323.92732132 187.91629211 323.93447662 186.97769165 323.94184875 C183.96638848 323.95875747 180.95656948 323.93932031 177.9453125 323.91796875 C175.85310747 323.91879725 173.7609025 323.9212559 171.66870117 323.92527771 C167.28381763 323.92813721 162.89944446 323.91341936 158.51464844 323.88598633 C152.89191713 323.85190362 147.2700986 323.8579205 141.64732361 323.8766489 C137.32703026 323.88721369 133.00694959 323.87828575 128.68667603 323.86326408 C126.61341992 323.858078 124.54014163 323.85856923 122.46688843 323.86480904 C119.56988715 323.87025484 116.67419581 323.84990623 113.77734375 323.82250977 C112.91903961 323.82903564 112.06073547 323.83556152 111.17642212 323.84228516 C107.44688255 323.78226308 105.37041193 323.6960611 102.21134949 321.59724426 C100.411523 318.7391631 100.33352658 317.18509514 100.48168945 313.82470703 C100.53441765 312.18116745 100.53441765 312.18116745 100.58821106 310.50442505 C100.66636299 308.73106277 100.66636299 308.73106277 100.74609375 306.921875 C100.79497954 304.40111542 100.83976744 301.88027367 100.88085938 299.359375 C100.96280731 295.39554103 101.06917687 291.43924317 101.24780273 287.47851562 C102.53307272 271.46271874 102.53307272 271.46271874 96.13696289 257.54443359 C92.6643961 254.42969688 88.93730728 251.92552078 84.91023254 249.58607483 C81.5641744 247.56979614 78.59585777 245.12400457 75.5703125 242.6640625 C74.43772621 241.77799096 73.30379849 240.89362878 72.16796875 240.01171875 C67.91663642 236.6541115 63.82758743 233.11216187 59.73461914 229.56469727 C56.38325278 226.66441259 52.99080787 223.84442136 49.5078125 221.1015625 C22.23069686 199.35118271 9.22335939 169.71621551 -1.2421875 137.17578125 C-1.51970163 136.31760426 -1.79721577 135.45942726 -2.08313942 134.5752449 C-8.49283864 114.74890365 -14.57189795 94.82295759 -20.6072998 74.88012695 C-22.55273805 68.45501176 -24.50458665 62.03183995 -26.4556427 55.60842896 C-27.48449728 52.22111523 -28.51167437 48.83330051 -29.53739929 45.44503784 C-30.00043106 43.91762096 -30.46346885 42.3902059 -30.92651367 40.86279297 C-31.132668 40.18044586 -31.33882233 39.49809875 -31.55122375 38.79507446 C-32.44375755 35.85357543 -33.36486792 32.93284366 -34.36592102 30.02615356 C-36.45172449 23.51097333 -36.51533554 15.09320706 -33.6796875 8.7890625 C-30.70750289 3.89493519 -26.61385754 0.50247508 -21.5546875 -2.0859375 C-14.08701334 -3.49493262 -6.73490792 -3.91695481 0 0 Z " fill="#FEC79E" transform="translate(35.2421875,187.7109375)"/>
<path d="M0 0 C2.77117685 2.90619939 4.25361868 6.04907144 5.68359375 9.765625 C6.13025391 10.89871094 6.13025391 10.89871094 6.5859375 12.0546875 C7.31192811 13.94828512 8.00150434 15.85577465 8.68359375 17.765625 C9.50859375 17.435625 10.33359375 17.105625 11.18359375 16.765625 C18.18874344 14.76415366 24.29457602 15.3106197 30.68359375 18.765625 C33.49609375 21.203125 33.49609375 21.203125 35.68359375 23.765625 C36.51890625 24.631875 36.51890625 24.631875 37.37109375 25.515625 C39.40913599 29.0094117 39.96628924 32.81623073 40.68359375 36.765625 C41.21726562 36.53746094 41.7509375 36.30929688 42.30078125 36.07421875 C49.57016102 33.26959645 55.49652212 33.36993446 62.87109375 35.828125 C72.47575368 42.4446685 75.26083581 51.78196145 78.6171875 62.41015625 C79.14366558 64.02873585 79.67177473 65.64678572 80.20143127 67.264328 C81.30144969 70.63692446 82.38871045 74.01325135 83.46557617 77.39331055 C84.84650436 81.72764355 86.24849979 86.05476832 87.65864468 90.37967396 C89.00558504 94.5127058 90.34348157 98.64864351 91.6796875 102.78515625 C91.93483061 103.57336069 92.18997372 104.36156513 92.45284843 105.17365456 C93.17069039 107.39783426 93.88222086 109.62392388 94.59155273 111.85083008 C94.80497314 112.5100798 95.01839355 113.16932953 95.23828125 113.84855652 C96.11461473 116.62066422 96.68359375 118.83558156 96.68359375 121.765625 C97.51890625 122.00539063 98.35421875 122.24515625 99.21484375 122.4921875 C123.77673041 131.50927652 144.4840303 154.96717652 155.43359375 178.078125 C164.88736931 198.9630977 169.3338508 220.18172464 169.21484375 243.0390625 C169.21754798 244.90565186 169.22143806 246.77223984 169.22644043 248.63882446 C169.23227134 252.50610071 169.22396923 256.37300232 169.20507812 260.24023438 C169.1820663 265.19096121 169.19559077 270.14083096 169.21936798 275.09152794 C169.23381014 278.92628475 169.22923112 282.76083723 169.21885681 286.59560013 C169.21619671 288.42242156 169.21943399 290.24926177 169.22877502 292.07606125 C169.23893944 294.61680425 169.22345242 297.15613933 169.20117188 299.69677734 C169.2092688 300.44376389 169.21736572 301.19075043 169.22570801 301.96037292 C169.16850891 305.48289282 168.7415781 307.66461883 166.97644043 310.7394104 C164.22721549 313.16893164 163.09796505 313.35906603 159.48046875 313.25390625 C158.50078125 313.23779297 157.52109375 313.22167969 156.51171875 313.20507812 C155.4959375 313.16318359 154.48015625 313.12128906 153.43359375 313.078125 C152.40234375 313.05556641 151.37109375 313.03300781 150.30859375 313.00976562 C147.7654531 312.95089663 145.22526262 312.86872565 142.68359375 312.765625 C142.67812531 311.28795906 142.67812531 311.28795906 142.67254639 309.78044128 C142.63530583 300.41198576 142.57722333 291.04385016 142.49969101 281.67563915 C142.46049238 276.86146541 142.42817061 272.04746703 142.41259766 267.2331543 C142.39724642 262.57094168 142.36248372 257.90921216 142.31528473 253.24721718 C142.30065841 251.48504188 142.29256377 249.72279754 142.2917099 247.96056175 C142.26331082 218.68781169 133.58333963 187.92967457 113.68359375 165.765625 C113.20792969 165.16105469 112.73226562 164.55648437 112.2421875 163.93359375 C104.2097579 153.79579799 91.9386173 145.16726791 80.26269531 139.61425781 C71.36915974 135.26925042 65.22497969 128.91073638 58.43359375 121.890625 C57.29148909 120.7319634 56.14826492 119.57440422 55.00390625 118.41796875 C50.62778726 113.97663882 46.27318988 109.53593508 42.2265625 104.7890625 C36.93477148 98.60961622 31.01540621 92.99348788 25.24609375 87.265625 C24.02515685 86.04971386 22.80445183 84.83356984 21.58398438 83.6171875 C18.61985362 80.66397534 15.65260417 77.71393102 12.68359375 74.765625 C8.4719294 80.25910024 8.18556483 83.90502254 8.68359375 90.765625 C10.24412719 98.08812806 14.84564971 102.80983435 19.6640625 108.2890625 C22.57257584 111.60166505 25.29963052 115.02960068 27.99609375 118.515625 C32.78376921 124.67580804 37.71889517 130.70474544 42.69140625 136.71630859 C46.43884334 141.24826169 50.14922925 145.80500243 53.796875 150.41796875 C55.22911995 152.20012033 56.69012888 153.9592013 58.1640625 155.70703125 C58.99550781 156.69574219 59.82695312 157.68445313 60.68359375 158.703125 C61.44671875 159.59902344 62.20984375 160.49492187 62.99609375 161.41796875 C64.68359375 163.765625 64.68359375 163.765625 64.68359375 166.765625 C63.38325195 165.45742798 63.38325195 165.45742798 62.05664062 164.12280273 C58.80892583 160.85685098 55.55779048 157.59432201 52.30566406 154.33276367 C50.90435242 152.92645425 49.50394339 151.51924478 48.10449219 150.11108398 C46.08120337 148.07552844 44.05458247 146.04333969 42.02734375 144.01171875 C41.10495911 143.08159218 41.10495911 143.08159218 40.16394043 142.13267517 C36.37063581 138.33889305 32.45478847 134.74220795 28.39170837 131.23858643 C10.66775778 115.95466158 3.19413984 97.3000251 -3.44140625 75.56787109 C-4.54694217 72.02731828 -5.73977053 68.52042321 -6.94116211 65.01147461 C-10.16810868 55.57906929 -12.97230491 46.0765388 -15.60791016 36.46313477 C-19.18386272 23.47693942 -23.05651033 10.54531277 -27.31640625 -2.234375 C-18.33507739 -8.30997982 -8.1772898 -6.77875935 0 0 Z " fill="#FEB98A" transform="translate(69.31640625,198.234375)"/>
<path d="M0 0 C6.60550193 0.68659339 9.65799578 2.10987149 14 7 C18.67295975 12.92366368 18.73726955 19.60523255 18.24851608 26.90989304 C17.40045698 34.04236602 14.82708504 40.9188805 12.62890625 47.72265625 C12.06578815 49.51592508 11.50446079 51.30975709 10.94480896 53.10411072 C9.47136895 57.81178921 7.97440803 62.51164794 6.47198486 67.21014404 C4.97846225 71.89417816 3.50653741 76.5849755 2.03320312 81.27539062 C-0.2448364 88.51999354 -2.53470218 95.7607372 -4.83349609 102.9987793 C-7.9979314 112.96659652 -11.10558509 122.9513278 -14.182724 132.94642639 C-22.34368056 159.39784182 -31.65042084 185.75118733 -50 207 C-50.62390625 207.75667969 -51.2478125 208.51335937 -51.890625 209.29296875 C-56.52853044 214.76984489 -61.66913753 219.2009452 -67.29248047 223.63818359 C-70.73131509 226.38079433 -74.10952578 229.19802295 -77.5 232 C-83.14201179 236.65043796 -88.79008407 241.29315199 -94.453125 245.91796875 C-96.23672593 247.37603516 -98.01776441 248.83723916 -99.796875 250.30078125 C-101.19679688 251.45126953 -101.19679688 251.45126953 -102.625 252.625 C-103.44226563 253.29789063 -104.25953125 253.97078125 -105.1015625 254.6640625 C-108 257 -108 257 -110.21815491 258.30192566 C-113.93071276 260.66684116 -116.55669271 262.4561431 -117.80450439 266.80175781 C-118.07114173 270.23523544 -118.06369404 273.56950372 -117.95703125 277.01171875 C-117.95700607 278.25750198 -117.9569809 279.50328522 -117.95695496 280.78681946 C-117.95206115 284.08272667 -117.91085384 287.37529433 -117.84838867 290.67053223 C-117.76565599 295.32016496 -117.73453046 299.96998074 -117.72160339 304.62031555 C-117.71203918 307.0923382 -117.68062128 309.56439259 -117.62519836 312.03581238 C-117.61586777 313.15409927 -117.60653717 314.27238617 -117.59692383 315.42456055 C-117.57866043 316.40716354 -117.56039703 317.38976654 -117.5415802 318.40214539 C-118.14516107 321.82262451 -119.21305399 322.96922893 -122 325 C-124.47363281 325.45410156 -124.47363281 325.45410156 -127.203125 325.390625 C-128.1828125 325.37773437 -129.1625 325.36484375 -130.171875 325.3515625 C-131.69554687 325.30128906 -131.69554687 325.30128906 -133.25 325.25 C-134.28125 325.23195313 -135.3125 325.21390625 -136.375 325.1953125 C-138.91761064 325.14822712 -141.45833162 325.0824805 -144 325 C-144.27902979 315.52490326 -144.49173958 306.05123632 -144.62174606 296.57291603 C-144.68417188 292.17066177 -144.76870223 287.77123316 -144.90527344 283.37060547 C-145.03644743 279.11687251 -145.10756296 274.8658413 -145.13852692 270.61024094 C-145.16056531 268.99366086 -145.20360931 267.37721587 -145.26876068 265.76179886 C-145.7433561 253.4974293 -145.7433561 253.4974293 -142.86360168 249.37206268 C-139.66835162 245.96701819 -135.917913 243.52162151 -132 241 C-129.92762648 239.45280941 -127.90460598 237.85366707 -125.875 236.25 C-124.78387333 235.41493744 -123.69170791 234.58122672 -122.59765625 233.75 C-117.71245983 230.02481518 -112.87069296 226.24380136 -108.02514648 222.46728516 C-104.07913231 219.39256623 -100.12791425 216.32513927 -96.1640625 213.2734375 C-66.44524163 190.37183719 -51.81604985 164.51888743 -39.75 129.3125 C-39.49946869 128.58204468 -39.24893738 127.85158936 -38.99081421 127.09899902 C-35.36676591 116.48038101 -32.10855695 105.77956008 -29 95 C-25.30180743 82.43978431 -21.43290268 69.9339438 -17.53710938 57.43383789 C-14.32563472 47.10480476 -11.20969636 36.74902848 -8.11425781 26.38476562 C-5.47845647 17.56741056 -2.78805009 8.77044901 0 0 Z " fill="#FFB98A" transform="translate(494,186)"/>
<path d="M0 0 C1.02902136 0.97011084 2.03398643 1.96713128 3 3 C2.57589844 4.2375 2.15179688 5.475 1.71484375 6.75 C-2.29671359 18.56180773 -5.93496058 30.44339433 -9.38671875 42.4296875 C-12.05958459 51.70289552 -15.00311233 60.88762821 -17.9453125 70.078125 C-18.29150635 71.15989014 -18.6377002 72.24165527 -18.99438477 73.35620117 C-19.703562 75.56802365 -20.41497006 77.77913215 -21.12866211 79.98950195 C-23.21775302 86.44910407 -23.21775302 86.44910407 -25.12109375 92.96484375 C-31.14450572 114.62235612 -46.05430316 130.87642932 -62.76171875 145.2578125 C-67.59856614 149.45743263 -72.10803325 153.96152389 -76.625 158.5 C-77.44484375 159.31597656 -78.2646875 160.13195312 -79.109375 160.97265625 C-83.15077693 165.02055561 -87.07111255 169.09145945 -90.69970703 173.51586914 C-92.90054152 176.0278618 -95.32937157 177.99702867 -98 180 C-98.66 180 -99.32 180 -100 180 C-103.81276998 172.45956652 -105.15059188 165.42730811 -104 157 C-102.16963569 151.75020912 -99.50290652 147.69111754 -96 143.4375 C-95.00756082 142.20462964 -94.01538041 140.97155094 -93.0234375 139.73828125 C-92.5190918 139.11646973 -92.01474609 138.4946582 -91.49511719 137.85400391 C-89.62428575 135.5340996 -87.79065875 133.18660262 -85.95874023 130.8359375 C-81.52216799 125.14465097 -77.00207336 119.52650128 -72.4375 113.9375 C-67.68361067 108.11419444 -63.04372891 102.22167854 -58.48828125 96.2421875 C-56.69646878 93.89509415 -54.87767798 91.57152863 -53.04296875 89.2578125 C-52.54619629 88.63084473 -52.04942383 88.00387695 -51.53759766 87.35791016 C-50.58265463 86.15514345 -49.62544189 84.95417384 -48.66552734 83.75537109 C-46.18306843 80.62539419 -43.96640464 77.47852437 -42 74 C-48.14143921 71.36795462 -53.43890254 69.65458537 -60.04101562 71.60205078 C-69.70381219 75.7784513 -76.444412 83.9431763 -83.625 91.375 C-85.68346713 93.48381534 -87.74558224 95.58896067 -89.81015015 97.69180298 C-91.08564913 98.99322698 -92.35715081 100.29858671 -93.62368774 101.60873413 C-97.31934013 105.40633468 -101.14793247 108.96010706 -105.17773438 112.40190125 C-108.62881847 115.42844859 -111.77124492 118.7680825 -114.94921875 122.07617188 C-116.2639718 123.41980193 -117.62816888 124.71469976 -119 126 C-119.66 126 -120.32 126 -121 126 C-118.86413462 116.91480912 -116.24103202 108.0298374 -113.39453125 99.14453125 C-113.17558386 98.46068548 -112.95663647 97.77683971 -112.73105431 97.07227135 C-111.57317765 93.46151323 -110.40914122 89.85279985 -109.2409668 86.24536133 C-108.28493844 83.28862222 -107.34224597 80.32812634 -106.41088867 77.36352539 C-105.27379173 73.74428811 -104.11394878 70.13308294 -102.93802452 66.52628136 C-102.4985161 65.16582959 -102.06668774 63.80286838 -101.64325905 62.43732643 C-98.82529768 53.37808992 -95.45746951 44.54628599 -86.70710754 39.74079895 C-80.18531401 37.02885354 -73.4263122 37.83505385 -66.875 40.0625 C-66.25625 40.371875 -65.6375 40.68125 -65 41 C-64.91363281 40.43152344 -64.82726562 39.86304688 -64.73828125 39.27734375 C-63.56741334 32.84294118 -61.66790562 27.70569719 -56.2578125 23.71484375 C-50.53356353 20.28766465 -45.6214918 19.45455144 -39 20 C-35.5 21 -35.5 21 -33 22 C-32.63648438 21.03900391 -32.63648438 21.03900391 -32.265625 20.05859375 C-28.94831293 11.49737682 -26.18031944 4.78793772 -18.0625 -0.1875 C-11.94807417 -2.59621321 -6.15534445 -2.07650174 0 0 Z " fill="#FCB687" transform="translate(467,194)"/>
<path d="M0 0 C5.56895749 2.44118685 9.62122578 6.88660603 14 11 C15.23169922 12.15048828 15.23169922 12.15048828 16.48828125 13.32421875 C41.85226811 37.79824116 63.55607408 73.99217947 64.24145508 109.9855957 C64.32637601 130.62623502 58.3967025 149.35411397 44 164.5625 C17.14322923 190.24680601 -22.02375284 197.3684808 -57.96875 197.1015625 C-62.34001885 196.95510246 -66.66213271 196.54835343 -71 196 C-71 195.67 -71 195.34 -71 195 C-70.32646484 194.90501221 -69.65292969 194.81002441 -68.95898438 194.7121582 C-55.58840442 192.79247286 -42.67214934 190.78782805 -30 186 C-29.29407715 185.73815918 -28.5881543 185.47631836 -27.86083984 185.20654297 C-13.99297369 179.99734012 -2.66702908 173.45333234 8 163 C8.69996094 162.33613281 9.39992188 161.67226562 10.12109375 160.98828125 C23.02446273 147.78307908 28.70291318 128.61902904 28.54125977 110.4934082 C27.90069861 94.26422894 22.99394692 78.5543172 16 64 C15.65952637 63.29004883 15.31905273 62.58009766 14.96826172 61.84863281 C6.21434762 43.90772046 -5.57697736 27.8259912 -20 14 C-24.86714976 9.26570048 -24.86714976 9.26570048 -26 7 C-25.10539062 6.97421875 -24.21078125 6.9484375 -23.2890625 6.921875 C-10.61125518 6.33170351 -10.61125518 6.33170351 0 0 Z " fill="#78AA17" transform="translate(310,92)"/>
<path d="M0 0 C1.15108246 -0.01134979 2.30216492 -0.02269958 3.48812866 -0.03439331 C5.38410042 -0.02999741 5.38410042 -0.02999741 7.31837463 -0.0255127 C8.66207079 -0.03285154 10.00576064 -0.04143723 11.34944153 -0.05117798 C15.00029815 -0.07342244 18.65092927 -0.07632323 22.30184436 -0.07443047 C25.34865074 -0.0743109 28.39540911 -0.08286934 31.44220215 -0.09120798 C38.62963718 -0.11045258 45.81695606 -0.11332205 53.00440979 -0.10656738 C60.42145427 -0.09992528 67.83800159 -0.12279486 75.25494522 -0.15988111 C81.62107446 -0.19055913 87.98704362 -0.20194025 94.35324532 -0.1980443 C98.15632821 -0.19597481 101.9590243 -0.20148614 105.76203728 -0.22593689 C109.33847839 -0.24817077 112.91411028 -0.24635556 116.49055481 -0.22600937 C118.42924812 -0.22096363 120.36795627 -0.24064212 122.30654907 -0.26101685 C124.0374025 -0.24420364 124.0374025 -0.24420364 125.80322266 -0.22705078 C126.80592414 -0.22776329 127.80862562 -0.2284758 128.841712 -0.2292099 C132.47962384 0.63557583 133.53472618 2.27102838 135.46510315 5.39440918 C135.82696666 13.29362485 131.56230314 19.68604116 127.90260315 26.45690918 C127.26265031 27.66180096 126.62382002 28.86728961 125.98609924 30.07336426 C124.15923968 33.52098019 122.31227871 36.95763441 120.46510315 40.39440918 C119.56141288 42.09421483 118.65888076 43.79463728 117.7580719 45.49597168 C116.00585959 48.80202554 114.24134796 52.1011851 112.46510315 55.39440918 C111.59326669 55.15083774 111.59326669 55.15083774 110.70381737 54.90234566 C107.14999168 54.09602671 103.56240586 54.25593497 99.93629456 54.26501465 C99.07728043 54.26326233 98.2182663 54.26151001 97.33322144 54.25970459 C94.49434893 54.25530454 91.65553878 54.25821811 88.81666565 54.26159668 C86.84135425 54.26092299 84.86604293 54.25995241 82.89073181 54.25869751 C78.74982413 54.25722294 74.60893801 54.25936694 70.46803284 54.26403809 C65.16637766 54.26972776 59.86477319 54.26645967 54.56311989 54.26046562 C50.4830131 54.25684718 46.40291828 54.25800464 42.32281113 54.26059341 C40.36842722 54.26125952 38.41404221 54.26044534 36.45965958 54.25811386 C33.72397753 54.25556713 30.98837682 54.25945677 28.25270081 54.26501465 C27.44834091 54.26299042 26.64398102 54.26096619 25.81524658 54.25888062 C21.58729135 54.27474866 17.63023436 54.55839551 13.46510315 55.39440918 C10.51072901 49.62876105 7.55665846 43.86295745 4.60279846 38.0970459 C3.59798554 36.13574707 2.59310323 34.17448379 1.58815002 32.21325684 C0.14330578 29.39352622 -1.30128856 26.5736677 -2.74583435 23.75378418 C-3.19486115 22.87760437 -3.64388794 22.00142456 -4.10652161 21.09869385 C-4.52680634 20.27814514 -4.94709106 19.45759644 -5.38011169 18.61218262 C-5.74873322 17.89270447 -6.11735474 17.17322632 -6.49714661 16.4319458 C-7.01083298 15.42336517 -7.01083298 15.42336517 -7.53489685 14.39440918 C-7.91320648 13.72089417 -8.29151611 13.04737915 -8.68128967 12.35345459 C-10.06256512 9.18340002 -9.31110592 6.67837061 -8.53489685 3.39440918 C-6.13087711 0.02199179 -3.99982659 0.01487962 0 0 Z " fill="#8ACB19" transform="translate(192.53489685058594,0.6055908203125)"/>
<path d="M0 0 C2.77117685 2.90619939 4.25361868 6.04907144 5.68359375 9.765625 C6.13025391 10.89871094 6.13025391 10.89871094 6.5859375 12.0546875 C7.31192811 13.94828512 8.00150434 15.85577465 8.68359375 17.765625 C9.50859375 17.435625 10.33359375 17.105625 11.18359375 16.765625 C18.18874344 14.76415366 24.29457602 15.3106197 30.68359375 18.765625 C33.49609375 21.203125 33.49609375 21.203125 35.68359375 23.765625 C36.51890625 24.631875 36.51890625 24.631875 37.37109375 25.515625 C39.40913599 29.0094117 39.96628924 32.81623073 40.68359375 36.765625 C41.21726562 36.53746094 41.7509375 36.30929688 42.30078125 36.07421875 C49.57016102 33.26959645 55.49652212 33.36993446 62.87109375 35.828125 C72.46996247 42.44067901 75.278502 51.79168243 78.65234375 62.41015625 C79.18135169 64.02869435 79.71185402 65.64674472 80.24377441 67.264328 C81.34825084 70.63682921 82.43952818 74.01320631 83.52050781 77.39331055 C84.90740948 81.72873365 86.31965172 86.05536345 87.74077606 90.37967396 C88.83418504 93.71178612 89.91807174 97.04692933 90.99867249 100.38321495 C91.51655385 101.98070633 92.03651345 103.57752552 92.55857849 105.17365456 C93.28323637 107.39656019 93.99589961 109.62294543 94.70507812 111.85083008 C95.03060165 112.83970467 95.03060165 112.83970467 95.36270142 113.84855652 C96.37888497 117.08625455 96.78640201 118.45720023 95.68359375 121.765625 C87.34990501 114.84186547 79.86149431 107.03598807 72.27734375 99.31640625 C70.18828196 97.26195241 68.07228228 95.26545827 65.9140625 93.28515625 C65.25341797 92.67865234 64.59277344 92.07214844 63.91210938 91.44726562 C62.53496894 90.18609491 61.15468021 88.92835458 59.77148438 87.67382812 C59.11728516 87.07119141 58.46308594 86.46855469 57.7890625 85.84765625 C57.19246826 85.30343018 56.59587402 84.7592041 55.98120117 84.19848633 C54.68359375 82.765625 54.68359375 82.765625 54.68359375 80.765625 C54.10480469 80.51683594 53.52601562 80.26804687 52.9296875 80.01171875 C50.3690708 78.59113314 48.74880915 76.95774514 46.74609375 74.828125 C41.30166452 69.25238301 36.7437771 66.68942036 28.93359375 66.453125 C23.01174235 66.53161788 18.47386148 68.11025571 14.1484375 72.2265625 C9.58467026 77.46890738 8.23859611 81.37808501 8.45703125 88.19921875 C9.22561455 96.90541232 14.1384393 102.00563443 19.6640625 108.2890625 C22.57257584 111.60166505 25.29963052 115.02960068 27.99609375 118.515625 C32.78376921 124.67580804 37.71889517 130.70474544 42.69140625 136.71630859 C46.43884334 141.24826169 50.14922925 145.80500243 53.796875 150.41796875 C55.22911995 152.20012033 56.69012888 153.9592013 58.1640625 155.70703125 C58.99550781 156.69574219 59.82695312 157.68445313 60.68359375 158.703125 C61.44671875 159.59902344 62.20984375 160.49492187 62.99609375 161.41796875 C64.68359375 163.765625 64.68359375 163.765625 64.68359375 166.765625 C63.38325195 165.45742798 63.38325195 165.45742798 62.05664062 164.12280273 C58.80892583 160.85685098 55.55779048 157.59432201 52.30566406 154.33276367 C50.90435242 152.92645425 49.50394339 151.51924478 48.10449219 150.11108398 C46.08120337 148.07552844 44.05458247 146.04333969 42.02734375 144.01171875 C41.10495911 143.08159218 41.10495911 143.08159218 40.16394043 142.13267517 C36.37063581 138.33889305 32.45478847 134.74220795 28.39170837 131.23858643 C10.66775778 115.95466158 3.19413984 97.3000251 -3.44140625 75.56787109 C-4.54694217 72.02731828 -5.73977053 68.52042321 -6.94116211 65.01147461 C-10.16810868 55.57906929 -12.97230491 46.0765388 -15.60791016 36.46313477 C-19.18386272 23.47693942 -23.05651033 10.54531277 -27.31640625 -2.234375 C-18.33507739 -8.30997982 -8.1772898 -6.77875935 0 0 Z " fill="#F6AF80" transform="translate(69.31640625,198.234375)"/>
<path d="M0 0 C0.85784592 -0.00511093 1.71569183 -0.01022186 2.59953308 -0.01548767 C5.41733905 -0.02931612 8.23489864 -0.02843228 11.05273438 -0.02612305 C13.02136322 -0.03001311 14.98999123 -0.03434842 16.95861816 -0.03910828 C21.07742031 -0.04655554 25.1961367 -0.04628961 29.31494141 -0.04101562 C34.58402155 -0.03521682 39.85275065 -0.05216926 45.12177277 -0.0753603 C49.18477417 -0.09011393 53.24769128 -0.09096722 57.31071472 -0.08785057 C59.25311479 -0.08836276 61.1955197 -0.09358117 63.13789368 -0.10366249 C65.8564824 -0.11604397 68.57439036 -0.10922548 71.29296875 -0.09765625 C72.08902023 -0.10529999 72.88507172 -0.11294373 73.70524597 -0.12081909 C80.13929713 -0.0605138 84.7889895 1.30094156 89.83398438 5.5246582 C95.64993401 12.44092264 96.83621075 16.79058321 96.51757812 25.89575195 C95.88004043 31.70070045 94.53923875 35.34090467 89.94726562 39.05200195 C83.85763911 43.21962074 79.95942459 44.42811303 72.58520508 44.45166016 C71.25564034 44.46151695 71.25564034 44.46151695 69.8992157 44.47157288 C66.95689819 44.4913317 64.01463184 44.5029755 61.07226562 44.51293945 C59.56562882 44.51905274 59.56562882 44.51905274 58.02855492 44.52528954 C52.7102008 44.54616336 47.39187257 44.56045822 42.07348633 44.56982422 C36.58337796 44.58087888 31.09367599 44.61526429 25.60371113 44.65499592 C21.38029739 44.68116342 17.15698033 44.68951629 12.93349266 44.6931057 C10.9101303 44.69797292 8.8867723 44.70959077 6.86348915 44.72814369 C4.02691285 44.75253301 1.19138573 44.75157018 -1.64526367 44.74462891 C-2.4772226 44.75743896 -3.30918152 44.77024902 -4.16635132 44.78344727 C-12.40363348 44.71019464 -17.96605945 41.02830855 -23.85351562 35.2746582 C-27.52068146 29.284954 -27.66204942 23.1747591 -26.85351562 16.2746582 C-25.1558582 10.22170109 -21.2572268 5.4700731 -15.85351562 2.2746582 C-10.44579792 0.41220791 -5.69328002 -0.01771824 0 0 Z " fill="#FEDA55" transform="translate(220.853515625,53.725341796875)"/>
<path d="M0 0 C-0.61869598 6.48720932 -2.62732499 12.29925405 -4.75 18.4375 C-7.77274211 27.21842281 -7.77274211 27.21842281 -10.5 36.09375 C-10.7155957 36.8369751 -10.93119141 37.5802002 -11.15332031 38.34594727 C-11.71340267 40.30921468 -12.25576742 42.27751209 -12.796875 44.24609375 C-14 47 -14 47 -15.9140625 47.92578125 C-18 48 -18 48 -21.625 47.75 C-31.91885577 47.80856768 -38.69710794 55.20120578 -45.47805786 62.04284668 C-47.53551209 64.14549554 -49.58089637 66.25937691 -51.625 68.375 C-53.68346713 70.48381534 -55.74558224 72.58896067 -57.81015015 74.69180298 C-59.08564913 75.99322698 -60.35715081 77.29858671 -61.62368774 78.60873413 C-65.31934013 82.40633468 -69.14793247 85.96010706 -73.17773438 89.40190125 C-76.62881847 92.42844859 -79.77124492 95.7680825 -82.94921875 99.07617188 C-84.2639718 100.41980193 -85.62816888 101.71469976 -87 103 C-87.66 103 -88.32 103 -89 103 C-86.86413462 93.91480912 -84.24103202 85.0298374 -81.39453125 76.14453125 C-81.17558386 75.46068548 -80.95663647 74.77683971 -80.73105431 74.07227135 C-79.57317765 70.46151323 -78.40914122 66.85279985 -77.2409668 63.24536133 C-76.28493844 60.28862222 -75.34224597 57.32812634 -74.41088867 54.36352539 C-73.27379173 50.74428811 -72.11394878 47.13308294 -70.93802452 43.52628136 C-70.4985161 42.16582959 -70.06668774 40.80286838 -69.64325905 39.43732643 C-66.82529768 30.37808992 -63.45746951 21.54628599 -54.70710754 16.74079895 C-48.18531401 14.02885354 -41.4263122 14.83505385 -34.875 17.0625 C-33.946875 17.5265625 -33.946875 17.5265625 -33 18 C-32.91363281 17.43152344 -32.82726562 16.86304688 -32.73828125 16.27734375 C-31.56741334 9.84294118 -29.66790562 4.70569719 -24.2578125 0.71484375 C-15.99889676 -4.2298719 -8.44973268 -4.22486634 0 0 Z " fill="#F6AF80" transform="translate(435,217)"/>
<path d="M0 0 C3.82396672 0.95599168 5.21692547 2.42869565 7.5 5.625 C7.90781427 8.67341167 7.79950461 11.57005299 7.5 14.625 C8.5209375 14.686875 8.5209375 14.686875 9.5625 14.75 C15.5588409 16.5361441 19.29745848 20.85898135 22.4375 26.125 C24.28405434 29.78130029 25.43827933 32.49657094 24.5 36.625 C22.4375 39.5625 22.4375 39.5625 19.5 41.625 C15.7248831 41.69008822 13.52244074 41.610925 10.75 38.9375 C9.77084849 37.12606971 8.84384104 35.28643572 7.9375 33.4375 C6.80124189 30.52858047 6.80124189 30.52858047 4.5 29.625 C-0.27955173 29.2504682 -0.27955173 29.2504682 -4.7109375 30.78515625 C-6.75563152 32.52758283 -6.75563152 32.52758283 -6.890625 35.32421875 C-6.84421875 36.31035156 -6.7978125 37.29648438 -6.75 38.3125 C-6.69585937 39.80330078 -6.69585937 39.80330078 -6.640625 41.32421875 C-6.57101563 42.46310547 -6.57101563 42.46310547 -6.5 43.625 C-5.04980469 43.86283203 -5.04980469 43.86283203 -3.5703125 44.10546875 C5.45318181 45.68234499 14.21816204 47.34316204 20.9375 54.0625 C21.453125 54.908125 21.96875 55.75375 22.5 56.625 C23.36625 57.924375 23.36625 57.924375 24.25 59.25 C27.02317935 66.73758423 26.07991961 74.13753692 22.828125 81.328125 C19.88780657 86.41314628 16.3037045 90.37732864 10.5625 92.0625 C9.551875 92.248125 8.54125 92.43375 7.5 92.625 C7.54125 93.8625 7.5825 95.1 7.625 96.375 C7.625 99.62783562 7.45704844 101.90687717 5.5 104.625 C2.40826248 106.17086876 -0.09429552 105.91859521 -3.5 105.625 C-5.9375 104.25 -5.9375 104.25 -7.5 101.625 C-7.82131194 98.26439316 -7.73114045 94.98937766 -7.5 91.625 C-8.21929687 91.54765625 -8.93859375 91.4703125 -9.6796875 91.390625 C-13.21676973 90.43041985 -14.94252458 88.8523932 -17.625 86.375 C-18.89730469 85.22257812 -18.89730469 85.22257812 -20.1953125 84.046875 C-23.54077798 80.53130111 -25.32182079 77.89452684 -26 73.0625 C-25.5 69.625 -25.5 69.625 -23.3125 67.1875 C-20.2179309 65.46829495 -18.9491574 64.84893958 -15.5 65.625 C-12.75165684 67.9711466 -10.61324854 70.48177391 -8.375 73.3125 C-6.53438927 75.81653669 -6.53438927 75.81653669 -3.5 77.625 C0.4448434 77.93808281 3.2585455 78.1024825 6.9375 76.6875 C9.08795234 73.84890291 9.34865412 71.26009412 9.8125 67.78125 C9.69194395 65.50782755 9.69194395 65.50782755 7.91796875 63.92578125 C4.89818989 62.30124755 2.19486232 61.85948269 -1.1875 61.3125 C-8.35859584 59.87231114 -14.29803573 57.75714384 -18.8984375 51.8203125 C-22.95277718 45.12058806 -23.17923322 38.27375668 -22.5 30.625 C-20.71025727 23.86501632 -15.95638636 19.69957423 -10.5 15.625 C-9.84 15.295 -9.18 14.965 -8.5 14.625 C-8.22250923 12.66147912 -8.22250923 12.66147912 -8.1875 10.375 C-7.85315728 6.69723004 -7.5411644 5.68102932 -5.25 2.5625 C-2.5 0.625 -2.5 0.625 0 0 Z " fill="#FCDA54" transform="translate(256.5,133.375)"/>
<path d="M0 0 C5.05362021 -0.12371396 10.10635702 -0.21439046 15.16113281 -0.2746582 C16.88003901 -0.29978367 18.59883856 -0.33389047 20.31738281 -0.37719727 C22.78998114 -0.43794029 25.26116606 -0.46622762 27.734375 -0.48828125 C28.50118591 -0.51408768 29.26799683 -0.5398941 30.05804443 -0.56648254 C33.91635275 -0.56850506 35.62545027 -0.34547443 38.5065918 2.31201172 C40.17427996 5.31368684 40.40072126 7.21016989 39.77001953 10.58154297 C38.0279588 16.05296135 35.1583143 21.02867904 32.4375 26.0625 C31.79754716 27.26739178 31.15871687 28.47288043 30.52099609 29.67895508 C28.69413653 33.12657102 26.84717556 36.56322523 25 40 C24.09630973 41.69980565 23.19377761 43.4002281 22.29296875 45.1015625 C20.54075644 48.40761636 18.77624481 51.70677592 17 55 C15.9584375 54.68289062 14.916875 54.36578125 13.84375 54.0390625 C7.80791248 52.53010312 1.6910346 52.53828003 -4.5 52.375 C-5.70398438 52.33632813 -6.90796875 52.29765625 -8.1484375 52.2578125 C-11.09881119 52.16414984 -14.04918856 52.07842476 -17 52 C-15.75666532 49.30924792 -14.50646478 46.62212699 -13.25 43.9375 C-12.85893066 43.09928711 -12.46786133 42.26107422 -12.06494141 41.39746094 C-9.73894786 36.47511427 -7.29998275 31.64454986 -4.6953125 26.86328125 C-4.14456055 25.84564697 -3.59380859 24.8280127 -3.02636719 23.77954102 C-1.94101689 21.78839496 -0.84048661 19.80543487 0.27636719 17.83178711 C2.57395595 13.60186538 3.99473417 10.89519175 4.0234375 6.015625 C3.00791126 3.02331104 2.25028771 2.05517606 0 0 Z " fill="#78AA16" transform="translate(288,1)"/>
<path d="M0 0 C2.22524851 6.84757573 4.42868362 13.7020292 6.61898804 20.56085205 C8.07611256 25.1212812 9.54111417 29.67907678 11.01269531 34.23486328 C12.85853393 39.95204014 14.68969218 45.67377725 16.51342773 51.39804077 C17.25404366 53.71466153 17.99932121 56.02979719 18.74926758 58.34341431 C19.81660042 61.63918496 20.86707328 64.93990687 21.9140625 68.2421875 C22.24068878 69.23807388 22.56731506 70.23396027 22.90383911 71.26002502 C24.69978839 76.99383449 25.81888219 81.36223562 23 87 C22.21924729 95.07778761 23.21877636 101.44061016 28.26171875 107.89453125 C30.13439105 110.13421142 32.05262669 112.33120389 33.98046875 114.5234375 C36.88898209 117.83604005 39.61603677 121.26397568 42.3125 124.75 C47.10017546 130.91018304 52.03530142 136.93912044 57.0078125 142.95068359 C60.75524959 147.48263669 64.4656355 152.03937743 68.11328125 156.65234375 C69.5455262 158.43449533 71.00653513 160.1935763 72.48046875 161.94140625 C73.31191406 162.93011719 74.14335937 163.91882813 75 164.9375 C75.763125 165.83339844 76.52625 166.72929687 77.3125 167.65234375 C79 170 79 170 79 173 C77.6996582 171.69180298 77.6996582 171.69180298 76.37304688 170.35717773 C73.12533208 167.09122598 69.87419673 163.82869701 66.62207031 160.56713867 C65.22075867 159.16082925 63.82034964 157.75361978 62.42089844 156.34545898 C60.39760962 154.30990344 58.37098872 152.27771469 56.34375 150.24609375 C55.42136536 149.31596718 55.42136536 149.31596718 54.48034668 148.36705017 C50.68704206 144.57326805 46.77119472 140.97658295 42.70811462 137.47296143 C24.98416403 122.18903658 17.51054609 103.5344001 10.875 81.80224609 C9.76946408 78.26169328 8.57663572 74.75479821 7.37524414 71.24584961 C4.14829757 61.81344429 1.34410134 52.3109138 -1.29150391 42.69750977 C-4.86745647 29.71131442 -8.74010408 16.77968777 -13 4 C-8.78654111 1.14971899 -5.09630931 0 0 0 Z " fill="#DB9A75" transform="translate(55,192)"/>
<path d="M0 0 C1.02902136 0.97011084 2.03398643 1.96713128 3 3 C2.57589844 4.2375 2.15179688 5.475 1.71484375 6.75 C-2.29671359 18.56180773 -5.93496058 30.44339433 -9.38671875 42.4296875 C-12.05958459 51.70289552 -15.00311233 60.88762821 -17.9453125 70.078125 C-18.29150635 71.15989014 -18.6377002 72.24165527 -18.99438477 73.35620117 C-19.703562 75.56802365 -20.41497006 77.77913215 -21.12866211 79.98950195 C-23.21775302 86.44910407 -23.21775302 86.44910407 -25.12109375 92.96484375 C-31.13206251 114.57761588 -46.00633248 130.86715912 -62.70703125 145.19921875 C-67.88658937 149.69419687 -72.67580363 154.56772619 -77.5 159.4375 C-78.4178125 160.35982422 -79.335625 161.28214844 -80.28125 162.23242188 C-82.52315055 164.48599899 -84.762666 166.74189075 -87 169 C-87 164.87451363 -84.8001604 163.11828791 -82.1875 160.1875 C-81.16455057 159.01095108 -80.14377908 157.83250564 -79.125 156.65234375 C-78.60164063 156.04632324 -78.07828125 155.44030273 -77.5390625 154.81591797 C-75.17280457 152.02400387 -72.92837238 149.14283061 -70.6875 146.25 C-66.48381286 140.84209183 -62.17709857 135.52884817 -57.8125 130.25 C-40.82198041 112.59164058 -40.82198041 112.59164058 -32.75 91.0625 C-32.74484375 90.04285156 -32.7396875 89.02320313 -32.734375 87.97265625 C-32.8128683 85.02447715 -32.8128683 85.02447715 -34.140625 82.74609375 C-36.84257805 74.11212559 -30.66725749 62.11375154 -27.9921875 53.7109375 C-27.50134359 52.15595675 -27.01096437 50.60082924 -26.52102661 49.04556274 C-25.24007098 44.98357492 -23.95287705 40.92359126 -22.66430664 36.86401367 C-21.34659801 32.70872772 -20.03489167 28.55154818 -18.72265625 24.39453125 C-16.15425828 16.26117162 -13.57925684 8.12992255 -11 0 C-12.65 0 -14.3 0 -16 0 C-16 -0.33 -16 -0.66 -16 -1 C-10.50093601 -2.4471221 -5.34019849 -1.80151274 0 0 Z " fill="#DC9A75" transform="translate(467,194)"/>
<path d="M0 0 C4.85633035 -0.07453636 9.71232268 -0.12878329 14.5690918 -0.16479492 C16.21889044 -0.17981806 17.86864958 -0.2002426 19.51831055 -0.22631836 C21.89902536 -0.26298899 24.27920908 -0.27979103 26.66015625 -0.29296875 C27.38960953 -0.30845261 28.11906281 -0.32393646 28.87062073 -0.33988953 C35.17315013 -0.34192911 39.75585467 1.12118066 44.6875 5.25 C50.50344964 12.16626444 51.68972638 16.515925 51.37109375 25.62109375 C50.73355605 31.42604225 49.39275437 35.06624647 44.80078125 38.77734375 C38.94541572 42.784639 35.23766339 44.14610252 28.1484375 44.09765625 C27.37440582 44.0962413 26.60037415 44.09482635 25.80288696 44.09336853 C23.32688558 44.08776403 20.85097412 44.07521083 18.375 44.0625 C16.69791797 44.05748558 15.02083453 44.05292257 13.34375 44.04882812 C9.22913194 44.03779315 5.11458122 44.02052554 1 44 C1.62253662 43.53376221 2.24507324 43.06752441 2.88647461 42.5871582 C10.51966816 37.04815046 10.51966816 37.04815046 15 29 C15.85523025 20.36337899 14.90595891 14.62800864 10.3125 7.3125 C7.26652721 4.26652721 3.91850369 2.7024567 0 1 C0 0.67 0 0.34 0 0 Z " fill="#F1B711" transform="translate(266,54)"/>
<path d="M0 0 C6.2770137 0.11208953 9.40730974 1.55669597 14.140625 5.625 C20.0434564 13.16475103 22.28651704 23.44880391 25.23828125 32.4296875 C25.7280564 33.91184326 26.21798313 35.39394894 26.70805359 36.87600708 C27.72737917 39.96280877 28.74291476 43.05082733 29.75610352 46.13964844 C31.05599204 50.10051653 32.36844117 54.05709948 33.68404865 58.0127697 C34.69643414 61.06302794 35.70068784 64.11591682 36.70262718 67.16962051 C37.18340238 68.63063105 37.66707276 70.09069215 38.1536808 71.54977036 C38.83013448 73.58111603 39.49519777 75.61584997 40.1574707 77.65185547 C40.72894585 79.38651566 40.72894585 79.38651566 41.31196594 81.15621948 C42 84 42 84 41 87 C35.12260871 82.11697099 29.73410089 76.81146421 24.39379883 71.35668945 C21.48866386 68.29911121 21.48866386 68.29911121 18 66 C17.29602314 63.86692559 16.70086768 61.69776709 16.15234375 59.51953125 C15.97960937 58.84685715 15.806875 58.17418304 15.62890625 57.48112488 C15.25458264 56.02266298 14.88361632 54.56333628 14.51559448 53.10327148 C13.53992397 49.23705541 12.53785217 45.37779466 11.53125 41.51953125 C11.32547836 40.73047394 11.11970673 39.94141663 10.90769958 39.12844849 C8.43171994 29.71899464 5.60629329 20.41814622 2.74389648 11.12036133 C2.38368408 9.94626709 2.02347168 8.77217285 1.65234375 7.5625 C1.33257568 6.53253906 1.01280762 5.50257813 0.68334961 4.44140625 C0 2 0 2 0 0 Z " fill="#F6AF80" transform="translate(124,233)"/>
<path d="M0 0 C-0.54387792 6.93620936 -2.04746913 13.02157408 -4.1875 19.625 C-6.76616466 27.82771153 -9.15764554 36.05050705 -11.3125 44.375 C-11.55444092 45.30650879 -11.79638184 46.23801758 -12.0456543 47.19775391 C-12.27422119 48.08897949 -12.50278809 48.98020508 -12.73828125 49.8984375 C-12.95822754 50.75405273 -13.17817383 51.60966797 -13.40478516 52.49121094 C-13.7971662 54.14506966 -14.14197222 55.81104218 -14.43505859 57.48535156 C-15.40312503 62.93395775 -16.66715173 65.29842764 -21 69 C-22.46185509 70.46532002 -23.91258898 71.94177281 -25.35546875 73.42578125 C-26.96602641 75.05480558 -28.57670653 76.68370884 -30.1875 78.3125 C-31.00669922 79.14845703 -31.82589844 79.98441406 -32.66992188 80.84570312 C-33.45302734 81.63525391 -34.23613281 82.42480469 -35.04296875 83.23828125 C-35.75477295 83.96055908 -36.46657715 84.68283691 -37.19995117 85.42700195 C-39 87 -39 87 -41 87 C-38.86413462 77.91480912 -36.24103202 69.0298374 -33.39453125 60.14453125 C-33.17558386 59.46068548 -32.95663647 58.77683971 -32.73105431 58.07227135 C-31.57317765 54.46151323 -30.40914122 50.85279985 -29.2409668 47.24536133 C-28.28493844 44.28862222 -27.34224597 41.32812634 -26.41088867 38.36352539 C-25.27379173 34.74428811 -24.11394878 31.13308294 -22.93802452 27.52628136 C-22.4985161 26.16582959 -22.06668774 24.80286838 -21.64325905 23.43732643 C-19.00087714 14.94254617 -16.08722937 7.71600032 -9 2 C-5.5971229 0.3215526 -3.89268382 0 0 0 Z " fill="#F6AF80" transform="translate(387,233)"/>
<path d="M0 0 C10.04464286 0.66964286 10.04464286 0.66964286 15 4 C14.72905518 4.88014771 14.72905518 4.88014771 14.45263672 5.77807617 C13.90644744 7.55517526 13.36202125 9.33281669 12.81884766 11.11083984 C12.18180912 13.18739432 11.53809049 15.26190961 10.88818359 17.33447266 C9.31761588 22.39826586 7.85689958 27.40855878 6.796875 32.60546875 C3.74623037 46.79759811 -3.13208088 56.39353297 -15 65 C-15.66 65 -16.32 65 -17 65 C-15.57276982 58.41999981 -14.00546098 51.89154722 -12.3125 45.375 C-11.92819824 43.89350464 -11.92819824 43.89350464 -11.53613281 42.38208008 C-9.36760929 34.14728772 -6.9406587 26.00497663 -4.3605957 17.89013672 C-2.50463326 11.97958541 -1.08817896 6.09922666 0 0 Z " fill="#DB9975" transform="translate(387,232)"/>
<path d="M0 0 C0.13281372 0.79567383 0.13281372 0.79567383 0.26831055 1.60742188 C1.67571202 9.31982248 3.88932062 16.76409298 6.14071655 24.26095581 C7.0484791 27.28651481 7.94435143 30.31555094 8.84083557 33.34446716 C9.49613687 35.55821349 10.15270265 37.77158128 10.80957031 39.98486328 C12.28633487 44.96415039 13.75877165 49.94417739 15.1875 54.9375 C15.39544189 55.63875 15.60338379 56.34 15.81762695 57.0625 C16.73118901 60.29376444 17.09022468 61.72932597 16 65 C15.5875 64.57589844 15.175 64.15179688 14.75 63.71484375 C10.92166888 59.82669496 6.97943876 56.18076968 2.796875 52.67578125 C-1.73281452 48.45135342 -3.15628359 44.02342361 -4.8828125 38.21875 C-5.14254852 37.36825073 -5.40228455 36.51775146 -5.66989136 35.64147949 C-6.49587349 32.92989718 -7.31044192 30.21503323 -8.125 27.5 C-8.68026806 25.67295764 -9.23624989 23.84613205 -9.79296875 22.01953125 C-10.81038208 18.67118731 -11.82609647 15.32236853 -12.83251953 11.97070312 C-13.13538376 10.96287781 -13.13538376 10.96287781 -13.44436646 9.93469238 C-14.00965554 7.96637981 -14.51503623 5.98948475 -15 4 C-9.70610571 0.61778976 -6.26548367 -0.14239736 0 0 Z " fill="#DB9975" transform="translate(125,232)"/>
<path d="M0 0 C5.44799814 0.43583985 8.76122851 1.51478789 13 5 C17.04070336 9.84884403 18.36959515 15.04547794 20 21 C21.51645606 26.17338547 23.09830601 31.32664102 24.692276 36.47659302 C25.50849689 39.11858363 26.31790857 41.76263734 27.12646484 44.40698242 C27.54628998 45.77412639 27.96920261 47.14032562 28.39501953 48.50561523 C29.01630591 50.50003455 29.62639936 52.49758285 30.234375 54.49609375 C30.59756836 55.67357178 30.96076172 56.8510498 31.33496094 58.06420898 C32 61 32 61 31 64 C30.35933594 63.32453125 29.71867187 62.6490625 29.05859375 61.953125 C27.76115234 60.61507812 27.76115234 60.61507812 26.4375 59.25 C25.59058594 58.36828125 24.74367188 57.4865625 23.87109375 56.578125 C21.10321568 53.84395831 21.10321568 53.84395831 17.50708008 52.35644531 C13.75956506 50.25038554 12.78359773 48.10533084 11.60675049 44.06091309 C11.41167908 43.28799927 11.21660767 42.51508545 11.015625 41.71875 C10.78848816 40.90942017 10.56135132 40.10009033 10.32733154 39.26623535 C9.60919013 36.68375636 8.9293728 34.09291536 8.25 31.5 C7.77980779 29.7883837 7.30717306 28.07743641 6.83203125 26.3671875 C4.41742278 17.61375649 2.14581779 8.82317625 0 0 Z " fill="#F6AF80" transform="translate(91,215)"/>
<path d="M0 0 C5.98993047 -0.3152595 9.63560356 0.31780178 15 3 C14.38130402 9.48720932 12.37267501 15.29925405 10.25 21.4375 C7.22725789 30.21842281 7.22725789 30.21842281 4.5 39.09375 C4.17660645 40.20858765 4.17660645 40.20858765 3.84667969 41.34594727 C3.28659733 43.30921468 2.74423258 45.27751209 2.203125 47.24609375 C1 50 1 50 -0.8125 50.90625 C-3.29898839 51.01281379 -5.76062362 51.09525495 -8.25 51.0625 C-9.14203125 51.05347656 -10.0340625 51.04445313 -10.953125 51.03515625 C-11.62859375 51.02355469 -12.3040625 51.01195312 -13 51 C-12.32317764 44.64143203 -10.58395233 38.73801325 -8.75 32.625 C-8.43861084 31.57094971 -8.12722168 30.51689941 -7.80639648 29.4309082 C-6.35871521 24.53480926 -4.89348262 19.64403327 -3.42578125 14.75390625 C-3.19342773 13.97515137 -2.96107422 13.19639648 -2.72167969 12.39404297 C-2.29275744 10.95826545 -1.86001342 9.52362226 -1.42285156 8.09033203 C-0.57998925 5.27339746 0 2.96056173 0 0 Z " fill="#DC9975" transform="translate(420,214)"/>
<path d="M0 0 C0.08636719 0.6084375 0.17273438 1.216875 0.26171875 1.84375 C1.52294859 9.71197284 3.81866367 17.11927298 6.25732422 24.67724609 C7.64692656 29.02329366 8.98358156 33.38508105 10.3125 37.75 C10.57901367 38.60779053 10.84552734 39.46558105 11.12011719 40.34936523 C11.36536133 41.15704346 11.61060547 41.96472168 11.86328125 42.796875 C12.08282471 43.51198242 12.30236816 44.22708984 12.52856445 44.96386719 C13 47 13 47 13 51 C8.71 51 4.42 51 0 51 C-1.49535662 46.53900707 -2.9885762 42.07730607 -4.47998047 37.61499023 C-4.98560571 36.1030842 -5.49177332 34.59135943 -5.99853516 33.07983398 C-7.45326637 28.74012593 -8.89821041 24.3974047 -10.32641602 20.04888916 C-10.76801096 18.70565787 -11.2117825 17.36313976 -11.65795898 16.02142334 C-12.25511499 14.21912215 -12.8388805 12.41240048 -13.421875 10.60546875 C-13.7528418 9.5899292 -14.08380859 8.57438965 -14.42480469 7.52807617 C-15 5 -15 5 -14 2 C-9.24983365 -0.2012966 -5.11918146 -0.1765235 0 0 Z " fill="#DB9975" transform="translate(92,214)"/>
</svg>
