<?xml version="1.0" encoding="UTF-8"?>
<svg version="1.1" xmlns="http://www.w3.org/2000/svg" width="512" height="512">
<path d="M0 0 C3.50243293 2.84282354 6.74818417 5.87802074 10 9 C11.3084403 10.08823313 12.62081897 11.17175215 13.9375 12.25 C40.7857525 35.80299415 55.13674954 72.07099549 58 107 C60.21096451 140.83565336 50.4728298 171.28332504 33 200 C35.662342 202.69181275 38.33066667 205.37762147 41 208.0625 C41.74378906 208.81466797 42.48757813 209.56683594 43.25390625 210.34179688 C46.73352571 213.83654512 50.22743075 217.25396257 53.96875 220.46875 C58.71762008 224.5539325 63.09606507 228.98694361 67.5 233.4375 C68.32242187 234.26443359 69.14484375 235.09136719 69.9921875 235.94335938 C71.99712113 237.95994959 73.99966253 239.97885236 76 242 C76.53544434 241.71632568 77.07088867 241.43265137 77.62255859 241.14038086 C78.68724365 240.58942749 78.68724365 240.58942749 79.7734375 240.02734375 C80.47388184 239.66116943 81.17432617 239.29499512 81.89599609 238.91772461 C86.03984681 237.11025944 89.53771069 237.44951609 93.6875 239.01171875 C98.28989826 241.77424318 101.67256073 245.39603741 105.375 249.25 C111.37751695 255.4564493 111.37751695 255.4564493 117.7578125 261.265625 C124.25306779 266.84121228 130.14322012 273.08922639 136.15478516 279.17529297 C141.58621472 284.66794897 146.99990533 290.10163647 152.88183594 295.11767578 C157.34239587 299.08158969 161.52946184 303.34351981 165.74755859 307.56225586 C167.3875231 309.20000619 169.03536992 310.82955137 170.68359375 312.45898438 C171.73486283 313.50732354 172.78566147 314.5561347 173.8359375 315.60546875 C174.57026505 316.32901802 174.57026505 316.32901802 175.31942749 317.06718445 C179.79906602 321.57714512 181.17669112 324.42206428 181.4609375 330.8046875 C179.06894676 342.1970502 162.87224999 354.2416201 154.9375 362.25 C154.10404053 363.09651123 153.27058105 363.94302246 152.41186523 364.81518555 C151.62497314 365.60320557 150.83808105 366.39122559 150.02734375 367.203125 C149.32343506 367.91114258 148.61952637 368.61916016 147.89428711 369.34863281 C145.03498913 371.84125964 142.3561824 372.19211146 138.6875 372.3125 C137.94886719 372.34988281 137.21023438 372.38726562 136.44921875 372.42578125 C130.61369077 371.41131147 126.57967868 366.78714491 122.625 362.6875 C119.66320068 359.62522666 116.70507523 356.71718514 113.4609375 353.95703125 C106.70182306 348.11133225 100.54976488 341.60377565 94.27246094 335.25195312 C88.72889684 329.64850971 83.22810481 324.09648952 77.22558594 318.98095703 C72.1493036 314.46264254 67.36277266 309.62756223 62.54345703 304.83862305 C61.25816292 303.56494206 59.96839071 302.29576509 58.67431641 301.03100586 C56.78601989 299.18533294 54.91128637 297.3268021 53.0390625 295.46484375 C52.46201569 294.90530502 51.88496887 294.3457663 51.29043579 293.76927185 C47.95395218 290.41452982 46.03241836 287.75729469 45 283 C45.27158763 277.93036424 46.67761227 274.45698131 49 270 C45.83760418 266.80823908 42.66931241 263.6223919 39.5 260.4375 C38.613125 259.54224609 37.72625 258.64699219 36.8125 257.72460938 C32.29983806 253.19535677 27.7383772 248.82076529 22.88476562 244.65991211 C19.61004564 241.77586791 16.56288319 238.66810581 13.5 235.5625 C12.86835938 234.92634766 12.23671875 234.29019531 11.5859375 233.63476562 C10.05494226 232.09217194 8.52712333 230.54642686 7 229 C6.52183838 229.3700415 6.04367676 229.74008301 5.55102539 230.12133789 C-28.178098 255.86854205 -67.24591424 266.53158957 -109.32714844 261.37109375 C-146.94228377 256.14867818 -181.36328891 235.04845664 -204.30078125 204.984375 C-227.80792344 172.01753655 -237.67927646 132.92955516 -231.47192383 92.70019531 C-227.41614442 69.23540294 -218.03186219 46.56843046 -203 28 C-202.57251465 27.45730469 -202.1450293 26.91460937 -201.70458984 26.35546875 C-191.55673772 13.51179966 -179.93868987 2.6697559 -166 -6 C-165.39317383 -6.37753418 -164.78634766 -6.75506836 -164.16113281 -7.14404297 C-113.11943704 -38.37401845 -48.3325221 -34.45006316 0 0 Z " fill="#EBEEF0" transform="translate(296,98)"/>
<path d="M0 0 C3.50243293 2.84282354 6.74818417 5.87802074 10 9 C11.3084403 10.08823313 12.62081897 11.17175215 13.9375 12.25 C40.7857525 35.80299415 55.13674954 72.07099549 58 107 C60.21096451 140.83565336 50.4728298 171.28332504 33 200 C35.662342 202.69181275 38.33066667 205.37762147 41 208.0625 C41.74378906 208.81466797 42.48757813 209.56683594 43.25390625 210.34179688 C46.73352571 213.83654512 50.22743075 217.25396257 53.96875 220.46875 C58.71762008 224.5539325 63.09606507 228.98694361 67.5 233.4375 C68.32242187 234.26443359 69.14484375 235.09136719 69.9921875 235.94335938 C71.99712113 237.95994959 73.99966253 239.97885236 76 242 C76.53544434 241.71632568 77.07088867 241.43265137 77.62255859 241.14038086 C78.68724365 240.58942749 78.68724365 240.58942749 79.7734375 240.02734375 C80.47388184 239.66116943 81.17432617 239.29499512 81.89599609 238.91772461 C86.03984681 237.11025944 89.53771069 237.44951609 93.6875 239.01171875 C98.28989826 241.77424318 101.67256073 245.39603741 105.375 249.25 C111.37751695 255.4564493 111.37751695 255.4564493 117.7578125 261.265625 C124.25306779 266.84121228 130.14322012 273.08922639 136.15478516 279.17529297 C141.58621472 284.66794897 146.99990533 290.10163647 152.88183594 295.11767578 C157.34239587 299.08158969 161.52946184 303.34351981 165.74755859 307.56225586 C167.3875231 309.20000619 169.03536992 310.82955137 170.68359375 312.45898438 C171.73486283 313.50732354 172.78566147 314.5561347 173.8359375 315.60546875 C174.57026505 316.32901802 174.57026505 316.32901802 175.31942749 317.06718445 C179.79906602 321.57714512 181.17669112 324.42206428 181.4609375 330.8046875 C179.06894676 342.1970502 162.87224999 354.2416201 154.9375 362.25 C154.10404053 363.09651123 153.27058105 363.94302246 152.41186523 364.81518555 C151.62497314 365.60320557 150.83808105 366.39122559 150.02734375 367.203125 C149.32343506 367.91114258 148.61952637 368.61916016 147.89428711 369.34863281 C145.03498913 371.84125964 142.3561824 372.19211146 138.6875 372.3125 C137.94886719 372.34988281 137.21023438 372.38726562 136.44921875 372.42578125 C130.61369077 371.41131147 126.57967868 366.78714491 122.625 362.6875 C119.66320068 359.62522666 116.70507523 356.71718514 113.4609375 353.95703125 C106.70182306 348.11133225 100.54976488 341.60377565 94.27246094 335.25195312 C88.72889684 329.64850971 83.22810481 324.09648952 77.22558594 318.98095703 C72.1493036 314.46264254 67.36277266 309.62756223 62.54345703 304.83862305 C61.25816292 303.56494206 59.96839071 302.29576509 58.67431641 301.03100586 C56.78601989 299.18533294 54.91128637 297.3268021 53.0390625 295.46484375 C52.46201569 294.90530502 51.88496887 294.3457663 51.29043579 293.76927185 C47.95395218 290.41452982 46.03241836 287.75729469 45 283 C45.27158763 277.93036424 46.67761227 274.45698131 49 270 C45.83760418 266.80823908 42.66931241 263.6223919 39.5 260.4375 C38.613125 259.54224609 37.72625 258.64699219 36.8125 257.72460938 C32.29983806 253.19535677 27.7383772 248.82076529 22.88476562 244.65991211 C19.61004564 241.77586791 16.56288319 238.66810581 13.5 235.5625 C12.86835938 234.92634766 12.23671875 234.29019531 11.5859375 233.63476562 C10.05494226 232.09217194 8.52712333 230.54642686 7 229 C6.52183838 229.3700415 6.04367676 229.74008301 5.55102539 230.12133789 C-28.178098 255.86854205 -67.24591424 266.53158957 -109.32714844 261.37109375 C-146.94228377 256.14867818 -181.36328891 235.04845664 -204.30078125 204.984375 C-227.80792344 172.01753655 -237.67927646 132.92955516 -231.47192383 92.70019531 C-227.41614442 69.23540294 -218.03186219 46.56843046 -203 28 C-202.57251465 27.45730469 -202.1450293 26.91460937 -201.70458984 26.35546875 C-191.55673772 13.51179966 -179.93868987 2.6697559 -166 -6 C-165.39317383 -6.37753418 -164.78634766 -6.75506836 -164.16113281 -7.14404297 C-113.11943704 -38.37401845 -48.3325221 -34.45006316 0 0 Z M-169 32 C-169.82242188 32.75925781 -170.64484375 33.51851562 -171.4921875 34.30078125 C-190.42796476 52.32221413 -203.55025469 78.80407502 -205.19287109 105.0859375 C-206.02269989 138.96306949 -199.29605113 167.59678156 -177 194 C-176.33484375 194.81210937 -175.6696875 195.62421875 -174.984375 196.4609375 C-156.88298611 217.7133089 -128.74496577 231.81483427 -101.07275391 234.83666992 C-68.92428607 237.36992375 -37.16143364 228.84881277 -12.38671875 207.77734375 C-9.88111439 205.56070135 -7.43371752 203.29511384 -5 201 C-4.32324219 200.38769531 -3.64648438 199.77539062 -2.94921875 199.14453125 C17.22926006 180.17918744 29.20923807 150.60364454 30.28125 123.19140625 C31.0287149 90.41754449 20.76750364 60.32919898 -1.85400391 36.24169922 C-3.22428291 34.81643842 -4.61190988 33.40791998 -6 32 C-6.77859375 31.20851562 -7.5571875 30.41703125 -8.359375 29.6015625 C-29.33604866 9.53997863 -59.56497331 -0.82075669 -88.25 -1.3125 C-118.94618106 -0.41808913 -146.75965071 10.65355542 -169 32 Z " fill="#8AC9FD" transform="translate(296,98)"/>
<path d="M0 0 C8.13004243 4.73455412 12.08184917 13.37859959 16.49853516 21.31835938 C19.36109206 26.43093254 22.31580254 31.49083005 25.25 36.5625 C26.54837499 38.81629225 27.84655094 41.07019918 29.14453125 43.32421875 C32.71854516 49.5217395 36.32426895 55.70028863 39.9375 61.875 C47.07014247 74.0722467 54.08245824 86.33697336 61.06933594 98.61816406 C62.44640882 101.03030538 63.82937355 103.43832312 65.21972656 105.84277344 C65.58619293 106.4784726 65.9526593 107.11417175 66.33023071 107.76913452 C67.03648782 108.99374437 67.74486126 110.21713689 68.45565796 111.43911743 C72.5525102 118.55473018 72.74667321 124.89078168 72 133 C69.88011892 140.35024187 65.37424773 145.84240243 59 150 C52.535897 153.55166919 46.60956991 153.43791766 39.33862305 153.41992188 C38.07594604 153.42839142 36.81326904 153.43686096 35.5123291 153.44558716 C32.06377565 153.46772129 28.61546172 153.47073786 25.16684699 153.46883965 C22.27946558 153.46871954 19.39213418 153.47730013 16.50476676 153.48561716 C9.68714423 153.50482298 2.86964412 153.50774577 -3.94799805 153.50097656 C-10.96057593 153.49434135 -17.97262708 153.51718515 -24.98509818 153.55429029 C-31.02359284 153.58507208 -37.06191881 153.59633809 -43.10049027 153.59245348 C-46.69915189 153.59039428 -50.29740367 153.59573515 -53.89599037 153.62034607 C-57.9144898 153.64692289 -61.93189049 153.63282123 -65.95043945 153.61523438 C-67.12843613 153.62849762 -68.3064328 153.64176086 -69.52012634 153.65542603 C-77.97907907 153.56968949 -84.79713862 151.87424179 -91.14214039 146.02535248 C-96.85716476 139.97611273 -99.13774081 134.68413199 -99.625 126.4375 C-99.37798422 118.01249749 -96.17171175 112.05225492 -92 105 C-90.98055857 103.23246946 -89.96242827 101.46418235 -88.9453125 99.6953125 C-86.58515316 95.61117198 -84.2037991 91.54024292 -81.80859375 87.4765625 C-78.02100967 81.04826352 -74.28575037 74.59072309 -70.5625 68.125 C-69.63171631 66.51044922 -69.63171631 66.51044922 -68.68212891 64.86328125 C-65.51046502 59.36103054 -62.3422919 53.85678015 -59.17578125 48.3515625 C-56.06536377 42.94487702 -52.94217338 37.54569354 -49.81542969 32.1484375 C-48.00136726 29.0023712 -46.20681941 25.84574501 -44.4140625 22.6875 C-43.27653246 20.70805121 -42.13853353 18.72887178 -41 16.75 C-40.24468994 15.40180176 -40.24468994 15.40180176 -39.47412109 14.02636719 C-31.05745198 -0.48743851 -15.89669186 -7.77741376 0 0 Z " fill="#FD646F" transform="translate(222,120)"/>
<path d="M0 0 C3.02977429 1.35231187 5.08472613 2.85480543 7.390625 5.23046875 C8.01839844 5.86919922 8.64617187 6.50792969 9.29296875 7.16601562 C10.26169922 8.16665039 10.26169922 8.16665039 11.25 9.1875 C15.02174428 13.06337219 18.7857865 16.87276221 22.890625 20.3984375 C27.66489378 24.50870815 32.07097992 28.9615929 36.5 33.4375 C37.32242188 34.26443359 38.14484375 35.09136719 38.9921875 35.94335938 C40.99712113 37.95994959 42.99966253 39.97885236 45 42 C45.8031665 41.57448853 45.8031665 41.57448853 46.62255859 41.14038086 C47.33234863 40.77307861 48.04213867 40.40577637 48.7734375 40.02734375 C49.47388184 39.66116943 50.17432617 39.29499512 50.89599609 38.91772461 C55.03984681 37.11025944 58.53771069 37.44951609 62.6875 39.01171875 C67.28989826 41.77424318 70.67256073 45.39603741 74.375 49.25 C80.37751695 55.4564493 80.37751695 55.4564493 86.7578125 61.265625 C93.25306779 66.84121228 99.14322012 73.08922639 105.15478516 79.17529297 C110.58621472 84.66794897 115.99990533 90.10163647 121.88183594 95.11767578 C126.34239587 99.08158969 130.52946184 103.34351981 134.74755859 107.56225586 C136.3875231 109.20000619 138.03536992 110.82955137 139.68359375 112.45898438 C140.73486283 113.50732354 141.78566147 114.5561347 142.8359375 115.60546875 C143.3254892 116.08783493 143.81504089 116.57020111 144.31942749 117.06718445 C148.79906602 121.57714512 150.17669112 124.42206428 150.4609375 130.8046875 C148.06894676 142.1970502 131.87224999 154.2416201 123.9375 162.25 C123.10404053 163.09651123 122.27058105 163.94302246 121.41186523 164.81518555 C120.2315271 165.99721558 120.2315271 165.99721558 119.02734375 167.203125 C118.32343506 167.91114258 117.61952637 168.61916016 116.89428711 169.34863281 C114.03498913 171.84125964 111.3561824 172.19211146 107.6875 172.3125 C106.94886719 172.34988281 106.21023438 172.38726562 105.44921875 172.42578125 C99.61369077 171.41131147 95.57967868 166.78714491 91.625 162.6875 C88.66320068 159.62522666 85.70507523 156.71718514 82.4609375 153.95703125 C75.70182306 148.11133225 69.54976488 141.60377565 63.27246094 135.25195312 C57.72889684 129.64850971 52.22810481 124.09648952 46.22558594 118.98095703 C41.1493036 114.46264254 36.36277266 109.62756223 31.54345703 104.83862305 C30.25816292 103.56494206 28.96839071 102.29576509 27.67431641 101.03100586 C25.78601989 99.18533294 23.91128637 97.3268021 22.0390625 95.46484375 C21.46201569 94.90530502 20.88496887 94.3457663 20.29043579 93.76927185 C16.95395218 90.41452982 15.03241836 87.75729469 14 83 C14.27158763 77.93036424 15.67761227 74.45698131 18 70 C14.83760418 66.80823908 11.66931241 63.6223919 8.5 60.4375 C7.613125 59.54224609 6.72625 58.64699219 5.8125 57.72460938 C1.29983806 53.19535677 -3.2616228 48.82076529 -8.11523438 44.65991211 C-11.38995436 41.77586791 -14.43711681 38.66810581 -17.5 35.5625 C-18.13164062 34.92634766 -18.76328125 34.29019531 -19.4140625 33.63476562 C-20.94505774 32.09217194 -22.47287667 30.54642686 -24 29 C-22.10036577 24.8240462 -19.22144717 22.11981976 -15.9375 19 C-9.8791442 13.11717533 -4.82859564 6.92473018 0 0 Z " fill="#F0B984" transform="translate(327,298)"/>
<path d="M0 0 C35.11536932 -1.29259028 71.84113852 8.71898234 98.5 32.6875 C100.00119527 34.12375172 101.50130275 35.56114184 103 37 C104.3084403 38.08823313 105.62081897 39.17175215 106.9375 40.25 C133.7857525 63.80299415 148.13674954 100.07099549 151 135 C152.69107192 160.87943985 147.90875686 186.90422912 136 210 C135.23429687 211.5778125 135.23429687 211.5778125 134.453125 213.1875 C128.02225392 225.92674938 118.76721701 236.68297276 109 247 C108.56107422 247.47147461 108.12214844 247.94294922 107.66992188 248.42871094 C81.54061029 276.35691115 45.24891108 289.46153759 7.55859375 290.88671875 C6.38425781 290.92410156 5.20992187 290.96148437 4 291 C3.67 290.34 3.34 289.68 3 289 C3.65258789 288.91548584 4.30517578 288.83097168 4.97753906 288.74389648 C43.98265459 283.52841387 78.67230081 267.00074645 104 236 C114.23500461 222.50759393 122.28874103 207.93960458 128 192 C128.2482251 191.30801514 128.4964502 190.61603027 128.75219727 189.90307617 C140.89937161 154.93834347 136.91357397 114.11102826 121 81 C104.22613803 47.68124181 75.43871285 21.69844306 40.27734375 9.05078125 C27.06767383 4.81549971 13.73728929 2.73920174 0 1 C0 0.67 0 0.34 0 0 Z " fill="#61B7FE" transform="translate(203,70)"/>
<path d="M0 0 C0 0.33 0 0.66 0 1 C-1.01815796 1.18006592 -1.01815796 1.18006592 -2.05688477 1.36376953 C-15.28806957 3.74459889 -27.83215608 6.09747938 -40 12 C-40.61488281 12.29245605 -41.22976562 12.58491211 -41.86328125 12.88623047 C-69.37713066 26.11781436 -90.35173598 49.61160613 -101.12890625 78.20703125 C-107.93023063 100.01396815 -110.36619397 124.83889298 -104 147 C-103.80664062 147.69077637 -103.61328125 148.38155273 -103.4140625 149.09326172 C-98.63559821 165.82157384 -91.04287927 180.54404712 -80 194 C-79.42765625 194.72445312 -78.8553125 195.44890625 -78.265625 196.1953125 C-73.52978295 201.94597785 -67.88815283 206.47317499 -62 211 C-61.21882813 211.6084375 -60.43765625 212.216875 -59.6328125 212.84375 C-41.02938834 226.6240642 -19.72525349 232.8749763 3 235 C3 235.33 3 235.66 3 236 C-28.65447081 236.83545524 -57.22972097 229.6590294 -82 209 C-82.98355469 208.19175781 -83.96710938 207.38351562 -84.98046875 206.55078125 C-101.54664389 192.21343175 -113.58119987 172.88281818 -120 152 C-120.21172852 151.31437988 -120.42345703 150.62875977 -120.64160156 149.92236328 C-129.60482389 119.28973419 -124.14673508 87.09076389 -109.2277832 59.48339844 C-99.0880866 41.49596729 -83.86285177 26.2670091 -66 16 C-65.37544922 15.63825684 -64.75089844 15.27651367 -64.10742188 14.90380859 C-44.20346852 3.61979812 -22.72523977 -0.63914737 0 0 Z " fill="#D0D1D7" transform="translate(215,97)"/>
<path d="M0 0 C3.02977429 1.35231187 5.08472613 2.85480543 7.390625 5.23046875 C8.01839844 5.86919922 8.64617187 6.50792969 9.29296875 7.16601562 C10.26169922 8.16665039 10.26169922 8.16665039 11.25 9.1875 C15.01224648 13.05361218 18.76643833 16.85641136 22.859375 20.375 C27.79699906 24.62831414 32.3918686 29.20790787 37 33.8125 C37.87011719 34.67037109 38.74023438 35.52824219 39.63671875 36.41210938 C40.86841797 37.6409082 40.86841797 37.6409082 42.125 38.89453125 C42.87007813 39.63550049 43.61515625 40.37646973 44.3828125 41.13989258 C46 43 46 43 46 45 C44.38036296 46.71240515 42.70403657 48.37156058 41 50 C40.17653076 50.82346924 39.35306152 51.64693848 38.50463867 52.49536133 C32.33642578 58.66357422 26.16821289 64.83178711 20 71 C14.9146247 66.75236992 10.20006132 62.29081829 5.5625 57.5625 C-0.08485609 51.82454399 -0.08485609 51.82454399 -6.0625 46.4375 C-8.66766813 44.20185684 -11.1613796 41.90271225 -13.58984375 39.4765625 C-14.55361938 38.51472046 -14.55361938 38.51472046 -15.53686523 37.53344727 C-18.36407034 34.694991 -21.18500851 31.85057425 -24 29 C-22.10036577 24.8240462 -19.22144717 22.11981976 -15.9375 19 C-9.8791442 13.11717533 -4.82859564 6.92473018 0 0 Z " fill="#A69BA6" transform="translate(327,298)"/>
<path d="M0 0 C5.37846098 -0.32270766 8.40674253 0.19483204 13 3 C15.93807912 5.61019155 18.65329273 8.41690613 21.375 11.25 C27.37751695 17.4564493 27.37751695 17.4564493 33.7578125 23.265625 C40.25306779 28.84121228 46.14322012 35.08922639 52.15478516 41.17529297 C57.58621472 46.66794897 62.99990533 52.10163647 68.88183594 57.11767578 C73.34239587 61.08158969 77.52946184 65.34351981 81.74755859 69.56225586 C83.3875231 71.20000619 85.03536992 72.82955137 86.68359375 74.45898438 C87.73486283 75.50732354 88.78566147 76.5561347 89.8359375 77.60546875 C90.3254892 78.08783493 90.81504089 78.57020111 91.31942749 79.06718445 C95.79906602 83.57714512 97.17669112 86.42206428 97.4609375 92.8046875 C95.06894676 104.1970502 78.87224999 116.2416201 70.9375 124.25 C70.10404053 125.09651123 69.27058105 125.94302246 68.41186523 126.81518555 C67.2315271 127.99721558 67.2315271 127.99721558 66.02734375 129.203125 C65.32343506 129.91114258 64.61952637 130.61916016 63.89428711 131.34863281 C60.84607793 134.00594521 58.19182132 134.11872205 54.3125 134.0625 C53.50425781 134.05347656 52.69601562 134.04445313 51.86328125 134.03515625 C50.94095703 134.01775391 50.94095703 134.01775391 50 134 C50 131 50 131 52.1184082 128.68969727 C53.54479614 127.35829712 53.54479614 127.35829712 55 126 C55.97751266 125.03973501 56.95162036 124.07599381 57.92260742 123.10913086 C58.69316719 122.34825417 58.69316719 122.34825417 59.47929382 121.57200623 C61.78179416 119.29642561 64.0788423 117.01537245 66.37573242 114.73413086 C67.58718201 113.53280253 68.80041125 112.33326627 70.01538086 111.13549805 C71.77931525 109.39582162 73.53671053 107.64976494 75.29296875 105.90234375 C75.83567917 105.3699559 76.37838959 104.83756805 76.93754578 104.28904724 C81.17062351 100.05723764 83.2813618 97.13657237 83.375 91.125 C83.40335937 90.30257812 83.43171875 89.48015625 83.4609375 88.6328125 C82.33669874 82.21131312 77.25859044 78.13272943 72.625 74 C64.74949005 66.82728622 57.24552676 59.30849045 49.76611328 51.72851562 C44.11447925 46.02457201 44.11447925 46.02457201 38.15234375 40.65234375 C31.47712287 34.93639559 25.44512909 28.49789773 19.27246094 22.25195312 C17.57961861 20.5408254 15.88416629 18.83233559 14.1875 17.125 C13.64818848 16.58029053 13.10887695 16.03558105 12.55322266 15.47436523 C8.98222571 11.89621529 5.28875811 8.57084909 1.29296875 5.46484375 C0 4 0 4 0 0 Z " fill="#E4A870" transform="translate(380,336)"/>
<path d="M0 0 C7.01692894 -0.5176423 12.17853321 -0.1216328 18 4 C24.02861449 9.73468734 27.97823086 16.67131447 32 23.875 C32.98549816 25.61168207 33.97101075 27.34835614 34.95739746 29.08453369 C35.97306426 30.874792 36.98484023 32.6672067 37.99609375 34.45996094 C41.12388813 39.9963991 44.31562463 45.49598632 47.5 51 C48.75029156 53.16649843 50.00029084 55.33316557 51.25 57.5 C52.178125 59.10875 52.178125 59.10875 53.125 60.75 C55 64 56.875 67.25 58.75 70.5 C59.67969604 72.11128784 59.67969604 72.11128784 60.62817383 73.75512695 C61.86802723 75.90445415 63.1074535 78.05402781 64.34643555 80.20385742 C67.27163763 85.27834489 70.20111723 90.35021617 73.14590454 95.4133606 C74.5354863 97.80315668 75.92262172 100.19436836 77.30957031 102.58569336 C78.28863253 104.27140589 79.27122606 105.95506587 80.25390625 107.63867188 C81.14335937 109.17297852 81.14335937 109.17297852 82.05078125 110.73828125 C82.57325439 111.63587158 83.09572754 112.53346191 83.6340332 113.45825195 C87.77930552 121.17164428 88.63107095 129.38608138 86.16015625 137.890625 C82.79787915 145.27178551 77.6205043 149.84162244 70.75 153.9375 C65.47626298 155.43172549 60.44354493 155.24133943 55 155 C56.95807282 154.0035585 58.90877853 153.03896302 60.9296875 152.17578125 C67.62797799 149.20324672 71.20025312 145.0595697 74.875 138.8125 C77.71409165 129.19113386 76.22462103 120.24359326 71.68310547 111.45019531 C70.08190078 108.62648766 68.42713089 105.84177188 66.75 103.0625 C65.48232284 100.92622617 64.21542203 98.7894915 62.94921875 96.65234375 C62.29614746 95.55519043 61.64307617 94.45803711 60.97021484 93.32763672 C57.78820148 87.95330684 54.67599322 82.53921894 51.5625 77.125 C50.30350579 74.9400348 49.0443906 72.75513931 47.78515625 70.5703125 C47.16012207 69.48524414 46.53508789 68.40017578 45.89111328 67.28222656 C44.01051894 64.01825673 42.12859454 60.75505811 40.24609375 57.4921875 C39.62710205 56.4192041 39.00811035 55.3462207 38.37036133 54.24072266 C37.12999123 52.09156815 35.88895011 49.94280076 34.6472168 47.79443359 C31.728048 42.74159825 28.81631083 37.68492497 25.93145752 32.61242676 C24.90862368 30.81477741 23.88339067 29.01851794 22.85742188 27.22265625 C21.57007264 24.96757552 20.28725195 22.70990135 19.00976562 20.44921875 C13.30865901 10.18028667 13.30865901 10.18028667 4.1875 3.125 C3.39730469 2.71507813 2.60710937 2.30515625 1.79296875 1.8828125 C1.20128906 1.59148437 0.60960937 1.30015625 0 1 C0 0.67 0 0.34 0 0 Z " fill="#FC4957" transform="translate(207,118)"/>
<path d="M0 0 C2.67515796 2.53671334 2.99440156 3.93972146 3.34057617 7.66699219 C3.34010383 9.12703929 3.32330994 10.58714311 3.29296875 12.046875 C3.28872391 12.81807678 3.28447906 13.58927856 3.28010559 14.3838501 C3.26335383 16.83959315 3.22570939 19.29450629 3.1875 21.75 C3.17244857 23.41795687 3.15876097 25.08592665 3.14648438 26.75390625 C3.11346194 30.83625578 3.06170484 34.91798732 3 39 C4.36934692 38.97643433 4.36934692 38.97643433 5.76635742 38.95239258 C9.1676201 38.9011303 12.56846963 38.86358561 15.9699707 38.83520508 C17.43943782 38.82015934 18.90886034 38.79971762 20.37817383 38.77368164 C22.4957177 38.73711045 24.61266565 38.72023199 26.73046875 38.70703125 C28.63928833 38.68346558 28.63928833 38.68346558 30.58666992 38.65942383 C34.26995833 39.02693598 36.11589031 39.71401252 39 42 C40.56322154 45.67017231 41.2672 47.90690908 40.3125 51.8125 C39 54 39 54 36 56 C33.96450806 56.27415466 33.96450806 56.27415466 31.60791016 56.30639648 C30.72334137 56.32238388 29.83877258 56.33837128 28.92739868 56.35484314 C27.49767227 56.36288719 27.49767227 56.36288719 26.0390625 56.37109375 C24.56498428 56.38463646 24.56498428 56.38463646 23.06112671 56.39845276 C20.98153738 56.41296382 18.9019023 56.42184412 16.82226562 56.42553711 C13.64374675 56.43742986 10.46717134 56.48660454 7.2890625 56.53710938 C5.26823864 56.54657401 3.24740286 56.55380885 1.2265625 56.55859375 C0.27746002 56.57812607 -0.67164246 56.59765839 -1.64950562 56.61778259 C-5.93007575 56.58857962 -8.38099374 56.37397787 -12.09985352 54.12719727 C-14.86811601 49.57128384 -14.69931544 45.64557052 -14.62890625 40.40625 C-14.63131821 39.38196899 -14.63373016 38.35768799 -14.63621521 37.30236816 C-14.63523734 35.14050417 -14.62185809 32.97861495 -14.59692383 30.81689453 C-14.562616 27.51117741 -14.57626888 24.20813408 -14.59570312 20.90234375 C-14.58880448 18.79946781 -14.57913193 16.69659875 -14.56640625 14.59375 C-14.57136612 13.60717407 -14.57632599 12.62059814 -14.58143616 11.60412598 C-14.50629669 7.21779681 -14.42785316 4.69223232 -12.08178711 0.89648438 C-7.91182678 -2.90230205 -5.04137684 -2.25253008 0 0 Z " fill="#A79BA7" transform="translate(49,342)"/>
<path d="M0 0 C1.32685318 -0.02398109 1.32685318 -0.02398109 2.68051147 -0.04844666 C3.63366241 -0.05380936 4.58681335 -0.05917206 5.56884766 -0.06469727 C6.55156647 -0.07372574 7.53428528 -0.08275421 8.54678345 -0.09205627 C10.62637278 -0.10656734 12.70600785 -0.11544763 14.78564453 -0.11914062 C17.96416341 -0.13103337 21.14073882 -0.18020806 24.31884766 -0.23071289 C26.33967152 -0.24017752 28.3605073 -0.24741236 30.38134766 -0.25219727 C31.80500137 -0.28149574 31.80500137 -0.28149574 33.25741577 -0.31138611 C37.5379859 -0.28218314 39.9889039 -0.06758138 43.70776367 2.17919922 C46.47602616 6.73511265 46.30722559 10.66082597 46.23681641 15.90014648 C46.23922836 16.92442749 46.24164032 17.9487085 46.24412537 19.00402832 C46.24314749 21.16589232 46.22976825 23.32778153 46.20483398 25.48950195 C46.17052616 28.79521908 46.18417903 32.09826241 46.20361328 35.40405273 C46.19671463 37.50692868 46.18704209 39.60979773 46.17431641 41.71264648 C46.17927628 42.69922241 46.18423615 43.68579834 46.18934631 44.70227051 C46.11461428 49.06481559 46.02527286 51.61852994 43.72485352 55.40991211 C41.23071547 57.64431003 39.94755023 58.22494185 36.60791016 58.30639648 C33.7673881 57.56245023 32.08685191 56.77034666 29.9777832 54.72729492 C28.03935717 51.30162525 28.23541636 48.08551696 28.31494141 44.25952148 C28.31918625 43.4883197 28.32343109 42.71711792 28.32780457 41.92254639 C28.34455633 39.46680333 28.38220077 37.0118902 28.42041016 34.55639648 C28.43546158 32.88843961 28.44914919 31.22046984 28.46142578 29.55249023 C28.49444821 25.47014071 28.54620531 21.38840916 28.60791016 17.30639648 C27.69501221 17.32210693 26.78211426 17.33781738 25.84155273 17.35400391 C22.44029006 17.40526618 19.03944053 17.44281088 15.63793945 17.47119141 C14.16847233 17.48623714 12.69904981 17.50667886 11.22973633 17.53271484 C9.11219246 17.56928604 6.99524451 17.58616449 4.87744141 17.59936523 C3.60489502 17.61507568 2.33234863 17.63078613 1.02124023 17.64697266 C-2.66204817 17.27946051 -4.50798015 16.59238396 -7.39208984 14.30639648 C-8.95531138 10.63622418 -9.65928985 8.39948741 -8.70458984 4.49389648 C-6.45403997 0.74298003 -4.12441832 0.05642828 0 0 Z " fill="#A79BA7" transform="translate(329.39208984375,41.693603515625)"/>
<path d="M0 0 C1.47339088 -0.00361794 1.47339088 -0.00361794 2.97654724 -0.00730896 C5.04845222 -0.00633138 7.12038359 0.0070409 9.19213867 0.03198242 C12.36401963 0.06632965 15.53312006 0.05262679 18.70507812 0.03320312 C20.72006394 0.04010064 22.73504258 0.04977217 24.75 0.0625 C26.17198448 0.0550602 26.17198448 0.0550602 27.62269592 0.04747009 C34.17416018 0.16477023 34.17416018 0.16477023 37.38256836 2.51196289 C39.07047476 5.0176702 39.66115853 6.60648419 39.80859375 9.62890625 C39.04003038 12.8568724 38.32348252 14.23514696 35.67700195 16.2590332 C32.08966335 17.97224768 29.50629098 17.97085313 25.5390625 17.921875 C24.85805984 17.91763016 24.17705719 17.91338531 23.47541809 17.90901184 C21.31522916 17.89231235 19.15599733 17.85467937 16.99609375 17.81640625 C15.52540417 17.80134799 14.05469986 17.78766159 12.58398438 17.77539062 C8.99188018 17.74243839 5.40033049 17.69071798 1.80859375 17.62890625 C1.82954102 18.66297607 1.85048828 19.6970459 1.87207031 20.76245117 C1.94464663 24.61077953 1.99045692 28.45904779 2.02832031 32.30786133 C2.04839582 33.97137638 2.07566251 35.63482121 2.11035156 37.2980957 C2.15905141 39.69369865 2.18160231 42.08836617 2.19921875 44.484375 C2.21986389 45.22415085 2.24050903 45.9639267 2.26177979 46.72612 C2.2633648 50.4003243 1.92357152 52.4476978 -0.06347656 55.5793457 C-2.55210558 57.97632145 -3.75376059 58.54506123 -7.19140625 58.62890625 C-11.22937122 57.57134399 -13.00463313 56.13814238 -15.19140625 52.62890625 C-15.58581543 50.39723206 -15.58581543 50.39723206 -15.61132812 47.93969727 C-15.62723999 47.01516251 -15.64315186 46.09062775 -15.6595459 45.13807678 C-15.65974731 44.14633957 -15.65994873 43.15460236 -15.66015625 42.1328125 C-15.66776978 41.10711655 -15.6753833 40.08142059 -15.68322754 39.02464294 C-15.69402608 36.85686679 -15.69688265 34.68903862 -15.69238281 32.52124023 C-15.69141072 29.20663595 -15.73303204 25.89434805 -15.77734375 22.58007812 C-15.78255098 20.47266107 -15.78523894 18.36523598 -15.78515625 16.2578125 C-15.80155151 15.26809952 -15.81794678 14.27838654 -15.83483887 13.25868225 C-15.79084642 8.87293571 -15.60266194 6.30526148 -13.29125977 2.50390625 C-8.8455831 -0.18513815 -5.10785785 -0.07158935 0 0 Z " fill="#A79BA7" transform="translate(50.19140625,41.37109375)"/>
<path d="M0 0 C0.7528125 0.00128906 1.505625 0.00257813 2.28125 0.00390625 C5.20368712 0.57501632 6.41094356 1.28901094 8.5 3.4375 C8.87137804 6.0797824 8.9904393 8.29984346 8.92578125 10.9375 C8.92303696 11.68176743 8.92029266 12.42603485 8.91746521 13.19285583 C8.90291275 15.60842367 8.85893542 18.02235107 8.8125 20.4375 C8.79288485 22.0860066 8.77433043 23.73452617 8.75683594 25.38305664 C8.70805052 29.36870628 8.63225591 33.35323712 8.54425049 37.3381958 C8.50507963 39.19651521 8.47614242 41.05504416 8.44873047 42.91357422 C8.40708352 45.56889578 8.33863487 48.22089332 8.25 50.875 C8.23622314 51.59880859 8.22244629 52.32261719 8.20825195 53.06835938 C7.97786575 57.70566392 6.78309625 60.17267702 3.5 63.4375 C1.0625 64.5 1.0625 64.5 -1.5 64.4375 C-4.19558448 62.66086478 -6.04642223 61.34465555 -7.5 58.4375 C-7.65541102 56.46945317 -7.75026917 54.49650283 -7.81640625 52.5234375 C-7.85870361 51.29802246 -7.90100098 50.07260742 -7.94458008 48.81005859 C-8.00295044 46.83126709 -8.00295044 46.83126709 -8.0625 44.8125 C-8.08234955 44.14454407 -8.1021991 43.47658813 -8.12265015 42.78839111 C-8.24330297 38.66745286 -8.35001542 34.5462929 -8.44995117 30.42480469 C-8.49772409 28.52787012 -8.55240046 26.63111316 -8.60742188 24.734375 C-8.69826161 21.42706692 -8.76065748 18.12062043 -8.8125 14.8125 C-8.842229 13.81911621 -8.87195801 12.82573242 -8.90258789 11.80224609 C-8.95829006 5.12853962 -8.95829006 5.12853962 -6.76171875 1.81640625 C-4.25357515 0.28726171 -2.91604243 -0.07489835 0 0 Z " fill="#FEDF76" transform="translate(208.5,155.5625)"/>
<path d="M0 0 C3.02977429 1.35231187 5.08472613 2.85480543 7.390625 5.23046875 C8.33228516 6.18856445 8.33228516 6.18856445 9.29296875 7.16601562 C10.26169922 8.16665039 10.26169922 8.16665039 11.25 9.1875 C15.01224648 13.05361218 18.76643833 16.85641136 22.859375 20.375 C27.79699906 24.62831414 32.3918686 29.20790787 37 33.8125 C37.87011719 34.67037109 38.74023438 35.52824219 39.63671875 36.41210938 C40.45785156 37.23130859 41.27898437 38.05050781 42.125 38.89453125 C42.87007813 39.63550049 43.61515625 40.37646973 44.3828125 41.13989258 C46 43 46 43 46 45 C44.37660195 46.70884005 42.70680947 48.37446717 41 50 C40.34 50.66 39.68 51.32 39 52 C34.45211606 51.48739391 32.02492069 48.38696419 28.9921875 45.25 C28.42549347 44.67668945 27.85879944 44.10337891 27.27493286 43.51269531 C25.46771716 41.68209259 23.67097255 39.8416288 21.875 38 C20.07019045 36.16014095 18.26326511 34.32243121 16.4536438 32.48730469 C15.32859706 31.34526619 14.20664951 30.20016479 13.08810425 29.05175781 C10.3237651 26.1615054 10.3237651 26.1615054 7 24 C7 23.34 7 22.68 7 22 C6.43925781 21.76023437 5.87851562 21.52046875 5.30078125 21.2734375 C2.50179996 19.72425601 0.4796952 17.85424315 -1.8125 15.625 C-3.02873047 14.46871094 -3.02873047 14.46871094 -4.26953125 13.2890625 C-6 11 -6 11 -5.921875 8.9453125 C-4.93215673 6.85683919 -3.82416999 5.09889332 -2.4375 3.25 C-1.98246094 2.63640625 -1.52742188 2.0228125 -1.05859375 1.390625 C-0.70925781 0.93171875 -0.35992187 0.4728125 0 0 Z " fill="#847684" transform="translate(327,298)"/>
<path d="M0 0 C1.41569064 -0.08167446 2.83276805 -0.13949698 4.25 -0.1875 C5.43335938 -0.23970703 5.43335938 -0.23970703 6.640625 -0.29296875 C9.72626186 0.09018152 10.83514871 0.75302105 13 3 C13.37137804 5.6422824 13.4904393 7.86234346 13.42578125 10.5 C13.42303696 11.24426743 13.42029266 11.98853485 13.41746521 12.75535583 C13.40291275 15.17092367 13.35893542 17.58485107 13.3125 20 C13.29288485 21.6485066 13.27433043 23.29702617 13.25683594 24.94555664 C13.20805052 28.93120628 13.13225591 32.91573712 13.04425049 36.9006958 C13.00507963 38.75901521 12.97614242 40.61754416 12.94873047 42.47607422 C12.90708352 45.13139578 12.83863487 47.78339332 12.75 50.4375 C12.73622314 51.16130859 12.72244629 51.88511719 12.70825195 52.63085938 C12.47806651 57.26412289 11.29834048 59.75034351 8 63 C5.375 63.9375 5.375 63.9375 3 64 C2.34 63.34 1.68 62.68 1 62 C2.485 61.505 2.485 61.505 4 61 C6.36301881 54.26459264 6.43324974 47.45667417 6.625 40.375 C6.66149658 39.1981665 6.69799316 38.02133301 6.7355957 36.80883789 C6.95957602 29.01988302 7.12344945 21.22944573 7.1875 13.4375 C7.20055176 12.51050293 7.21360352 11.58350586 7.22705078 10.62841797 C7.22817871 9.78037598 7.22930664 8.93233398 7.23046875 8.05859375 C7.23457764 7.31923584 7.23868652 6.57987793 7.24291992 5.81811523 C7.15374103 3.7489187 7.15374103 3.7489187 5 2 C2.42938689 1.35232207 2.42938689 1.35232207 0 1 C0 0.67 0 0.34 0 0 Z " fill="#FECD65" transform="translate(204,156)"/>
<path d="M0 0 C4.44999917 1.53727244 6.04472012 3.14968395 8.4375 7.1875 C8.68693093 11.92668775 7.94162607 13.61135592 4.8125 17.1875 C1.4375 19.1875 1.4375 19.1875 -2.1875 19.25 C-5.95456021 18.06407364 -7.46719919 17.53998129 -9.5625 14.1875 C-10.384705 10.36245934 -10.62212777 6.84621061 -8.45703125 3.45703125 C-5.73577584 0.8525053 -3.71675774 0.19561883 0 0 Z " fill="#FFDF76" transform="translate(209.5625,234.8125)"/>
<path d="M0 0 C4.52680982 0.17752195 6.54012156 0.59760636 10 3.625 C12 7 12 7 12.1875 10.5625 C10.59519515 15.17180351 9.10357962 16.39580524 5 19 C2.125 19.3125 2.125 19.3125 0 19 C0.825 18.154375 1.65 17.30875 2.5 16.4375 C4.59770389 13.89028813 5.01552614 12.91305362 5.625 9.5 C4.809523 4.93332881 3.20339152 3.28347631 0 0 Z " fill="#FEC966" transform="translate(206,235)"/>
</svg>
