<?xml version="1.0" encoding="UTF-8"?>
<svg version="1.1" xmlns="http://www.w3.org/2000/svg" width="512" height="512">
<path d="M0 0 C0.7156311 -0.00335861 1.43126221 -0.00671722 2.1685791 -0.01017761 C4.54095177 -0.0196982 6.91325393 -0.02163135 9.28564453 -0.02270508 C10.93230214 -0.02591716 12.57895946 -0.02928119 14.22561646 -0.03279114 C17.68069114 -0.03878537 21.1357408 -0.04063076 24.59082031 -0.04003906 C29.01839644 -0.03993748 33.44581205 -0.05358381 37.87335014 -0.07081127 C41.27569313 -0.08193014 44.67799731 -0.0839583 48.0803566 -0.08342934 C49.71263303 -0.08460985 51.34491046 -0.08903563 52.97716904 -0.0967617 C55.26093527 -0.10655828 57.54435317 -0.10368486 59.828125 -0.09765625 C61.77765579 -0.09979378 61.77765579 -0.09979378 63.76657104 -0.10197449 C66.86301059 0.13164915 68.52897798 0.38439492 71.04345703 2.14526367 C74.20989502 6.89492065 73.45264739 11.93382858 73.48095703 17.52026367 C73.51382812 18.6572168 73.54669922 19.79416992 73.58056641 20.96557617 C73.61162057 25.77614826 73.57654134 29.15876481 71.26611328 33.43432617 C68.04345703 35.14526367 68.04345703 35.14526367 56.04345703 35.14526367 C56.04345703 46.69526367 56.04345703 58.24526367 56.04345703 70.14526367 C59.67345703 70.47526367 63.30345703 70.80526367 67.04345703 71.14526367 C99.21336053 77.05202896 133.41064755 89.05859448 158.24658203 111.06323242 C159.96551932 112.34638257 159.96551932 112.34638257 161.91918945 111.93554688 C164.57370411 110.94799786 165.87374469 109.62584249 167.82861328 107.58276367 C168.87178711 106.51155273 168.87178711 106.51155273 169.93603516 105.41870117 C171.01014648 104.29334961 171.01014648 104.29334961 172.10595703 103.14526367 C173.52969296 101.66162122 174.95788857 100.18224183 176.39111328 98.70776367 C177.02025635 98.04905273 177.64939941 97.3903418 178.29760742 96.71166992 C181.43568042 93.89613694 184.74636541 93.95487576 188.81298828 93.71948242 C196.19335379 95.12834379 201.77413588 102.58010397 206.79345703 107.64526367 C207.65583984 108.49991211 208.51822266 109.35456055 209.40673828 110.23510742 C210.23044922 111.06139648 211.05416016 111.88768555 211.90283203 112.73901367 C212.65016602 113.48860352 213.3975 114.23819336 214.16748047 115.01049805 C217.10759251 118.35619555 218.34046501 121.07471852 218.41845703 125.52026367 C218.44681641 126.24987305 218.47517578 126.97948242 218.50439453 127.73120117 C217.24385664 134.33300131 211.41681023 139.01907225 206.79345703 143.52026367 C206.14376953 144.16092773 205.49408203 144.8015918 204.82470703 145.46166992 C203.23544819 147.02755731 201.64169286 148.58854876 200.04345703 150.14526367 C201.31304379 152.80335866 202.69699324 155.19787935 204.40673828 157.59448242 C237.80425608 205.38074498 250.65664002 262.61299782 241.04345703 320.14526367 C237.06384851 341.46344231 230.41378411 362.14334321 220.07324219 381.24194336 C219.01777421 383.19273244 217.98996404 385.15672886 216.96142578 387.12182617 C211.58716001 397.20331722 205.16635967 406.22936257 198.04345703 415.14526367 C197.59244629 415.71341797 197.14143555 416.28157227 196.67675781 416.86694336 C185.39773936 430.96048885 172.63011684 443.50853684 158.04345703 454.14526367 C156.99802734 454.91225586 155.95259766 455.67924805 154.87548828 456.46948242 C108.67653535 489.35395451 51.68337619 502.7811935 -4.3828125 493.75463867 C-28.63116696 489.63618413 -51.22916293 481.59828386 -72.95654297 470.14526367 C-74.66583984 469.25581055 -74.66583984 469.25581055 -76.40966797 468.34838867 C-92.34307522 459.67765077 -106.46498113 448.39506969 -119.36523438 435.70581055 C-120.79985239 434.29892526 -122.25773018 432.91585341 -123.71826172 431.53588867 C-130.54772146 424.9744611 -136.32405222 417.73321697 -141.95654297 410.14526367 C-142.55813232 409.33484619 -142.55813232 409.33484619 -143.171875 408.50805664 C-149.12158522 400.40117075 -154.17377134 391.90674419 -158.92626953 383.05932617 C-159.85698941 381.33021626 -160.80793092 379.61202822 -161.76123047 377.89526367 C-187.3727388 329.740907 -190.11260136 270.88549425 -174.95654297 219.14526367 C-167.56270475 195.13243284 -156.18392619 171.4891642 -139.95654297 152.14526367 C-141.29937896 149.13862114 -142.77225102 147.10686167 -145.14404297 144.83276367 C-145.76021484 144.23206055 -146.37638672 143.63135742 -147.01123047 143.01245117 C-147.65318359 142.3962793 -148.29513672 141.78010742 -148.95654297 141.14526367 C-150.2320671 139.92096541 -151.50307961 138.69194552 -152.76904297 137.45776367 C-153.33236328 136.91764648 -153.89568359 136.3775293 -154.47607422 135.82104492 C-157.22305211 132.71166889 -158.25929484 129.88840699 -158.33154297 125.77026367 C-158.35990234 125.0406543 -158.38826172 124.31104492 -158.41748047 123.55932617 C-156.98332318 116.04823123 -149.62378097 110.51573934 -144.45654297 105.39526367 C-143.60189453 104.53288086 -142.74724609 103.67049805 -141.86669922 102.78198242 C-141.04041016 101.95827148 -140.21412109 101.13456055 -139.36279297 100.28588867 C-138.61320312 99.53855469 -137.86361328 98.7912207 -137.09130859 98.02124023 C-133.15427492 94.56147734 -130.32091194 93.91810025 -125.05419922 93.78198242 C-117.91644886 95.01812913 -113.06519295 102.0178372 -108.39599609 107.04760742 C-107.4340332 108.04727539 -107.4340332 108.04727539 -106.45263672 109.06713867 C-105.87698975 109.68169922 -105.30134277 110.29625977 -104.70825195 110.92944336 C-103.02966245 112.37251698 -103.02966245 112.37251698 -100.91430664 111.95849609 C-97.88291495 110.69929099 -95.42511716 108.68115947 -92.83154297 106.70776367 C-70.859298 90.53851258 -45.25357333 80.19850948 -18.89404297 73.77026367 C-17.87197754 73.51946045 -16.84991211 73.26865723 -15.796875 73.01025391 C-14.80671387 72.77894775 -13.81655273 72.5476416 -12.79638672 72.30932617 C-11.93392334 72.10774902 -11.07145996 71.90617187 -10.18286133 71.69848633 C-5.4811954 70.89228315 -0.70723813 70.57714505 4.04345703 70.14526367 C4.04345703 58.59526367 4.04345703 47.04526367 4.04345703 35.14526367 C0.08345703 35.14526367 -3.87654297 35.14526367 -7.95654297 35.14526367 C-11.17138672 33.43041992 -11.17138672 33.43041992 -12.95654297 30.14526367 C-13.62922971 25.93581758 -13.60862604 21.836749 -13.51904297 17.58276367 C-13.53 16.44645508 -13.54095703 15.31014648 -13.55224609 14.1394043 C-13.47819216 5.77130936 -13.47819216 5.77130936 -11.04614258 2.85253906 C-7.29827738 -0.20959686 -4.80726854 0.01411632 0 0 Z " fill="#FEFEFE" transform="translate(225.95654296875,7.854736328125)"/>
<path d="M0 0 C0.7156311 -0.00335861 1.43126221 -0.00671722 2.1685791 -0.01017761 C4.54095177 -0.0196982 6.91325393 -0.02163135 9.28564453 -0.02270508 C10.93230214 -0.02591716 12.57895946 -0.02928119 14.22561646 -0.03279114 C17.68069114 -0.03878537 21.1357408 -0.04063076 24.59082031 -0.04003906 C29.01839644 -0.03993748 33.44581205 -0.05358381 37.87335014 -0.07081127 C41.27569313 -0.08193014 44.67799731 -0.0839583 48.0803566 -0.08342934 C49.71263303 -0.08460985 51.34491046 -0.08903563 52.97716904 -0.0967617 C55.26093527 -0.10655828 57.54435317 -0.10368486 59.828125 -0.09765625 C61.77765579 -0.09979378 61.77765579 -0.09979378 63.76657104 -0.10197449 C66.86301059 0.13164915 68.52897798 0.38439492 71.04345703 2.14526367 C74.20989502 6.89492065 73.45264739 11.93382858 73.48095703 17.52026367 C73.51382812 18.6572168 73.54669922 19.79416992 73.58056641 20.96557617 C73.61162057 25.77614826 73.57654134 29.15876481 71.26611328 33.43432617 C68.04345703 35.14526367 68.04345703 35.14526367 56.04345703 35.14526367 C56.04345703 46.69526367 56.04345703 58.24526367 56.04345703 70.14526367 C59.67345703 70.47526367 63.30345703 70.80526367 67.04345703 71.14526367 C99.21336053 77.05202896 133.41064755 89.05859448 158.24658203 111.06323242 C159.96551932 112.34638257 159.96551932 112.34638257 161.91918945 111.93554688 C164.57370411 110.94799786 165.87374469 109.62584249 167.82861328 107.58276367 C168.87178711 106.51155273 168.87178711 106.51155273 169.93603516 105.41870117 C171.01014648 104.29334961 171.01014648 104.29334961 172.10595703 103.14526367 C173.52969296 101.66162122 174.95788857 100.18224183 176.39111328 98.70776367 C177.02025635 98.04905273 177.64939941 97.3903418 178.29760742 96.71166992 C181.43568042 93.89613694 184.74636541 93.95487576 188.81298828 93.71948242 C196.19335379 95.12834379 201.77413588 102.58010397 206.79345703 107.64526367 C207.65583984 108.49991211 208.51822266 109.35456055 209.40673828 110.23510742 C210.23044922 111.06139648 211.05416016 111.88768555 211.90283203 112.73901367 C212.65016602 113.48860352 213.3975 114.23819336 214.16748047 115.01049805 C217.10759251 118.35619555 218.34046501 121.07471852 218.41845703 125.52026367 C218.44681641 126.24987305 218.47517578 126.97948242 218.50439453 127.73120117 C217.24385664 134.33300131 211.41681023 139.01907225 206.79345703 143.52026367 C206.14376953 144.16092773 205.49408203 144.8015918 204.82470703 145.46166992 C203.23544819 147.02755731 201.64169286 148.58854876 200.04345703 150.14526367 C201.31304379 152.80335866 202.69699324 155.19787935 204.40673828 157.59448242 C237.80425608 205.38074498 250.65664002 262.61299782 241.04345703 320.14526367 C237.06384851 341.46344231 230.41378411 362.14334321 220.07324219 381.24194336 C219.01777421 383.19273244 217.98996404 385.15672886 216.96142578 387.12182617 C211.58716001 397.20331722 205.16635967 406.22936257 198.04345703 415.14526367 C197.59244629 415.71341797 197.14143555 416.28157227 196.67675781 416.86694336 C185.39773936 430.96048885 172.63011684 443.50853684 158.04345703 454.14526367 C156.99802734 454.91225586 155.95259766 455.67924805 154.87548828 456.46948242 C108.67653535 489.35395451 51.68337619 502.7811935 -4.3828125 493.75463867 C-28.63116696 489.63618413 -51.22916293 481.59828386 -72.95654297 470.14526367 C-74.66583984 469.25581055 -74.66583984 469.25581055 -76.40966797 468.34838867 C-92.34307522 459.67765077 -106.46498113 448.39506969 -119.36523438 435.70581055 C-120.79985239 434.29892526 -122.25773018 432.91585341 -123.71826172 431.53588867 C-130.54772146 424.9744611 -136.32405222 417.73321697 -141.95654297 410.14526367 C-142.55813232 409.33484619 -142.55813232 409.33484619 -143.171875 408.50805664 C-149.12158522 400.40117075 -154.17377134 391.90674419 -158.92626953 383.05932617 C-159.85698941 381.33021626 -160.80793092 379.61202822 -161.76123047 377.89526367 C-187.3727388 329.740907 -190.11260136 270.88549425 -174.95654297 219.14526367 C-167.56270475 195.13243284 -156.18392619 171.4891642 -139.95654297 152.14526367 C-141.29937896 149.13862114 -142.77225102 147.10686167 -145.14404297 144.83276367 C-145.76021484 144.23206055 -146.37638672 143.63135742 -147.01123047 143.01245117 C-147.65318359 142.3962793 -148.29513672 141.78010742 -148.95654297 141.14526367 C-150.2320671 139.92096541 -151.50307961 138.69194552 -152.76904297 137.45776367 C-153.33236328 136.91764648 -153.89568359 136.3775293 -154.47607422 135.82104492 C-157.22305211 132.71166889 -158.25929484 129.88840699 -158.33154297 125.77026367 C-158.35990234 125.0406543 -158.38826172 124.31104492 -158.41748047 123.55932617 C-156.98332318 116.04823123 -149.62378097 110.51573934 -144.45654297 105.39526367 C-143.60189453 104.53288086 -142.74724609 103.67049805 -141.86669922 102.78198242 C-141.04041016 101.95827148 -140.21412109 101.13456055 -139.36279297 100.28588867 C-138.61320312 99.53855469 -137.86361328 98.7912207 -137.09130859 98.02124023 C-133.15427492 94.56147734 -130.32091194 93.91810025 -125.05419922 93.78198242 C-117.91644886 95.01812913 -113.06519295 102.0178372 -108.39599609 107.04760742 C-107.4340332 108.04727539 -107.4340332 108.04727539 -106.45263672 109.06713867 C-105.87698975 109.68169922 -105.30134277 110.29625977 -104.70825195 110.92944336 C-103.02966245 112.37251698 -103.02966245 112.37251698 -100.91430664 111.95849609 C-97.88291495 110.69929099 -95.42511716 108.68115947 -92.83154297 106.70776367 C-70.859298 90.53851258 -45.25357333 80.19850948 -18.89404297 73.77026367 C-17.87197754 73.51946045 -16.84991211 73.26865723 -15.796875 73.01025391 C-14.80671387 72.77894775 -13.81655273 72.5476416 -12.79638672 72.30932617 C-11.93392334 72.10774902 -11.07145996 71.90617187 -10.18286133 71.69848633 C-5.4811954 70.89228315 -0.70723813 70.57714505 4.04345703 70.14526367 C4.04345703 58.59526367 4.04345703 47.04526367 4.04345703 35.14526367 C0.08345703 35.14526367 -3.87654297 35.14526367 -7.95654297 35.14526367 C-11.17138672 33.43041992 -11.17138672 33.43041992 -12.95654297 30.14526367 C-13.62922971 25.93581758 -13.60862604 21.836749 -13.51904297 17.58276367 C-13.53 16.44645508 -13.54095703 15.31014648 -13.55224609 14.1394043 C-13.47819216 5.77130936 -13.47819216 5.77130936 -11.04614258 2.85253906 C-7.29827738 -0.20959686 -4.80726854 0.01411632 0 0 Z M-5.95654297 115.14526367 C-6.77719238 115.31848145 -7.5978418 115.49169922 -8.44335938 115.67016602 C-44.34182886 123.37575551 -79.64592437 144.44560749 -102.26904297 173.64526367 C-102.73415283 174.24419434 -103.1992627 174.843125 -103.6784668 175.46020508 C-112.52649296 186.99694073 -119.92900181 198.90800147 -125.95654297 212.14526367 C-126.26720703 212.82314941 -126.57787109 213.50103516 -126.89794922 214.19946289 C-143.5268542 251.0143974 -146.68973384 295.84643103 -132.95654297 334.14526367 C-132.71564941 334.82282715 -132.47475586 335.50039063 -132.2265625 336.19848633 C-116.59117616 379.65777513 -86.7408078 415.61079159 -44.95654297 436.14526367 C-13.56972932 450.83264087 21.65806521 457.44457116 56.04345703 451.14526367 C57.30287109 450.97381836 58.56228516 450.80237305 59.85986328 450.62573242 C77.55357453 448.12754637 94.6101292 441.69776311 110.2421875 433.13208008 C112.03184047 432.15162775 113.83513643 431.20070281 115.64111328 430.25073242 C128.46779262 423.36170952 139.47755125 414.09838406 150.04345703 404.14526367 C151.03539062 403.23260742 151.03539062 403.23260742 152.04736328 402.30151367 C179.07446736 376.53021443 198.68677105 335.5341279 200.20458984 298.1796875 C200.22417573 296.73728836 200.23790486 295.29480093 200.24658203 293.85229492 C200.25717148 292.68278038 200.25717148 292.68278038 200.26797485 291.48963928 C200.4769674 261.61279966 197.22717297 235.33499276 184.04345703 208.14526367 C183.72570312 207.47462891 183.40794922 206.80399414 183.08056641 206.11303711 C176.1706853 191.67315735 167.18719501 177.76333333 155.57104492 166.6574707 C154.04345703 165.14526367 154.04345703 165.14526367 151.60595703 162.14526367 C140.0619009 148.63027112 123.75564159 138.14361113 108.04345703 130.14526367 C107.14409424 129.67830078 107.14409424 129.67830078 106.2265625 129.2019043 C82.71412776 117.10721618 58.19606198 111.96645228 31.93261719 111.9050293 C29.44447862 111.89536475 26.95718268 111.86427534 24.46923828 111.83276367 C13.94466259 111.763456 4.31464852 112.80328369 -5.95654297 115.14526367 Z " fill="#4194A7" transform="translate(225.95654296875,7.854736328125)"/>
<path d="M0 0 C0.827276 0.00021149 1.654552 0.00042297 2.50689697 0.00064087 C22.59955784 0.05164729 41.67105792 2.51027098 60.625 9.375 C61.8521875 9.78105469 63.079375 10.18710938 64.34375 10.60546875 C111.17556319 26.51604633 148.74147538 62.54778988 170.625 106.375 C179.27695913 125.28325505 184.79983474 144.81730214 187.625 165.375 C187.75777344 166.29925781 187.89054687 167.22351563 188.02734375 168.17578125 C189.80403275 183.43583609 189.12397603 199.25619502 186.625 214.375 C186.315625 216.30859375 186.315625 216.30859375 186 218.28125 C177.62516635 268.00221988 149.65614511 312.35084277 108.62841797 341.64892578 C81.06275309 360.80922772 46.46004602 374.41779698 12.625 375.375 C11.93712402 375.39546387 11.24924805 375.41592773 10.54052734 375.43701172 C-43.59700512 376.82163261 -92.00461639 358.50280092 -131.53515625 321.4375 C-162.91997656 291.34198577 -180.35063206 251.16668809 -186.07641602 208.52758789 C-186.33444421 206.6673797 -186.63588083 204.81328874 -186.9453125 202.9609375 C-192.38296146 157.58128525 -176.29639935 109.25290328 -148.79296875 73.41796875 C-131.11905281 51.17567389 -110.6219053 33.50770442 -85.375 20.375 C-84.70629883 20.02695313 -84.03759766 19.67890625 -83.34863281 19.3203125 C-57.14634892 5.89747665 -29.31448341 -0.06957377 0 0 Z M-35.375 20.375 C-36.19564941 20.54821777 -37.01629883 20.72143555 -37.86181641 20.89990234 C-73.76028589 28.60549184 -109.0643814 49.67534381 -131.6875 78.875 C-132.15260986 79.47393066 -132.61771973 80.07286133 -133.09692383 80.68994141 C-141.94494999 92.22667705 -149.34745884 104.1377378 -155.375 117.375 C-155.68566406 118.05288574 -155.99632812 118.73077148 -156.31640625 119.42919922 C-172.94531123 156.24413373 -176.10819088 201.07616736 -162.375 239.375 C-162.13410645 240.05256348 -161.89321289 240.73012695 -161.64501953 241.42822266 C-146.00963319 284.88751146 -116.15926483 320.84052792 -74.375 341.375 C-42.98818635 356.0623772 -7.76039182 362.67430749 26.625 356.375 C27.88441406 356.20355469 29.14382813 356.03210938 30.44140625 355.85546875 C48.1351175 353.3572827 65.19167217 346.92749944 80.82373047 338.36181641 C82.61338343 337.38136408 84.4166794 336.43043914 86.22265625 335.48046875 C99.04933559 328.59144584 110.05909422 319.32812039 120.625 309.375 C121.61693359 308.46234375 121.61693359 308.46234375 122.62890625 307.53125 C149.65601033 281.75995076 169.26831402 240.76386422 170.78613281 203.40942383 C170.8057187 201.96702469 170.81944782 200.52453726 170.828125 199.08203125 C170.83871445 197.91251671 170.83871445 197.91251671 170.84951782 196.71937561 C171.05851037 166.84253599 167.80871594 140.56472909 154.625 113.375 C154.30724609 112.70436523 153.98949219 112.03373047 153.66210938 111.34277344 C146.75222826 96.90289368 137.76873797 82.99306966 126.15258789 71.88720703 C124.625 70.375 124.625 70.375 122.1875 67.375 C110.64344386 53.86000745 94.33718455 43.37334745 78.625 35.375 C77.72563721 34.90803711 77.72563721 34.90803711 76.80810547 34.43164062 C53.29567073 22.33695251 28.77760495 17.19618861 2.51416016 17.13476562 C0.02602158 17.12510107 -2.46127435 17.09401166 -4.94921875 17.0625 C-15.47379444 16.99319233 -25.10380851 18.03302002 -35.375 20.375 Z " fill="#357A84" transform="translate(255.375,102.625)"/>
<path d="M0 0 C2.85159928 -0.02039284 5.70304992 -0.03519822 8.5546875 -0.046875 C9.35350342 -0.05315918 10.15231934 -0.05944336 10.9753418 -0.06591797 C52.95932944 -0.19450599 93.71306507 22.31169739 123 51 C127.84773414 56.26254477 132.29286924 61.8101919 136.625 67.5 C137.44484375 68.56154297 137.44484375 68.56154297 138.28125 69.64453125 C139.8845459 71.74262421 141.45204681 73.86079405 143 76 C143.52174805 76.71671875 144.04349609 77.4334375 144.58105469 78.171875 C145.05704102 78.86796875 145.53302734 79.5640625 146.0234375 80.28125 C146.66804932 81.2103418 146.66804932 81.2103418 147.32568359 82.15820312 C148 84 148 84 147.42651367 86.015625 C145.63008394 88.51457774 143.73831889 89.79786282 141.15234375 91.46875 C139.66927734 92.43941406 139.66927734 92.43941406 138.15625 93.4296875 C137.0940625 94.11289063 136.031875 94.79609375 134.9375 95.5 C132.72664831 96.94605884 130.51701697 98.39398511 128.30859375 99.84375 C127.22433105 100.55402344 126.14006836 101.26429688 125.02294922 101.99609375 C121.1213495 104.58245544 117.30158747 107.26965677 113.5 110 C105.67712056 115.59825413 97.67093982 120.90605841 89.65234375 126.21875 C84.36780142 129.72833155 79.13524779 133.27553457 74 137 C66.73439877 142.26867525 59.2537674 147.20418365 51.77172852 152.15893555 C45.32659348 156.4306933 38.95256832 160.77467053 32.68359375 165.30078125 C26.66562635 169.11128463 21.07765423 171.30121822 14 170 C8.92616999 167.82165955 4.97200353 164.68662095 2 160 C0.28918646 155.67048293 -0.2480818 152.07414585 -0.24050903 147.43203735 C-0.24463303 145.47599579 -0.24463303 145.47599579 -0.24884033 143.48043823 C-0.24176336 142.04766753 -0.23449376 140.61489776 -0.22705078 139.18212891 C-0.22648626 137.66402189 -0.22680403 136.14591432 -0.22793579 134.62780762 C-0.2285087 130.51667569 -0.21676435 126.40566089 -0.20278788 122.29455614 C-0.19027027 117.99442167 -0.1891092 113.6942844 -0.18673706 109.39413452 C-0.18052532 101.25571921 -0.16411864 93.11735774 -0.14403808 84.97896612 C-0.12166956 75.71177991 -0.11068325 66.44459111 -0.10064721 57.17738461 C-0.07975215 38.1182259 -0.04458211 19.05911728 0 0 Z " fill="#E2C74C" transform="translate(256,120)"/>
<path d="M0 0 C0.05607422 1.80984375 0.05607422 1.80984375 0.11328125 3.65625 C0.17899219 5.27086178 0.24543771 6.88544378 0.3125 8.5 C0.34633789 9.68722656 0.34633789 9.68722656 0.38085938 10.8984375 C0.64426168 16.74117962 1.28588551 22.99296091 5.37988281 27.52880859 C10.18219455 31.6792705 14.14151783 33.49631473 20.40625 33.40234375 C25.32084868 32.63998883 29.62960465 30.28730972 34 28 C34.69942517 39.13251735 32.87812074 48.42898391 25.69140625 57.21875 C18.1138644 65.19879407 10.4030743 68.09984235 -0.5 68.4375 C-6.91064868 68.29020238 -11.58273148 67.42311653 -17 64 C-18.04414063 63.36384766 -18.04414063 63.36384766 -19.109375 62.71484375 C-26.45456943 57.75821819 -32.20713375 49.77010407 -34 41 C-35.10419264 28.930561 -32.80208644 19.37665717 -25 10 C-17.9894719 3.21561797 -9.72427965 -0.309463 0 0 Z " fill="#BFDBEF" transform="translate(256,256)"/>
<path d="M0 0 C17.16 0 34.32 0 52 0 C52 11.55 52 23.1 52 35 C34.84 35 17.68 35 0 35 C0 23.45 0 11.9 0 0 Z " fill="#337984" transform="translate(230,43)"/>
<path d="M0 0 C3.49577901 1.88691803 6.20828395 3.96776824 8.98828125 6.79296875 C9.69404297 7.50517578 10.39980469 8.21738281 11.12695312 8.95117188 C12.20879883 10.0581543 12.20879883 10.0581543 13.3125 11.1875 C14.05306641 11.93708984 14.79363281 12.68667969 15.55664062 13.45898438 C17.37571712 15.30153282 19.18994389 17.14859662 21 19 C19.2976208 22.69295646 17.50755375 24.39810262 14.25 26.875 C3.23944241 35.66032679 -6.40327575 45.8560982 -15 57 C-19.47236297 53.32272378 -23.69175268 49.44150019 -27.8125 45.375 C-28.74707031 44.45460937 -29.68164062 43.53421875 -30.64453125 42.5859375 C-33.90658969 39.00470584 -35.28994514 36.47312724 -35.375 31.625 C-35.40335937 30.89539063 -35.43171875 30.16578125 -35.4609375 29.4140625 C-34.02678021 21.90296756 -26.667238 16.37047567 -21.5 11.25 C-20.64535156 10.38761719 -19.79070312 9.52523437 -18.91015625 8.63671875 C-18.08386719 7.81300781 -17.25757812 6.98929687 -16.40625 6.140625 C-15.65666016 5.39329102 -14.90707031 4.64595703 -14.13476562 3.87597656 C-9.86926835 0.12756839 -5.65839696 -0.97994584 0 0 Z " fill="#347984" transform="translate(103,102)"/>
<path d="M0 0 C6.18938769 3.32713771 10.84513099 8.55033767 15.75 13.5 C16.61238281 14.35464844 17.47476563 15.20929688 18.36328125 16.08984375 C19.18699219 16.91613281 20.01070313 17.74242188 20.859375 18.59375 C21.60670898 19.34333984 22.35404297 20.09292969 23.12402344 20.86523438 C26.06413547 24.21093188 27.29700798 26.92945485 27.375 31.375 C27.41753906 32.46941406 27.41753906 32.46941406 27.4609375 33.5859375 C26.16001237 40.39925727 19.99613819 45.24549658 15.25 49.875 C14.55261719 50.56335938 13.85523438 51.25171875 13.13671875 51.9609375 C11.42896657 53.64529582 9.71670557 55.32477617 8 57 C3.94192204 53.00306069 0.0573 48.86614989 -3.8125 44.6875 C-11.79732871 36.11798645 -19.69738777 28.16758647 -29 21 C-27.58460683 17.79008252 -25.88037968 15.62345155 -23.41015625 13.14453125 C-22.35731445 12.08782227 -22.35731445 12.08782227 -21.28320312 11.00976562 C-20.18395508 9.92211914 -20.18395508 9.92211914 -19.0625 8.8125 C-18.33353516 8.07580078 -17.60457031 7.33910156 -16.85351562 6.58007812 C-16.15033203 5.87947266 -15.44714844 5.17886719 -14.72265625 4.45703125 C-13.75984741 3.4976062 -13.75984741 3.4976062 -12.77758789 2.51879883 C-9.22169861 -0.51940846 -4.47500686 -0.85424824 0 0 Z " fill="#347884" transform="translate(417,102)"/>
<path d="M0 0 C3.6875 0.4375 3.6875 0.4375 6.625 2.5 C8.6875 5.4375 8.6875 5.4375 9.375 8.625 C8.41054434 13.97334504 5.93696513 18.11278606 2.6875 22.4375 C-1.06297482 24.93781654 -2.87106266 24.97353554 -7.3125 24.4375 C-10.82296684 21.97270413 -12.07836946 20.43255481 -13.0625 16.25 C-11.81072147 9.88679246 -6.86195297 0.90629568 0 0 Z " fill="#4697AA" transform="translate(187.3125,399.5625)"/>
<path d="M0 0 C5.69018272 1.09426591 10.18623245 4.11492618 14.8125 7.5 C16.99070806 10.71995974 16.84865642 12.83350936 16.25 16.625 C13.80827309 20.10261106 12.26406774 21.38162374 8.125 22.375 C2.3431131 21.25592512 -2.10614409 18.17618393 -6.75 14.625 C-8.31935594 11.48628812 -8.10201103 9.08644178 -7.75 5.625 C-5.40172108 2.37884973 -3.93242705 0.89373342 0 0 Z " fill="#4697A9" transform="translate(373.75,349.375)"/>
<path d="M0 0 C3.69186542 2.59216083 4.82883761 4.04149064 5.625 8.5 C4.82175342 12.99818086 3.59972155 14.22521464 0 17 C-4.46037516 19.80261766 -8.62439362 22.07512128 -14 21 C-17.58460177 18.42843786 -18.80595787 16.88935975 -19.75 12.5625 C-18.69127861 7.53357338 -16.09573692 5.83352869 -12 3 C-11.175 2.38125 -10.35 1.7625 -9.5 1.125 C-6.05059482 -0.42723233 -3.74123443 -0.53446206 0 0 Z " fill="#4597A9" transform="translate(141,350)"/>
<path d="M0 0 C5.233665 0.98131219 7.85720807 4.08494832 10.875 8.25 C13.21469278 12.19131214 13.47727086 15.16796241 12.63671875 19.640625 C12 21.5625 12 21.5625 10.375 23.625 C6.96803659 24.96985398 4.63267682 25.07234938 1 24.5625 C-4.17170848 20.59351443 -7.55976599 15.39956364 -8.5625 8.9375 C-7.68510963 3.6731578 -5.29689118 0.9931671 0 0 Z " fill="#4597A9" transform="translate(324,399.4375)"/>
<path d="M0 0 C0.70318359 -0.02384766 1.40636719 -0.04769531 2.13085938 -0.07226562 C6.09921852 -0.0611081 7.89292228 0.42839973 11.03125 2.91015625 C13.0625 5.5625 13.0625 5.5625 13.625 8.5625 C12.93892343 12.22157504 11.63515686 13.91417676 9.0625 16.5625 C4.3886088 18.8994456 -1.86309586 18.06700723 -6.9375 17.5625 C-10.3125 15.5625 -10.3125 15.5625 -11.9375 12.5625 C-12.5795786 9.53212902 -12.39379427 7.75655987 -11.9375 4.5625 C-8.76253379 0.00150793 -5.1912522 -0.08044785 0 0 Z " fill="#4797AA" transform="translate(114.9375,281.4375)"/>
<path d="M0 0 C1.06057617 -0.01643555 1.06057617 -0.01643555 2.14257812 -0.03320312 C5.56869613 0.01505206 7.60409852 0.3210349 10.40234375 2.34765625 C12.47200635 5.33365801 12.50687957 7.12954506 12.3359375 10.66015625 C11.72854423 13.56016139 10.27250208 14.84558671 7.9375 16.5625 C5.14018195 17.96115903 2.74465441 17.80787267 -0.375 17.875 C-1.50550781 17.91238281 -2.63601563 17.94976562 -3.80078125 17.98828125 C-7.70554057 17.47855818 -9.28398129 16.29040817 -12.0625 13.5625 C-13.50680855 10.67388291 -13.43938506 8.76602299 -13.0625 5.5625 C-9.27875606 0.57117821 -6.002799 -0.20357797 0 0 Z " fill="#4697AA" transform="translate(397.0625,281.4375)"/>
<path d="M0 0 C5.96751646 1.23854115 12.41441568 4.89842497 16.3125 9.6875 C16.96026088 14.05988596 16.8120785 15.97597911 14.25 19.625 C11.3125 21.6875 11.3125 21.6875 8.125 22.375 C2.77665496 21.41054434 -1.36278606 18.93696513 -5.6875 15.6875 C-8.18781654 11.93702518 -8.22353554 10.12893734 -7.6875 5.6875 C-5.36545316 2.47761172 -3.85781243 0.98688225 0 0 Z " fill="#4697A9" transform="translate(129.6875,208.3125)"/>
<path d="M0 0 C4.75583131 0.97057782 7.46392864 3.54784401 10.328125 7.26953125 C13.00303107 11.44200797 13.87488191 14.75070856 13.0625 19.625 C10.47033917 23.31686542 9.02100936 24.45383761 4.5625 25.25 C0.06431914 24.44675342 -1.16271464 23.22472155 -3.9375 19.625 C-6.74011766 15.16462484 -9.01262128 11.00060638 -7.9375 5.625 C-5.50679333 2.33639686 -4.0299485 0.85743585 0 0 Z " fill="#4597A9" transform="translate(182.9375,155.375)"/>
<path d="M0 0 C4.09764579 0.85367621 5.41450818 2.35979486 8 5.625 C8.47888066 8.5547978 8.66089951 10.78604413 8.5625 13.6875 C8.57345703 14.39455078 8.58441406 15.10160156 8.59570312 15.83007812 C8.54724508 19.27059962 8.26202717 21.27525558 6.1796875 24.0546875 C3.04379766 26.31387695 0.84958492 26.69253658 -3 26.625 C-6.67023975 23.88434063 -7.87019518 22.37023236 -8.6640625 17.8125 C-8.67723073 16.41666805 -8.66361697 15.0203598 -8.625 13.625 C-8.64433594 12.92632812 -8.66367188 12.22765625 -8.68359375 11.5078125 C-8.64640121 7.56540327 -8.1187401 5.77450996 -5.6484375 2.6640625 C-3 0.625 -3 0.625 0 0 Z " fill="#4697A9" transform="translate(256,417.375)"/>
</svg>
